<?xml version="1.0" encoding="utf-8"?>
<!-- Generator: Adobe Illustrator 14.0.0, SVG Export Plug-In . SVG Version: 6.00 Build 43363)  -->
<!DOCTYPE svg PUBLIC "-//W3C//DTD SVG 1.1//EN" "http://www.w3.org/Graphics/SVG/1.1/DTD/svg11.dtd">
<svg version="1.1" id="Layer_1" xmlns="http://www.w3.org/2000/svg" xmlns:xlink="http://www.w3.org/1999/xlink" x="0px" y="0px"
	 width="300px" height="130px" viewBox="0 0 300 130" enable-background="new 0 0 300 130" xml:space="preserve">
<g>
	<g>
		<path fill="#909194" d="M79.374,128.265h-3.963v-0.498h3.458v-1.069h0.505V128.265L79.374,128.265z M72.888,128.265h-5.046v-0.498
			h5.046V128.265L72.888,128.265z M65.319,128.265h-5.045v-0.498h5.045V128.265L65.319,128.265z M57.75,128.265h-4.233v-1.3h0.504
			v0.802h3.729V128.265L57.75,128.265z M54.021,124.476h-0.504v-4.979h0.504V124.476L54.021,124.476z M79.374,124.209h-0.505v-4.979
			h0.505V124.209L79.374,124.209z M54.021,117.007h-0.504v-4.979h0.504V117.007L54.021,117.007z M79.374,116.74h-0.505v-4.979h0.505
			V116.74L79.374,116.74z M54.021,109.538h-0.504v-4.979h0.504V109.538L54.021,109.538z M79.374,109.271h-0.505v-4.979h0.505
			V109.271L79.374,109.271z M54.021,102.07h-0.504v-1.073h-3.455v-0.498h3.959V102.07L54.021,102.07z M79.374,101.803h-0.505v-1.304
			h4.229v0.498h-3.725V101.803L79.374,101.803z M93.848,100.997H93.19v-0.498h0.154V96.17h0.504V100.997L93.848,100.997z
			 M90.667,100.997h-5.046v-0.498h5.046V100.997L90.667,100.997z M47.54,100.997h-5.046v-0.498h5.046V100.997L47.54,100.997z
			 M39.971,100.997h-5.046v-0.498h5.046V100.997L39.971,100.997z M32.402,100.997h-5.046v-0.498h5.046V100.997L32.402,100.997z
			 M24.833,100.997h-5.045v-0.498h5.045V100.997L24.833,100.997z M17.265,100.997h-5.046v-0.498h5.046V100.997L17.265,100.997z
			 M9.696,100.997H4.651v-0.498h5.045V100.997L9.696,100.997z M2.127,100.997H1.163l-0.324-4.479l0.503-0.035l0.291,4.017h0.495
			V100.997L2.127,100.997z M0.659,94.034l-0.36-4.966l0.503-0.035L1.162,94L0.659,94.034L0.659,94.034z M93.848,93.681h-0.504
			v-4.979h0.504V93.681L93.848,93.681z M0.12,86.585L0,84.93l1.888-2.942l0.426,0.266l-1.799,2.805l0.107,1.492L0.12,86.585
			L0.12,86.585z M93.848,86.213h-0.504v-4.98h0.504V86.213L93.848,86.213z M91.736,80.827H86.69v-0.498h5.045V80.827L91.736,80.827z
			 M84.167,80.827h-5.298v-2.299h0.505v1.801h4.793V80.827L84.167,80.827z M53.274,80.827h-5.046v-0.498h5.046V80.827L53.274,80.827
			z M45.705,80.827H40.66v-0.498h5.045V80.827L45.705,80.827z M38.136,80.827h-5.045v-0.498h5.045V80.827L38.136,80.827z
			 M30.568,80.827h-5.046v-0.498h0.354l-0.353-0.219l2.689-4.213l0.427,0.266l-2.66,4.166h4.588V80.827L30.568,80.827z M3.663,80.15
			l-0.426-0.268l2.699-4.207l0.426,0.267L3.663,80.15L3.663,80.15z M54.021,78.578h-0.504V73.6h0.504V78.578L54.021,78.578z
			 M79.374,76.039h-0.505v-4.979h0.505V76.039L79.374,76.039z M29.984,74.057l-0.427-0.266l2.689-4.213l0.427,0.266L29.984,74.057
			L29.984,74.057z M7.711,73.839l-0.426-0.267l2.699-4.206l0.426,0.266L7.711,73.839L7.711,73.839z M54.021,71.11h-0.504v-4.979
			h0.504V71.11L54.021,71.11z M79.374,68.571h-0.505v-4.979h0.505V68.571L79.374,68.571z M34.018,67.737l-0.427-0.266l2.689-4.212
			l0.427,0.265L34.018,67.737L34.018,67.737z M11.759,67.528l-0.427-0.267l2.699-4.206l0.426,0.266L11.759,67.528L11.759,67.528z
			 M54.021,63.642h-0.504v-4.979h0.504V63.642L54.021,63.642z M38.052,61.418l-0.427-0.265l2.689-4.213l0.427,0.265L38.052,61.418
			L38.052,61.418z M15.807,61.218l-0.426-0.266l2.699-4.208l0.426,0.267L15.807,61.218L15.807,61.218z M79.374,61.102h-0.505v-4.979
			h0.505V61.102L79.374,61.102z M54.021,56.173h-0.504v-4.979h0.504V56.173L54.021,56.173z M42.086,55.099l-0.427-0.265l2.689-4.214
			l0.427,0.267L42.086,55.099L42.086,55.099z M19.855,54.907l-0.427-0.267l2.699-4.207l0.426,0.267L19.855,54.907L19.855,54.907z
			 M79.374,53.634h-0.505v-4.979h0.505V53.634L79.374,53.634z M46.12,48.78l-0.426-0.267l2.689-4.212l0.426,0.266L46.12,48.78
			L46.12,48.78z M54.021,48.705h-0.504v-4.979h0.504V48.705L54.021,48.705z M23.903,48.597l-0.426-0.267l2.698-4.207l0.426,0.267
			L23.903,48.597L23.903,48.597z M79.374,46.166h-0.505v-4.979h0.505V46.166L79.374,46.166z M50.154,42.461l-0.426-0.266
			l2.161-3.386l0.489-0.839l0.437,0.248l-0.495,0.847L50.154,42.461L50.154,42.461z M27.951,42.286l-0.426-0.266l2.699-4.208
			l0.426,0.267L27.951,42.286L27.951,42.286z M54.021,41.235h-0.504v-4.979h0.504V41.235L54.021,41.235z M79.374,38.696h-0.505
			v-4.979h0.505V38.696L79.374,38.696z M31.999,35.976l-0.427-0.267l2.699-4.207l0.426,0.267L31.999,35.976L31.999,35.976z
			 M79.374,31.229h-0.505v-4.979h0.505V31.229L79.374,31.229z M36.046,29.664l-0.426-0.266l2.699-4.207l0.426,0.267L36.046,29.664
			L36.046,29.664z M79.374,23.76h-0.505v-4.979h0.505V23.76L79.374,23.76z M40.094,23.354l-0.426-0.267l2.699-4.208l0.426,0.268
			L40.094,23.354L40.094,23.354z M44.142,17.044l-0.426-0.268l2.699-4.206l0.426,0.266L44.142,17.044L44.142,17.044z M79.374,16.291
			h-0.505v-4.979h0.505V16.291L79.374,16.291z M48.19,10.732l-0.426-0.266l2.699-4.207l0.426,0.266L48.19,10.732L48.19,10.732z
			 M79.374,8.823h-0.505V3.844h0.505V8.823L79.374,8.823z M52.238,4.423l-0.426-0.267l1.556-2.426h2.415v0.498h-2.137L52.238,4.423
			L52.238,4.423z M78.488,2.229h-5.046V1.73h5.046V2.229L78.488,2.229z M70.919,2.229h-5.046V1.73h5.046V2.229L70.919,2.229z
			 M63.351,2.229h-5.046V1.73h5.046V2.229L63.351,2.229z"/>
	</g>
	<g>
		<path fill="#909194" d="M150.116,129.996c-0.541,0.012-1.089-0.007-1.626-0.021l0.013-0.498c0.533,0.015,1.097,0.021,1.614,0.021
			c1.152,0,2.298-0.032,3.409-0.096l0.029,0.497C152.433,129.964,151.277,129.996,150.116,129.996L150.116,129.996z
			 M145.958,129.857c-1.726-0.12-3.419-0.318-5.032-0.591l0.085-0.49c1.596,0.269,3.273,0.465,4.983,0.584L145.958,129.857
			L145.958,129.857z M156.079,129.699l-0.052-0.495c1.7-0.176,3.368-0.433,4.955-0.767l0.105,0.488
			C159.482,129.262,157.797,129.522,156.079,129.699L156.079,129.699z M138.439,128.777c-1.677-0.379-3.314-0.854-4.866-1.413
			l0.173-0.467c1.532,0.55,3.149,1.021,4.806,1.395L138.439,128.777L138.439,128.777z M163.552,128.334l-0.134-0.481
			c1.637-0.443,3.229-0.986,4.733-1.612l0.196,0.459C166.824,127.334,165.21,127.883,163.552,128.334L163.552,128.334z
			 M131.218,126.427c-1.558-0.683-3.066-1.474-4.482-2.352l0.269-0.422c1.396,0.865,2.883,1.646,4.418,2.318L131.218,126.427
			L131.218,126.427z M170.652,125.646l-0.228-0.444c1.493-0.747,2.934-1.604,4.284-2.549l0.292,0.405
			C173.629,124.017,172.167,124.887,170.652,125.646L170.652,125.646z M124.637,122.664c-1.351-0.982-2.647-2.079-3.855-3.258
			l0.354-0.355c1.191,1.163,2.469,2.244,3.8,3.212L124.637,122.664L124.637,122.664z M177.015,121.533l-0.322-0.383
			c1.27-1.037,2.485-2.188,3.612-3.418l0.375,0.334C179.537,119.314,178.304,120.481,177.015,121.533L177.015,121.533z
			 M119.041,117.581c-0.364-0.41-0.727-0.837-1.079-1.269c-0.701-0.862-1.378-1.771-2.013-2.701l0.419-0.278
			c0.626,0.919,1.295,1.817,1.987,2.667c0.347,0.427,0.706,0.849,1.065,1.252L119.041,117.581L119.041,117.581z M182.316,116.15
			l-0.397-0.309l0.08-0.099c0.983-1.243,1.913-2.579,2.763-3.972l0.432,0.258c-0.86,1.409-1.802,2.762-2.798,4.021L182.316,116.15
			L182.316,116.15z M114.597,111.493c-0.839-1.403-1.622-2.899-2.328-4.445l0.46-0.204c0.698,1.529,1.473,3.009,2.302,4.396
			L114.597,111.493L114.597,111.493z M186.439,109.849l-0.447-0.233c0.758-1.419,1.464-2.933,2.097-4.495l0.469,0.184
			C187.918,106.884,187.206,108.413,186.439,109.849L186.439,109.849z M149.78,109.823c-1.819-0.023-3.517-0.264-5.046-0.714
			l0.145-0.478c1.485,0.438,3.136,0.671,4.909,0.694L149.78,109.823L149.78,109.823z M152.328,109.716l-0.052-0.495
			c1.751-0.179,3.362-0.587,4.788-1.216l0.205,0.456C155.795,109.109,154.132,109.531,152.328,109.716L152.328,109.716z
			 M142.351,108.178c-1.523-0.759-2.885-1.793-4.047-3.074l0.376-0.332c1.12,1.235,2.432,2.231,3.898,2.962L142.351,108.178
			L142.351,108.178z M159.503,107.214l-0.29-0.407c1.313-0.91,2.466-2.084,3.425-3.489l0.418,0.277
			C162.063,105.052,160.868,106.269,159.503,107.214L159.503,107.214z M111.287,104.743c-0.6-1.508-1.148-3.1-1.632-4.731
			l0.484-0.141c0.479,1.618,1.024,3.196,1.618,4.689L111.287,104.743L111.287,104.743z M136.761,103.089
			c-0.183-0.284-0.36-0.576-0.532-0.878c-0.619-1.088-1.179-2.318-1.663-3.656l0.475-0.168c0.475,1.312,1.022,2.517,1.628,3.58
			c0.167,0.294,0.338,0.578,0.517,0.853L136.761,103.089L136.761,103.089z M189.443,102.961l-0.477-0.163
			c0.533-1.516,1.017-3.112,1.44-4.747l0.489,0.123C190.469,99.822,189.98,101.433,189.443,102.961L189.443,102.961z
			 M164.324,101.405l-0.453-0.219c0.669-1.354,1.255-2.906,1.743-4.617l0.486,0.135C165.604,98.443,165.006,100.025,164.324,101.405
			L164.324,101.405z M108.992,97.599c-0.397-1.567-0.75-3.212-1.048-4.887l0.498-0.086c0.296,1.663,0.646,3.296,1.041,4.853
			L108.992,97.599L108.992,97.599z M133.808,96.161c-0.414-1.498-0.763-3.146-1.039-4.898l0.499-0.076
			c0.272,1.733,0.618,3.364,1.026,4.844L133.808,96.161L133.808,96.161z M191.477,95.742l-0.493-0.105
			c0.344-1.566,0.646-3.209,0.897-4.882l0.499,0.073C192.126,92.511,191.823,94.164,191.477,95.742L191.477,95.742z M166.706,94.272
			l-0.493-0.104c0.327-1.507,0.598-3.151,0.806-4.89l0.501,0.06C167.31,91.09,167.036,92.751,166.706,94.272L166.706,94.272z
			 M107.546,90.247c-0.232-1.598-0.425-3.267-0.573-4.961l0.503-0.042c0.147,1.685,0.339,3.344,0.57,4.932L107.546,90.247
			L107.546,90.247z M132.436,88.785c-0.178-1.562-0.309-3.236-0.39-4.979l0.504-0.023c0.081,1.731,0.211,3.396,0.388,4.946
			L132.436,88.785L132.436,88.785z M192.714,88.354l-0.501-0.059c0.192-1.598,0.346-3.261,0.458-4.944l0.504,0.033
			C193.063,85.075,192.907,86.747,192.714,88.354L192.714,88.354z M167.771,86.852l-0.503-0.041c0.13-1.56,0.219-3.228,0.263-4.957
			l0.505,0.013C167.991,83.604,167.901,85.281,167.771,86.852L167.771,86.852z M106.788,82.797c-0.099-1.613-0.163-3.29-0.189-4.984
			l0.504-0.009c0.026,1.688,0.09,3.357,0.189,4.964L106.788,82.797L106.788,82.797z M131.963,81.312
			c-0.014-0.693-0.021-1.399-0.021-2.117v-2.866h0.504v2.866c0,0.715,0.007,1.417,0.021,2.107L131.963,81.312L131.963,81.312z
			 M193.311,80.893l-0.504-0.021c0.069-1.611,0.104-3.282,0.104-4.967h0.505C193.416,77.597,193.38,79.274,193.311,80.893
			L193.311,80.893z M168.063,79.37h-0.505v-4.979h0.505V79.37L168.063,79.37z M193.416,75.746h-0.505v-4.979h0.505V75.746
			L193.416,75.746z M107.095,75.318h-0.504V70.34h0.504V75.318L107.095,75.318z M132.447,73.838h-0.504v-4.979h0.504V73.838
			L132.447,73.838z M168.063,71.901h-0.505v-4.979h0.505V71.901L168.063,71.901z M193.416,68.277h-0.505v-4.979h0.505V68.277
			L193.416,68.277z M107.095,67.851h-0.504v-4.979h0.504V67.851L107.095,67.851z M132.447,66.37h-0.504v-4.979h0.504V66.37
			L132.447,66.37z M168.063,64.434h-0.505v-4.979h0.505V64.434L168.063,64.434z M193.416,60.809h-0.505V55.83h0.505V60.809
			L193.416,60.809z M107.095,60.381h-0.504v-4.978h0.504V60.381L107.095,60.381z M132.447,58.902h-0.504v-4.979h0.504V58.902
			L132.447,58.902z M168.063,56.965h-0.505v-4.979h0.505V56.965L168.063,56.965z M193.416,53.341h-0.505v-0.635
			c-0.015-1.463-0.058-2.921-0.128-4.33l0.504-0.023c0.07,1.415,0.113,2.879,0.129,4.351V53.341L193.416,53.341z M107.1,52.915
			l-0.505-0.004c0.015-1.696,0.066-3.375,0.151-4.987l0.504,0.026C107.165,49.556,107.115,51.227,107.1,52.915L107.1,52.915z
			 M132.447,51.433h-0.504v-2.882c0.013-0.719,0.033-1.42,0.061-2.105l0.504,0.02c-0.027,0.683-0.047,1.38-0.061,2.091V51.433
			L132.447,51.433z M168.063,50.455h-0.505c0-1.725-0.04-3.395-0.12-4.965l0.504-0.025
			C168.022,47.044,168.063,48.723,168.063,50.455L168.063,50.455z M192.629,45.897c-0.125-1.685-0.294-3.347-0.501-4.939
			l0.501-0.063c0.208,1.603,0.378,3.273,0.504,4.967L192.629,45.897L192.629,45.897z M107.41,45.472l-0.503-0.037
			c0.131-1.696,0.305-3.366,0.517-4.965l0.5,0.063C107.713,42.123,107.541,43.785,107.41,45.472L107.41,45.472z M132.644,43.986
			l-0.503-0.034c0.123-1.749,0.3-3.421,0.529-4.97l0.499,0.072C132.941,40.591,132.765,42.249,132.644,43.986L132.644,43.986z
			 M167.275,43.015c-0.144-1.742-0.344-3.397-0.597-4.922l0.498-0.081c0.255,1.538,0.458,3.208,0.602,4.962L167.275,43.015
			L167.275,43.015z M191.771,38.502c-0.27-1.667-0.591-3.307-0.957-4.87l0.492-0.112c0.368,1.576,0.692,3.225,0.963,4.903
			L191.771,38.502L191.771,38.502z M108.288,38.079l-0.498-0.08c0.276-1.682,0.604-3.33,0.974-4.901l0.491,0.113
			C108.887,34.771,108.562,36.408,108.288,38.079L108.288,38.079z M133.589,36.613l-0.495-0.097c0.35-1.759,0.785-3.388,1.293-4.843
			l0.477,0.161C134.363,33.27,133.935,34.877,133.589,36.613L133.589,36.613z M166.208,35.66c-0.386-1.734-0.862-3.327-1.415-4.733
			l0.47-0.181c0.562,1.431,1.045,3.048,1.437,4.807L166.208,35.66L166.208,35.66z M190.203,31.228
			c-0.448-1.629-0.958-3.219-1.517-4.724l0.474-0.172c0.563,1.519,1.078,3.122,1.53,4.765L190.203,31.228L190.203,31.228z
			 M109.872,30.808l-0.487-0.133c0.456-1.642,0.976-3.243,1.545-4.76l0.473,0.173C110.839,27.591,110.324,29.179,109.872,30.808
			L109.872,30.808z M135.787,29.546l-0.459-0.207c0.359-0.774,0.753-1.505,1.17-2.17c0.472-0.754,0.994-1.455,1.552-2.085
			l0.38,0.328c-0.539,0.608-1.045,1.288-1.502,2.019C136.521,28.079,136.137,28.791,135.787,29.546L135.787,29.546z M163.77,28.685
			c-0.167-0.314-0.339-0.618-0.517-0.91c-0.698-1.148-1.504-2.17-2.395-3.035l0.354-0.354c0.921,0.896,1.753,1.948,2.473,3.134
			c0.183,0.3,0.36,0.611,0.531,0.935L163.77,28.685L163.77,28.685z M187.768,24.198c-0.663-1.549-1.398-3.048-2.188-4.453
			l0.441-0.241c0.798,1.421,1.542,2.937,2.21,4.501L187.768,24.198L187.768,24.198z M112.331,23.787l-0.464-0.195
			c0.678-1.566,1.431-3.076,2.238-4.489l0.439,0.244C113.746,20.744,113.001,22.238,112.331,23.787L112.331,23.787z M140.217,23.727
			l-0.313-0.391c1.324-1.032,2.848-1.815,4.53-2.326l0.149,0.476C142.961,21.979,141.492,22.733,140.217,23.727L140.217,23.727z
			 M158.945,23.194c-1.333-0.886-2.854-1.539-4.52-1.939l0.12-0.484c1.724,0.416,3.299,1.092,4.682,2.011L158.945,23.194
			L158.945,23.194z M147.004,20.953l-0.073-0.493c0.944-0.136,1.948-0.204,2.983-0.204c0.734-0.005,1.43,0.032,2.109,0.098
			l-0.049,0.495c-0.663-0.064-1.347-0.099-2.06-0.096C148.904,20.753,147.925,20.82,147.004,20.953L147.004,20.953z M184.302,17.616
			c-0.821-1.282-1.714-2.515-2.652-3.665l-0.283-0.342l0.39-0.316l0.286,0.346c0.951,1.165,1.854,2.414,2.687,3.71L184.302,17.616
			L184.302,17.616z M115.84,17.229l-0.424-0.27c0.727-1.11,1.51-2.184,2.326-3.189c0.229-0.282,0.46-0.561,0.695-0.833l0.385,0.322
			c-0.232,0.27-0.461,0.543-0.687,0.821C117.331,15.074,116.558,16.133,115.84,17.229L115.84,17.229z M179.709,11.758
			c-1.155-1.203-2.396-2.325-3.69-3.334l0.313-0.391c1.313,1.023,2.573,2.162,3.744,3.383L179.709,11.758L179.709,11.758z
			 M120.508,11.43l-0.362-0.348c1.187-1.203,2.462-2.324,3.792-3.331l0.308,0.395C122.935,9.138,121.678,10.243,120.508,11.43
			L120.508,11.43z M174,6.966c-1.367-0.912-2.827-1.741-4.338-2.46l0.22-0.449c1.533,0.73,3.014,1.571,4.401,2.497L174,6.966
			L174,6.966z M126.284,6.715l-0.277-0.417c1.399-0.907,2.891-1.729,4.433-2.44l0.214,0.452
			C129.134,5.01,127.664,5.819,126.284,6.715L126.284,6.715z M167.369,3.51c-1.514-0.598-3.116-1.113-4.762-1.532l0.126-0.483
			c1.667,0.425,3.29,0.947,4.823,1.553L167.369,3.51L167.369,3.51z M132.958,3.341l-0.182-0.465
			c1.542-0.588,3.171-1.092,4.841-1.498l0.121,0.483C136.089,2.263,134.481,2.761,132.958,3.341L132.958,3.341z M160.162,1.429
			c-1.591-0.31-3.262-0.544-4.966-0.699l0.046-0.495c1.721,0.155,3.409,0.394,5.018,0.706L160.162,1.429L160.162,1.429z
			 M140.188,1.338l-0.092-0.489c1.609-0.297,3.3-0.519,5.024-0.659l0.041,0.496C143.454,0.825,141.781,1.044,140.188,1.338
			L140.188,1.338z M152.69,0.56c-1.646-0.074-3.379-0.082-5.023-0.021l-0.019-0.498c1.658-0.061,3.405-0.053,5.064,0.022
			L152.69,0.56L152.69,0.56z"/>
	</g>
	<g>
		<path fill="#909194" d="M285.525,128.265h-3.962v-0.498h3.458v-1.069h0.504V128.265L285.525,128.265z M279.04,128.265h-5.046
			v-0.498h5.046V128.265L279.04,128.265z M271.471,128.265h-5.046v-0.498h5.046V128.265L271.471,128.265z M263.902,128.265h-4.234
			v-1.299h0.504v0.801h3.729V128.265L263.902,128.265z M260.173,124.476h-0.504v-4.979h0.504V124.476L260.173,124.476z
			 M285.525,124.208h-0.504v-4.979h0.504V124.208L285.525,124.208z M260.173,117.007h-0.504v-4.979h0.504V117.007L260.173,117.007z
			 M285.525,116.739h-0.504v-4.979h0.504V116.739L285.525,116.739z M260.173,109.539h-0.504v-4.979h0.504V109.539L260.173,109.539z
			 M285.525,109.271h-0.504v-4.979h0.504V109.271L285.525,109.271z M260.173,102.07h-0.504v-1.073h-3.454v-0.498h3.958V102.07
			L260.173,102.07z M285.525,101.802h-0.504v-1.303h4.229v0.498h-3.725V101.802L285.525,101.802z M300,100.997h-0.658v-0.498h0.153
			V96.17H300V100.997L300,100.997z M296.819,100.997h-5.046v-0.498h5.046V100.997L296.819,100.997z M253.692,100.997h-5.046v-0.498
			h5.046V100.997L253.692,100.997z M246.123,100.997h-5.046v-0.498h5.046V100.997L246.123,100.997z M238.554,100.997h-5.045v-0.498
			h5.045V100.997L238.554,100.997z M230.986,100.997h-5.046v-0.498h5.046V100.997L230.986,100.997z M223.417,100.997h-5.045v-0.498
			h5.045V100.997L223.417,100.997z M215.849,100.997h-5.046v-0.498h5.046V100.997L215.849,100.997z M208.28,100.997h-0.965
			l-0.324-4.479l0.503-0.036l0.291,4.017h0.496V100.997L208.28,100.997z M206.811,94.035l-0.359-4.967l0.503-0.034L207.314,94
			L206.811,94.035L206.811,94.035z M300,93.68h-0.504v-4.979H300V93.68L300,93.68z M206.272,86.586l-0.12-1.656l1.887-2.942
			l0.426,0.267l-1.799,2.803l0.108,1.493L206.272,86.586L206.272,86.586z M300,86.212h-0.504v-4.979H300V86.212L300,86.212z
			 M297.888,80.827h-5.046v-0.498h5.046V80.827L297.888,80.827z M290.319,80.827h-5.298v-2.299h0.504v1.801h4.793V80.827
			L290.319,80.827z M259.425,80.827h-5.046v-0.498h5.046V80.827L259.425,80.827z M251.857,80.827h-5.046v-0.498h5.046V80.827
			L251.857,80.827z M244.288,80.827h-5.046v-0.498h5.046V80.827L244.288,80.827z M236.719,80.827h-5.045v-0.498h0.353l-0.353-0.219
			l2.689-4.213l0.427,0.267l-2.66,4.165h4.588V80.827L236.719,80.827z M209.815,80.15l-0.426-0.267l2.698-4.208l0.426,0.268
			L209.815,80.15L209.815,80.15z M260.173,78.577h-0.504v-4.979h0.504V78.577L260.173,78.577z M285.525,76.038h-0.504v-4.978h0.504
			V76.038L285.525,76.038z M236.135,74.057l-0.427-0.266l2.689-4.212l0.427,0.265L236.135,74.057L236.135,74.057z M213.863,73.839
			l-0.426-0.266l2.698-4.207l0.426,0.266L213.863,73.839L213.863,73.839z M260.173,71.109h-0.504V66.13h0.504V71.109L260.173,71.109
			z M285.525,68.57h-0.504v-4.979h0.504V68.57L285.525,68.57z M240.169,67.737l-0.427-0.265l2.689-4.213l0.426,0.265L240.169,67.737
			L240.169,67.737z M217.91,67.528l-0.426-0.266l2.699-4.207l0.426,0.267L217.91,67.528L217.91,67.528z M260.173,63.642h-0.504
			v-4.979h0.504V63.642L260.173,63.642z M244.203,61.418l-0.426-0.265l2.689-4.213l0.427,0.266L244.203,61.418L244.203,61.418z
			 M221.958,61.218l-0.426-0.266l2.698-4.208l0.426,0.268L221.958,61.218L221.958,61.218z M285.525,61.102h-0.504v-4.979h0.504
			V61.102L285.525,61.102z M260.173,56.172h-0.504v-4.978h0.504V56.172L260.173,56.172z M248.237,55.1l-0.427-0.266l2.689-4.213
			l0.427,0.266L248.237,55.1L248.237,55.1z M226.006,54.908l-0.426-0.268l2.699-4.207l0.426,0.267L226.006,54.908L226.006,54.908z
			 M285.525,53.633h-0.504v-4.979h0.504V53.633L285.525,53.633z M252.271,48.78l-0.427-0.266l2.689-4.213l0.427,0.266L252.271,48.78
			L252.271,48.78z M260.173,48.704h-0.504v-4.979h0.504V48.704L260.173,48.704z M230.054,48.597l-0.426-0.266l2.698-4.207
			l0.426,0.266L230.054,48.597L230.054,48.597z M285.525,46.165h-0.504v-4.979h0.504V46.165L285.525,46.165z M256.306,42.461
			l-0.427-0.266l2.162-3.386l0.489-0.838l0.437,0.248l-0.494,0.846L256.306,42.461L256.306,42.461z M234.102,42.286l-0.426-0.266
			l2.699-4.208l0.426,0.268L234.102,42.286L234.102,42.286z M260.173,41.235h-0.504v-4.979h0.504V41.235L260.173,41.235z
			 M285.525,38.696h-0.504v-4.979h0.504V38.696L285.525,38.696z M238.149,35.977l-0.426-0.268l2.699-4.207l0.426,0.267
			L238.149,35.977L238.149,35.977z M285.525,31.229h-0.504v-4.979h0.504V31.229L285.525,31.229z M242.198,29.665l-0.426-0.267
			l2.698-4.206l0.426,0.266L242.198,29.665L242.198,29.665z M285.525,23.759h-0.504V18.78h0.504V23.759L285.525,23.759z
			 M246.246,23.354l-0.426-0.267l2.699-4.207l0.426,0.267L246.246,23.354L246.246,23.354z M250.293,17.045l-0.426-0.268l2.699-4.207
			l0.426,0.266L250.293,17.045L250.293,17.045z M285.525,16.291h-0.504v-4.979h0.504V16.291L285.525,16.291z M254.341,10.733
			l-0.426-0.267l2.699-4.207l0.426,0.266L254.341,10.733L254.341,10.733z M285.525,8.823h-0.504V3.844h0.504V8.823L285.525,8.823z
			 M258.389,4.423l-0.426-0.267l1.556-2.426h2.415v0.498h-2.137L258.389,4.423L258.389,4.423z M284.639,2.229h-5.046V1.73h5.046
			V2.229L284.639,2.229z M277.07,2.229h-5.046V1.73h5.046V2.229L277.07,2.229z M269.501,2.229h-5.045V1.73h5.045V2.229
			L269.501,2.229z"/>
	</g>
</g>
</svg>
