<svg xmlns="http://www.w3.org/2000/svg" width="12" height="12" viewBox="0 0 12 12">
    <path fill="#FFF" fill-rule="evenodd" d="M9.168 5.467L5.699 8.779a.292.292 0 0 1-.398 0L1.832 5.467a.26.26 0 0 1 0-.38l.46-.437a.288.288 0 0 1 .4.004l2.196 2.167V1.268c0-.147.127-.268.282-.268h.656c.154 0 .281.12.281.268V6.82l2.196-2.167c.11-.107.29-.11.4-.004l.46.437a.256.256 0 0 1 .005.38zm.55 4.372H1.282a.276.276 0 0 0-.281.268v.625c0 .147.127.268.281.268H9.72c.154 0 .281-.12.281-.268v-.625a.276.276 0 0 0-.281-.268z"/>
</svg>
