<svg xmlns="http://www.w3.org/2000/svg" width="12" height="12" viewBox="0 0 12 12">
    <path fill="#FFF" fill-rule="evenodd" d="M9.929 1H2.07C1.48 1 1 1.48 1 2.071V9.93C1 10.52 1.48 11 2.071 11H9.93C10.52 11 11 10.52 11 9.929V2.07C11 1.48 10.52 1 9.929 1zm-.134 8.929h-7.59a.134.134 0 0 1-.134-.134v-7.59c0-.074.06-.134.134-.134h7.59c.074 0 .134.06.134.134v7.59c0 .074-.06.134-.134.134zM8.589 3.143l-3.035.003a.268.268 0 0 0-.268.268v.62c0 .15.123.27.273.267l1.295-.047L3.22 7.886a.268.268 0 0 0 0 .379l.514.514a.268.268 0 0 0 .38 0l3.632-3.633-.048 1.295a.268.268 0 0 0 .268.273h.62c.147 0 .267-.12.267-.268l.003-3.035a.268.268 0 0 0-.268-.268z"/>
</svg>
