<?xml version="1.0" encoding="utf-8"?>
<!-- Generator: Adobe Illustrator 14.0.0, SVG Export Plug-In . SVG Version: 6.00 Build 43363)  -->
<!DOCTYPE svg PUBLIC "-//W3C//DTD SVG 1.1//EN" "http://www.w3.org/Graphics/SVG/1.1/DTD/svg11.dtd">
<svg version="1.1" id="Layer_1" xmlns="http://www.w3.org/2000/svg" xmlns:xlink="http://www.w3.org/1999/xlink" x="0px" y="0px"
	 width="12px" height="12px" viewBox="0 0 12 12" enable-background="new 0 0 12 12" xml:space="preserve">
<path fill="#FFFFFF" d="M8.141,2.563L7.477,1.455C7.308,1.172,7.002,1,6.672,1H4.703c-0.33,0-0.636,0.172-0.805,0.455L3.234,2.562
	H1.47c-0.259,0-0.469,0.208-0.469,0.467c0,0.001,0,0.002,0,0.003v0.234c0,0.129,0.105,0.234,0.234,0.234h0.32l0.618,6.648
	C2.218,10.631,2.623,11,3.106,11h5.166c0.485,0,0.891-0.37,0.935-0.852L9.82,3.5h0.32c0.129,0,0.234-0.104,0.234-0.234V3.03
	c0-0.258-0.209-0.468-0.467-0.469c-0.001,0-0.002,0-0.002,0H8.141V2.563z M4.703,1.937h1.969l0.375,0.625H4.328L4.703,1.937
	L4.703,1.937z M8.27,10.063H3.105L2.496,3.5h6.381L8.27,10.063z"/>
</svg>
