<?xml version="1.0" encoding="utf-8"?>
<!-- Generator: Adobe Illustrator 14.0.0, SVG Export Plug-In . SVG Version: 6.00 Build 43363)  -->
<!DOCTYPE svg PUBLIC "-//W3C//DTD SVG 1.1//EN" "http://www.w3.org/Graphics/SVG/1.1/DTD/svg11.dtd">
<svg version="1.1" id="Layer_1" xmlns="http://www.w3.org/2000/svg" xmlns:xlink="http://www.w3.org/1999/xlink" x="0px" y="0px"
	 width="56px" height="64px" viewBox="0 0 56 64" enable-background="new 0 0 56 64" xml:space="preserve">
<path opacity="0.5" fill="#D1D3D4" enable-background="new    " d="M54.243,8.243l-6.486-6.486C46.632,0.632,45.105,0,43.516,0H22
	c-3.314,0-6,2.687-6,6v6H6c-3.314,0-6,2.687-6,6v40c0,3.313,2.686,6,6,6l0,0h28c3.313,0,6-2.687,6-6l0,0v-6h10c3.313,0,6-2.687,6-6
	V12.485C56,10.894,55.368,9.368,54.243,8.243z M44,4.06c0.352,0.087,0.673,0.268,0.93,0.525l6.484,6.485
	c0.256,0.256,0.438,0.577,0.523,0.929H44V4.06L44,4.06z M36,58c0,1.104-0.896,2-2,2H6c-1.103,0-2-0.896-2-2V18c0-1.103,0.897-2,2-2
	h10v30c0,3.313,2.686,6,6,6h14V58z M52,46c0,1.104-0.896,2-2,2H22c-1.103,0-2-0.896-2-2V6c0-1.103,0.897-2,2-2h18v9
	c0,1.65,1.35,3,3,3h9V46z"/>
</svg>
