<?xml version="1.0" encoding="utf-8"?>
<!-- Generator: Adobe Illustrator 14.0.0, SVG Export Plug-In . SVG Version: 6.00 Build 43363)  -->
<!DOCTYPE svg PUBLIC "-//W3C//DTD SVG 1.1//EN" "http://www.w3.org/Graphics/SVG/1.1/DTD/svg11.dtd">
<svg version="1.1" id="Layer_1" xmlns="http://www.w3.org/2000/svg" xmlns:xlink="http://www.w3.org/1999/xlink" x="0px" y="0px"
	 width="16px" height="16px" viewBox="0 0 16 16" enable-background="new 0 0 16 16" xml:space="preserve">
<path fill="#909194" d="M13.917,13.389l-0.53,0.529c-0.109,0.109-0.287,0.11-0.396,0c-0.001,0-0.001,0-0.002,0l-2.844-2.846
	c-0.053-0.053-0.083-0.125-0.082-0.199v-0.311c-2.037,1.762-5.115,1.538-6.875-0.498C2.421,9.178,2,8.046,2,6.875
	C2,4.183,4.181,2,6.873,2c0,0,0.001,0,0.002,0c2.691-0.001,4.875,2.18,4.876,4.872c0.001,1.172-0.421,2.304-1.187,3.191h0.309
	c0.074,0,0.145,0.029,0.199,0.082l2.845,2.845C14.027,13.1,14.027,13.277,13.917,13.389z M10.387,6.875
	c0.002-1.938-1.569-3.511-3.508-3.512c-0.001,0-0.002,0-0.004,0c-1.938-0.001-3.511,1.57-3.512,3.508c0,0.001,0,0.002,0,0.004
	c-0.001,1.938,1.57,3.511,3.508,3.512c0.001,0,0.002,0,0.004,0c1.938,0.002,3.511-1.569,3.512-3.508
	C10.387,6.877,10.387,6.876,10.387,6.875z"/>
</svg>
