<?xml version="1.0" encoding="utf-8"?>
<!-- Generator: Adobe Illustrator 14.0.0, SVG Export Plug-In . SVG Version: 6.00 Build 43363)  -->
<!DOCTYPE svg PUBLIC "-//W3C//DTD SVG 1.1//EN" "http://www.w3.org/Graphics/SVG/1.1/DTD/svg11.dtd">
<svg version="1.1" id="Layer_1" xmlns="http://www.w3.org/2000/svg" xmlns:xlink="http://www.w3.org/1999/xlink" x="0px" y="0px"
	 width="16px" height="16px" viewBox="0 0 16 16" enable-background="new 0 0 16 16" xml:space="preserve">
<path fill="#909194" d="M13.561,3.319l-0.879-0.88C12.4,2.157,12.019,1.999,11.62,2c-0.384,0-0.769,0.146-1.06,0.44L8.813,4.184L8,5
	l-5.699,5.698l-0.297,2.677c-0.034,0.309,0.189,0.587,0.499,0.621C2.543,14,2.583,14,2.624,13.996L5.3,13.701L11,8l0.814-0.814
	l1.746-1.746C14.146,4.854,14.146,3.905,13.561,3.319z M4.783,12.626l-1.584,0.175l0.177-1.586l5.42-5.42l0.726-0.727l1.41,1.41
	l-0.727,0.727L4.783,12.626z M12.766,4.644l-1.039,1.038l-1.408-1.41l1.037-1.037c0.146-0.146,0.382-0.147,0.527-0.002
	c0.002,0.001,0.002,0.002,0.004,0.002l0.879,0.879C12.912,4.26,12.912,4.498,12.766,4.644L12.766,4.644z"/>
</svg>
