<?xml version="1.0" encoding="utf-8"?>
<!-- Generator: Adobe Illustrator 14.0.0, SVG Export Plug-In . SVG Version: 6.00 Build 43363)  -->
<!DOCTYPE svg PUBLIC "-//W3C//DTD SVG 1.1//EN" "http://www.w3.org/Graphics/SVG/1.1/DTD/svg11.dtd">
<svg version="1.1" id="Layer_1" xmlns="http://www.w3.org/2000/svg" xmlns:xlink="http://www.w3.org/1999/xlink" x="0px" y="0px"
	 width="16px" height="16px" viewBox="0 0 16 16" enable-background="new 0 0 16 16" xml:space="preserve">
<path fill="#FFFFFF" d="M9.592,6.408c1.385,1.387,1.5,3.594,0.268,5.117c-0.172,0.211-0.077,0.105-2.323,2.353
	c-1.493,1.495-3.916,1.497-5.411,0.003c-0.001,0-0.002-0.002-0.003-0.003c-1.495-1.493-1.497-3.915-0.003-5.411
	C2.12,8.466,2.121,8.465,2.122,8.464l1.734-1.735c0.204-0.204,0.556-0.064,0.56,0.224c0.005,0.348,0.049,0.695,0.13,1.034
	c0.026,0.11-0.007,0.227-0.088,0.306L3.205,9.547c-0.897,0.896-0.897,2.352,0,3.248s2.351,0.896,3.248,0L8.51,10.74
	c0.896-0.9,0.895-2.356-0.006-3.253c-0.18-0.18-0.389-0.328-0.618-0.439C7.761,6.985,7.689,6.85,7.707,6.711
	c0.037-0.305,0.172-0.599,0.405-0.832l0.12-0.12c0.099-0.099,0.25-0.125,0.375-0.062C8.963,5.875,9.297,6.113,9.592,6.408
	L9.592,6.408z M13.878,2.122c-1.493-1.495-3.915-1.497-5.411-0.003C8.466,2.12,8.465,2.121,8.464,2.122
	C6.218,4.37,6.312,4.262,6.141,4.474c-1.331,1.646-1.075,4.059,0.572,5.39c0.21,0.171,0.438,0.317,0.68,0.44
	c0.125,0.062,0.277,0.037,0.376-0.063l0.12-0.12c0.233-0.233,0.368-0.526,0.405-0.831c0.019-0.14-0.054-0.275-0.18-0.338
	C6.971,8.398,6.495,7.022,7.05,5.879C7.161,5.65,7.31,5.44,7.49,5.26l2.057-2.056c0.896-0.897,2.352-0.897,3.248,0
	s0.896,2.351,0,3.248l0,0l-1.253,1.254c-0.081,0.08-0.114,0.196-0.088,0.306c0.081,0.339,0.125,0.686,0.13,1.034
	c0.004,0.289,0.355,0.429,0.561,0.224l1.733-1.734c1.495-1.493,1.497-3.916,0.003-5.411C13.881,2.123,13.879,2.122,13.878,2.122
	L13.878,2.122z"/>
</svg>
