<?xml version="1.0" encoding="utf-8"?>
<!-- Generator: Adobe Illustrator 14.0.0, SVG Export Plug-In . SVG Version: 6.00 Build 43363)  -->
<!DOCTYPE svg PUBLIC "-//W3C//DTD SVG 1.1//EN" "http://www.w3.org/Graphics/SVG/1.1/DTD/svg11.dtd">
<svg version="1.1" id="Layer_1" xmlns="http://www.w3.org/2000/svg" xmlns:xlink="http://www.w3.org/1999/xlink" x="0px" y="0px"
	 width="16px" height="16px" viewBox="0 0 16 16" enable-background="new 0 0 16 16" xml:space="preserve">
<path fill="#FFFFFF" d="M11.803,4.239L6.52,9.77l-2.348-2.44C4.064,7.215,3.885,7.21,3.771,7.317
	C3.767,7.321,3.763,7.325,3.759,7.329L3.072,8.042c-0.114,0.12-0.114,0.309,0,0.429l3.242,3.368
	c0.108,0.114,0.288,0.119,0.401,0.012c0.004-0.004,0.008-0.008,0.012-0.012L12.9,5.381c0.113-0.12,0.113-0.308,0-0.428l-0.688-0.714
	c-0.107-0.114-0.287-0.119-0.401-0.011c-0.003,0.003-0.007,0.007-0.011,0.011H11.803z"/>
</svg>
