<?xml version="1.0" encoding="utf-8"?>
<!-- Generator: Adobe Illustrator 14.0.0, SVG Export Plug-In . SVG Version: 6.00 Build 43363)  -->
<!DOCTYPE svg PUBLIC "-//W3C//DTD SVG 1.1//EN" "http://www.w3.org/Graphics/SVG/1.1/DTD/svg11.dtd">
<svg version="1.1" id="Layer_1" xmlns="http://www.w3.org/2000/svg" xmlns:xlink="http://www.w3.org/1999/xlink" x="0px" y="0px"
	 width="95px" height="67.99px" viewBox="0 0 95 67.99" enable-background="new 0 0 95 67.99" xml:space="preserve">
<g>
	<path fill="#E1E4E8" d="M3.004,40.002c0,0.823-0.667,1.49-1.491,1.49H1.49c-0.823,0-1.49-0.667-1.49-1.49V27.987
		c0-0.823,0.667-1.49,1.49-1.49h0.023c0.823,0,1.491,0.667,1.491,1.49V40.002z"/>
	<path fill="#E1E4E8" d="M95,40.002c0,0.823-0.667,1.49-1.491,1.49h-0.022c-0.823,0-1.491-0.667-1.491-1.49V27.987
		c0-0.823,0.668-1.49,1.491-1.49h0.022c0.824,0,1.491,0.667,1.491,1.49V40.002z"/>
	<path fill="#E1E4E8" d="M14.503,49.502c0,0.823-0.667,1.49-1.49,1.49H12.99c-0.823,0-1.491-0.667-1.491-1.49V18.487
		c0-0.823,0.667-1.49,1.491-1.49h0.023c0.823,0,1.49,0.667,1.49,1.49V49.502z"/>
	<path fill="#E1E4E8" d="M37.502,49.502c0,0.823-0.667,1.49-1.491,1.49h-0.023c-0.823,0-1.491-0.667-1.491-1.49V18.487
		c0-0.823,0.667-1.49,1.491-1.49h0.023c0.823,0,1.491,0.667,1.491,1.49V49.502z"/>
	<path fill="#E1E4E8" d="M26.003,66.5c0,0.823-0.667,1.49-1.49,1.49h-0.023c-0.823,0-1.491-0.667-1.491-1.49V1.49
		c0-0.823,0.667-1.49,1.491-1.49h0.023c0.823,0,1.49,0.667,1.49,1.49V66.5z"/>
	<path fill="#E1E4E8" d="M49.002,40.002c0,0.823-0.667,1.49-1.491,1.49h-0.023c-0.823,0-1.491-0.667-1.491-1.49V27.987
		c0-0.823,0.667-1.49,1.491-1.49h0.023c0.824,0,1.491,0.667,1.491,1.49V40.002z"/>
	<path fill="#E1E4E8" d="M60.502,49.502c0,0.823-0.668,1.49-1.491,1.49h-0.023c-0.823,0-1.49-0.667-1.49-1.49V18.487
		c0-0.823,0.667-1.49,1.49-1.49h0.023c0.823,0,1.491,0.667,1.491,1.49V49.502z"/>
	<path fill="#E1E4E8" d="M83.5,49.502c0,0.823-0.667,1.49-1.49,1.49h-0.023c-0.823,0-1.49-0.667-1.49-1.49V18.487
		c0-0.823,0.667-1.49,1.49-1.49h0.023c0.823,0,1.49,0.667,1.49,1.49V49.502z"/>
	<path fill="#E1E4E8" d="M72.001,66.5c0,0.823-0.667,1.49-1.49,1.49h-0.023c-0.823,0-1.491-0.667-1.491-1.49V1.49
		c0-0.823,0.668-1.49,1.491-1.49h0.023c0.823,0,1.49,0.667,1.49,1.49V66.5z"/>
</g>
</svg>
