<?xml version="1.0" encoding="utf-8"?>
<!-- Generator: Adobe Illustrator 14.0.0, SVG Export Plug-In . SVG Version: 6.00 Build 43363)  -->
<!DOCTYPE svg PUBLIC "-//W3C//DTD SVG 1.1//EN" "http://www.w3.org/Graphics/SVG/1.1/DTD/svg11.dtd">
<svg version="1.1" id="Layer_1" xmlns="http://www.w3.org/2000/svg" xmlns:xlink="http://www.w3.org/1999/xlink" x="0px" y="0px"
	 width="16px" height="14px" viewBox="-2 3 16 14" enable-background="new -2 3 16 14" xml:space="preserve">
<path fill="#0072BC" d="M-2,4.5v11c0,0.828,0.671,1.5,1.5,1.5h13c0.828,0,1.5-0.672,1.5-1.5v-11C14,3.671,13.328,3,12.5,3h-13
	C-1.329,3-2,3.671-2,4.5z M-0.75,9.375v-4.75c0-0.207,0.166-0.375,0.371-0.375H5.35v5.125H-0.75z M5.35,15.75h-5.729
	c-0.205,0-0.371-0.168-0.371-0.375v-4.75h6.1V15.75z M12.75,15.75h-6.1v-5.125h6.1V15.75z M12.75,9.375h-6.1V4.25h6.1V9.375z"/>
</svg>
