<?xml version="1.0" encoding="utf-8"?>
<!-- Generator: Adobe Illustrator 14.0.0, SVG Export Plug-In . SVG Version: 6.00 Build 43363)  -->
<!DOCTYPE svg PUBLIC "-//W3C//DTD SVG 1.1//EN" "http://www.w3.org/Graphics/SVG/1.1/DTD/svg11.dtd">
<svg version="1.1" id="Layer_1" xmlns="http://www.w3.org/2000/svg" xmlns:xlink="http://www.w3.org/1999/xlink" x="0px" y="0px"
	 width="16px" height="14px" viewBox="0 0 16 14" enable-background="new 0 0 16 14" xml:space="preserve">
<path fill="#42515A" d="M0,1.5v11C0,13.328,0.671,14,1.5,14h13c0.828,0,1.5-0.672,1.5-1.5v-11C16,0.671,15.328,0,14.5,0h-13
	C0.671,0,0,0.671,0,1.5z M14.75,8.5h-3.667v-3h3.667V8.5z M9.833,8.5H6.167v-3h3.666V8.5z M9.833,9.75v3H6.167v-3H9.833z M1.25,5.5
	h3.667v3H1.25V5.5z M6.167,4.25v-3h3.666v3H6.167z M4.917,1.25v3H1.25V1.625c0-0.207,0.168-0.375,0.375-0.375H4.917z M1.25,9.75
	h3.667v3H1.625c-0.207,0-0.375-0.168-0.375-0.375V9.75z M11.083,12.75v-3h3.667v3H11.083z M14.75,4.25h-3.667v-3h3.667V4.25z"/>
</svg>
