<svg xmlns="http://www.w3.org/2000/svg" width="157" height="18" viewBox="0 0 157 18">
    <g fill="none" fill-rule="evenodd">
        <path fill="#42515A" d="M31.465 6.854h1.88v.86c.197-.266.519-.515.965-.745a3.17 3.17 0 0 1 1.476-.346c.455 0 .878.1 1.267.3.389.2.687.489.894.868.611-.778 1.445-1.168 2.501-1.168.82 0 1.47.22 1.951.66.482.442.723 1.107.723 1.998v5.252h-1.85V9.834c0-.123-.01-.247-.03-.369a2.492 2.492 0 0 0-.148-.476.96.96 0 0 0-.404-.469c-.192-.117-.432-.177-.723-.177-.601 0-1.063.261-1.384.784-.248.389-.372.988-.372 1.797v3.609h-1.85V9.819c0-.38-.099-.717-.296-1.014-.196-.297-.523-.446-.979-.446-.352 0-.678.122-.98.368a1.76 1.76 0 0 0-.535.792c-.12.333-.19.617-.21.852-.021.235-.031.548-.031.937v3.225h-1.865v-7.68zM46.728 9.711h3.638a1.893 1.893 0 0 0-.086-.423 2.587 2.587 0 0 0-.24-.515 1.308 1.308 0 0 0-.537-.483 1.875 1.875 0 0 0-.878-.192c-.353 0-.661.064-.925.192-.265.128-.461.299-.592.514-.129.215-.217.387-.263.515a3.182 3.182 0 0 0-.117.392m5.69 1.352h-5.752a1.99 1.99 0 0 0 .264.837c.104.189.23.36.381.514.15.154.36.284.63.392.269.107.574.16.917.16.932 0 1.61-.353 2.036-1.059l1.585.906c-.975 1.301-2.238 1.95-3.793 1.95-1.18 0-2.142-.371-2.882-1.113-.742-.742-1.112-1.743-1.112-3.002 0-1.3.378-2.296 1.134-2.988.757-.692 1.68-1.036 2.767-1.036.705 0 1.319.13 1.843.391.522.26.921.614 1.196 1.06.274.445.474.913.598 1.405s.188 1.019.188 1.583M55.48 10.648c0 .654.15 1.226.45 1.712.3.486.767.73 1.399.73.518 0 .948-.203 1.29-.606.342-.406.512-.956.512-1.652 0-.707-.134-1.3-.403-1.782-.27-.48-.73-.722-1.384-.722-.57 0-1.023.22-1.36.66-.337.442-.505.994-.505 1.66zm5.517 3.885h-1.85v-.736c-.55.644-1.27.967-2.16.967-.922 0-1.728-.33-2.417-.991-.69-.661-1.034-1.636-1.034-2.926 0-1.31.345-2.342 1.034-3.094.689-.753 1.52-1.13 2.495-1.13.372 0 .754.072 1.142.215.388.144.702.359.94.646V3.689h1.85v10.844zM63.126 14.533h1.85v-7.68h-1.85v7.68zm0-8.877h1.85V3.797h-1.85v1.86zM71.644 11.738v-1.03c-.404.195-.896.339-1.476.431-.259.041-.472.08-.638.115a3.208 3.208 0 0 0-.53.169.9.9 0 0 0-.41.307.807.807 0 0 0-.133.47c0 .275.104.5.311.675.208.174.529.26.964.26.487 0 .927-.12 1.32-.36.394-.241.592-.587.592-1.037m2.207 2.795h-2.207l-.046-.599a3.636 3.636 0 0 1-2.286.784c-.86 0-1.546-.226-2.059-.677-.513-.45-.77-1.008-.77-1.674 0-1.402.923-2.267 2.767-2.595 1.047-.195 1.844-.384 2.394-.57 0-.357-.091-.638-.272-.843-.182-.204-.537-.307-1.065-.307-1.047 0-1.57.384-1.57 1.15l-1.897-.106c.011-.123.022-.225.032-.306.01-.083.041-.215.093-.4a2 2 0 0 1 .202-.484c.083-.138.21-.292.381-.461.172-.169.37-.31.599-.422.228-.113.523-.208.885-.284a5.91 5.91 0 0 1 1.213-.115c2.176 0 3.264.726 3.264 2.18v4.485c0 .297.018.52.054.668.036.149.132.34.288.576M75.156 14.533h2.052v-2.104h-2.052zM78.87 6.854h1.881v.907c.208-.318.498-.569.871-.753.373-.185.673-.296.901-.33a4.02 4.02 0 0 1 .622-.055c.809 0 1.43.233 1.866.699.436.467.653 1.088.653 1.867v5.344H83.83v-4.316c0-1.198-.456-1.796-1.367-1.796-.373 0-.7.117-.98.353a1.69 1.69 0 0 0-.575.876c-.104.358-.156.874-.156 1.551v3.332h-1.88v-7.68zM87.715 14.533h1.85v-7.68h-1.85v7.68zm0-8.877h1.85V3.797h-1.85v1.86zM99.217 14.533h-2.268l-2.348-3.44-1.088 1.06v2.38h-1.85V3.69h1.85v6.097l3.03-2.933h2.378l-2.968 2.933zM105.06 11.738v-1.03c-.403.195-.895.339-1.475.431-.26.041-.472.08-.638.115a3.208 3.208 0 0 0-.529.169.9.9 0 0 0-.411.307.807.807 0 0 0-.133.47c0 .275.104.5.312.675.207.174.528.26.964.26.486 0 .926-.12 1.32-.36.393-.241.59-.587.59-1.037m2.208 2.795h-2.207l-.047-.599a3.635 3.635 0 0 1-2.285.784c-.86 0-1.546-.226-2.059-.677-.513-.45-.77-1.008-.77-1.674 0-1.402.923-2.267 2.767-2.595 1.047-.195 1.844-.384 2.394-.57 0-.357-.09-.638-.272-.843-.18-.204-.536-.307-1.065-.307-1.047 0-1.57.384-1.57 1.15l-1.896-.106c.01-.123.02-.225.031-.306.01-.083.042-.215.093-.4a2 2 0 0 1 .202-.484c.084-.138.21-.292.381-.461.172-.169.37-.31.599-.422.228-.113.523-.208.885-.284a5.907 5.907 0 0 1 1.214-.115c2.175 0 3.262.726 3.262 2.18v4.485c0 .297.02.52.055.668.037.149.132.34.288.576M108.978 6.854h1.88v.86c.198-.266.52-.515.963-.745.446-.23.938-.346 1.477-.346.457 0 .88.1 1.268.3.388.2.685.489.893.868.612-.778 1.446-1.168 2.503-1.168.818 0 1.469.22 1.95.66.483.442.723 1.107.723 1.998v5.252h-1.85V9.834c0-.123-.01-.247-.03-.369a2.492 2.492 0 0 0-.148-.476.965.965 0 0 0-.404-.469c-.192-.117-.433-.177-.723-.177-.601 0-1.062.261-1.383.784-.25.389-.373.988-.373 1.797v3.609h-1.85V9.819c0-.38-.1-.717-.295-1.014-.197-.297-.524-.446-.98-.446-.352 0-.678.122-.979.368a1.76 1.76 0 0 0-.536.792c-.12.333-.19.617-.21.852-.02.235-.031.548-.031.937v3.225h-1.865v-7.68zM124.241 9.711h3.637a1.89 1.89 0 0 0-.085-.423 2.596 2.596 0 0 0-.24-.515 1.303 1.303 0 0 0-.537-.483 1.869 1.869 0 0 0-.878-.192c-.353 0-.66.064-.925.192-.264.128-.46.299-.591.514-.13.215-.217.387-.263.515a3.189 3.189 0 0 0-.118.392m5.69 1.352h-5.75c.009.102.03.22.06.353.031.133.1.294.202.483.105.19.231.361.381.515.15.154.36.284.63.392.27.107.576.16.917.16.932 0 1.61-.353 2.036-1.059l1.586.906c-.974 1.301-2.238 1.95-3.792 1.95-1.183 0-2.144-.371-2.884-1.113-.741-.742-1.112-1.743-1.112-3.002 0-1.3.379-2.296 1.135-2.988.756-.692 1.678-1.036 2.766-1.036.706 0 1.32.13 1.842.391.524.26.923.614 1.198 1.06.274.445.474.913.598 1.405s.187 1.019.187 1.583M132.993 10.648c0 .654.15 1.226.45 1.712.3.486.766.73 1.4.73a1.62 1.62 0 0 0 1.29-.606c.341-.406.512-.956.512-1.652 0-.707-.134-1.3-.403-1.782-.27-.48-.732-.722-1.385-.722-.57 0-1.022.22-1.359.66-.337.442-.505.994-.505 1.66zm5.517 3.885h-1.849v-.736c-.55.644-1.27.967-2.161.967-.921 0-1.728-.33-2.417-.991-.69-.661-1.033-1.636-1.033-2.926 0-1.31.344-2.342 1.033-3.094.689-.753 1.52-1.13 2.495-1.13.373 0 .754.072 1.142.215.389.144.703.359.941.646V3.689h1.849v10.844zM140.204 14.533h2.052v-2.104h-2.052zM143.935 6.854h1.802v1.09c.404-.84 1.176-1.26 2.316-1.26h.156v1.89c-1.254 0-2.031.471-2.332 1.413-.093.288-.14.706-.14 1.26v3.286h-1.802v-7.68zM156.555 14.533h-1.865v-.783c-.705.644-1.544.968-2.518.968-1.036 0-1.782-.338-2.238-1.014-.3-.44-.45-1.116-.45-2.028V6.854h1.88v4.424c0 1.136.507 1.705 1.523 1.705.394 0 .717-.093.972-.277.254-.184.432-.38.536-.584.197-.379.295-.992.295-1.843V6.854h1.865v7.68z"/>
        <path fill="#C41230" d="M19.125.695c-1.402 0-2.66.615-3.523 1.585a4.707 4.707 0 0 0-7.047 0A4.708 4.708 0 0 0 5.029.695c-2.582 0-4.691 2.08-4.7 4.64v11.97h2.352V5.337a2.344 2.344 0 0 1 2.348-2.325c1.3 0 2.347 1.044 2.347 2.325v11.968h2.35V5.337a2.348 2.348 0 0 1 2.35-2.325c1.299 0 2.35 1.044 2.35 2.325v11.968h2.35V5.337a2.343 2.343 0 0 1 2.349-2.325c1.296 0 2.347 1.044 2.347 2.325v11.968h2.35V5.337c0-2.558-2.106-4.642-4.697-4.642"/>
    </g>
</svg>
