<?xml version="1.0" encoding="utf-8"?>
<!-- Generator: Adobe Illustrator 14.0.0, SVG Export Plug-In . SVG Version: 6.00 Build 43363)  -->
<!DOCTYPE svg PUBLIC "-//W3C//DTD SVG 1.1//EN" "http://www.w3.org/Graphics/SVG/1.1/DTD/svg11.dtd">
<svg version="1.1" id="Layer_1" xmlns="http://www.w3.org/2000/svg" xmlns:xlink="http://www.w3.org/1999/xlink" x="0px" y="0px"
	 width="24px" height="18px" viewBox="0.125 0 24 18" enable-background="new 0.125 0 24 18" xml:space="preserve">
<g>
	<path fill="#C41230" d="M19.125,0.695c-1.402,0-2.66,0.615-3.523,1.585c-1.724-1.946-4.699-2.126-6.645-0.402
		C8.815,2.003,8.681,2.138,8.555,2.28C7.661,1.271,6.377,0.694,5.029,0.695c-2.582,0-4.691,2.08-4.7,4.64v11.97h2.352V5.337
		C2.691,4.048,3.74,3.01,5.029,3.012c1.3,0,2.347,1.044,2.347,2.325v11.968h2.35V5.337c0.013-1.289,1.062-2.326,2.35-2.325
		c1.299,0,2.35,1.044,2.35,2.325v11.968h2.35V5.337c0.01-1.289,1.06-2.328,2.349-2.325c1.296,0,2.347,1.044,2.347,2.325v11.968h2.35
		V5.337C23.822,2.779,21.716,0.695,19.125,0.695"/>
</g>
</svg>
