<?xml version="1.0" encoding="utf-8"?>
<!-- Generator: Adobe Illustrator 14.0.0, SVG Export Plug-In . SVG Version: 6.00 Build 43363)  -->
<!DOCTYPE svg PUBLIC "-//W3C//DTD SVG 1.1//EN" "http://www.w3.org/Graphics/SVG/1.1/DTD/svg11.dtd">
<svg version="1.1" id="Layer_1" xmlns="http://www.w3.org/2000/svg" xmlns:xlink="http://www.w3.org/1999/xlink" x="0px" y="0px"
	 width="60px" height="76px" viewBox="0 0 60 76" enable-background="new 0 0 60 76" xml:space="preserve">
<g>
	<rect x="1.5" y="1.357" fill="#C31230" width="57" height="57.003"/>
	<path fill="#D0D2D3" d="M26.201,39.354V27.956c0.009-2.097,1.711-3.809,3.799-3.809c2.102,0,3.804,1.712,3.804,3.809v11.397h3.799
		V27.956c0-4.189-3.409-7.603-7.603-7.603c-4.175,0-7.584,3.41-7.603,7.598v11.402H26.201z"/>
	<path fill="#D0D2D3" d="M37.603,39.354V27.956c0.01-2.097,1.712-3.809,3.804-3.809c2.088,0,3.795,1.712,3.795,3.809v11.397H49
		V27.956c0-4.189-3.409-7.603-7.594-7.603c-4.18,0-7.594,3.41-7.603,7.598v11.402H37.603z"/>
	<path fill="#C31230" d="M6.807,68.547v-1.596c0-0.371-0.088-0.724-0.501-1.002h2.352c-0.413,0.278-0.496,0.631-0.496,1.002v4.926
		c0,0.371,0.083,0.705,0.496,0.993H6.306c0.413-0.288,0.501-0.622,0.501-0.993v-2.328H3.355v2.328c0,0.371,0.088,0.705,0.501,0.993
		H1.5c0.413-0.288,0.501-0.622,0.501-0.993v-4.926c0-0.371-0.088-0.724-0.501-1.002h2.356c-0.413,0.278-0.501,0.631-0.501,1.002
		v1.596H6.807z"/>
	<path fill="#C31230" d="M14.846,66.329c0.106-0.157,0.194-0.269,0.366-0.38h1.776c-0.403,0.278-0.491,0.631-0.491,1.002v4.926
		c0,0.362,0.088,0.705,0.491,0.993h-2.347c0.413-0.288,0.501-0.631,0.501-0.993v-4.351l-3.313,4.963
		c-0.097,0.148-0.186,0.27-0.353,0.381h-1.79c0.417-0.288,0.505-0.631,0.505-0.993v-4.926c0-0.371-0.088-0.724-0.505-1.002h2.352
		c-0.413,0.278-0.492,0.631-0.492,1.002v4.332L14.846,66.329z"/>
	<path fill="#C31230" d="M35.45,65.949l2.06,4.74l1.721-4.054c0.103-0.232,0.168-0.474,0.214-0.687h2.394
		c-0.195,0.13-0.524,0.445-0.496,1.002l0.311,4.926c0.037,0.371,0.106,0.705,0.515,0.993h-2.38c0.469-0.325,0.497-0.705,0.482-0.993
		l-0.255-4.769l-2.579,5.975l-0.278-0.241c-0.306-0.269-0.385-0.501-0.52-0.825l-2.101-4.908l-0.357,4.769
		c-0.014,0.27,0.032,0.678,0.486,0.993h-1.999c0.329-0.204,0.515-0.687,0.543-0.993l0.399-4.926
		c0.046-0.492-0.242-0.826-0.497-1.002H35.45z"/>
	<path fill="#C31230" d="M47.377,71.998c-2.152,0-3.1-1.28-3.021-2.793h5.747c0.037-1.512-0.765-3.544-3.446-3.544
		c-2.352,0-3.785,1.559-3.785,3.665c0,2.421,1.688,3.757,4.203,3.757c0.793,0,1.54-0.13,1.989-0.25l0.683-1.521
		C49.01,71.784,48.104,71.998,47.377,71.998 M46.588,66.747c1.071,0,1.8,0.594,1.883,1.53h-3.975
		C44.695,67.341,45.507,66.747,46.588,66.747"/>
	<path fill="#C31230" d="M24.058,71.831l-1.906-2.273c-0.162-0.213-0.278-0.353-0.538-0.565l2.723-3.043h-2.319
		c0.181,0.13,0.325,0.269,0.325,0.473c0,0.167-0.103,0.427-0.599,0.993l-1.044,1.206c-0.208,0.204-0.594,0.269-0.807,0.269v-1.938
		c0-0.381,0.079-0.724,0.496-1.002h-2.352c0.413,0.278,0.496,0.621,0.496,1.002v4.926c0,0.362-0.083,0.705-0.496,0.993h2.352
		c-0.417-0.288-0.496-0.631-0.496-0.993v-2.365c0.213,0,0.524,0.064,0.761,0.306l2.031,2.542c0.487,0.604,0.529,0.566,1.953,0.529
		l0.557-0.019C24.651,72.499,24.336,72.174,24.058,71.831"/>
	<path fill="#C31230" d="M56.037,71.877h-3.201c1.016-1.679,1.155-3.488,1.155-4.091c0-0.278,0-0.557-0.032-0.835h2.078V71.877z
		 M58.5,71.877h-1.113v-4.926c0-0.371,0.084-0.724,0.501-1.002h-5.687c0.645,0.334,0.677,1.011,0.677,1.503
		c0,1.076-0.12,2.746-1.271,4.425h-0.858l0.153,2.356l0.561,0.408c0-1.753,0.729-1.771,1.285-1.771h3.674
		c0.524,0,1.354,0.046,1.354,1.763l0.57-0.399L58.5,71.877z"/>
	<path fill="#C31230" d="M32.12,71.914c-0.037,0-0.079,0-0.111-0.009c-0.032,0-0.069,0-0.106-0.01c-0.02,0-0.042-0.009-0.065-0.009
		c-0.042-0.01-0.083-0.01-0.125-0.028c-0.015-0.009-0.023-0.009-0.028-0.009c-0.348-0.103-0.589-0.353-0.589-0.946V68.12
		c0-0.946-0.223-2.459-2.598-2.459c-0.395,0-0.793,0.037-1.1,0.103c-0.292,0.046-0.649,0.13-0.997,0.287l-0.57,1.54
		c0.626-0.464,1.289-0.658,1.591-0.732c0.427-0.103,0.784-0.111,0.951-0.111c0.854,0,1.313,0.343,1.313,0.899
		c0,0.715-0.7,0.835-1.925,1.113c-1.067,0.241-2.426,0.529-2.426,2.069c0,1.336,0.928,2.254,2.31,2.254
		c1.211,0,2.185-0.77,2.343-0.825c0.338,0.52,0.914,0.584,1.225,0.603c0.019,0,0.023,0,0.032,0c0.083,0.01,0.148,0.01,0.209,0.01
		c0.014,0,0.027,0,0.042,0h0.004h0.209l0.687-0.956H32.12z M29.467,71.813c-0.427,0.12-0.849,0.186-1.234,0.186
		c-1.317,0-1.442-0.891-1.442-1.206c0-0.872,0.803-1.095,1.442-1.253c0.705-0.176,1.067-0.213,1.508-0.51v0.408h-0.005v1.837
		c0,0.019,0.01,0.037,0.01,0.056c0.004,0.111,0.019,0.213,0.032,0.315c0.005,0.019,0.005,0.046,0.005,0.064L29.467,71.813z"/>
	<path fill="#FFFFFF" d="M14.799,39.354V27.956c0.01-2.097,1.707-3.809,3.804-3.809c2.102,0,3.795,1.712,3.795,3.809v11.397h3.804
		V27.956c0-4.189-3.41-7.603-7.599-7.603c-4.179,0-7.589,3.41-7.603,7.598v11.402H14.799z"/>
</g>
</svg>
