<?xml version="1.0" encoding="utf-8"?>
<!-- Generator: Adobe Illustrator 14.0.0, SVG Export Plug-In . SVG Version: 6.00 Build 43363)  -->
<!DOCTYPE svg PUBLIC "-//W3C//DTD SVG 1.1//EN" "http://www.w3.org/Graphics/SVG/1.1/DTD/svg11.dtd">
<svg version="1.1" id="Layer_1" xmlns="http://www.w3.org/2000/svg" xmlns:xlink="http://www.w3.org/1999/xlink" x="0px" y="0px"
	 width="470px" height="420px" viewBox="0 0 470 420" enable-background="new 0 0 470 420" xml:space="preserve">
<g>
	<g>
		<defs>
			<path id="SVGID_1_" d="M294.597,29.435C279.095,11.816,256.408,0.67,231.153,0.67c-25.182,0-47.841,11.138-63.353,28.746
				C152.294,11.808,129.608,0.67,104.364,0.67c-46.466,0-84.394,37.874-84.524,84.472v281.814l42.262-15.598l0.035-266.159
				c0.089-23.318,18.961-42.348,42.227-42.348c23.371,0,42.247,19.012,42.247,42.348v264.855h42.294V85.199
				c0.104-23.318,18.988-42.348,42.248-42.348c23.355,0,42.276,19.012,42.276,42.348v264.855h42.242l0.042-264.855
				c0.084-23.318,18.967-42.348,42.247-42.348c23.331,0,42.227,19.012,42.227,42.348v264.004l42.307,11.912V85.199
				c0-46.612-37.925-84.529-84.533-84.529C332.764,0.67,310.104,11.816,294.597,29.435"/>
		</defs>
		<clipPath id="SVGID_2_">
			<use xlink:href="#SVGID_1_"  overflow="visible"/>
		</clipPath>
		<path clip-path="url(#SVGID_2_)" fill="none" stroke="#A7A9AC" stroke-width="0.395" stroke-miterlimit="10" d="M266.296,508.318
			c0-3.468-15.729-6.279-35.131-6.279c-19.399,0-35.123,2.812-35.123,6.279c0,3.463,15.724,6.272,35.123,6.272
			C250.567,514.591,266.296,511.781,266.296,508.318z"/>
		<path clip-path="url(#SVGID_2_)" fill="none" stroke="#A7A9AC" stroke-width="0.396" stroke-miterlimit="10" d="M194.08,506.244
			c0,4.404,16.602,7.977,37.083,7.977c20.487,0,37.092-3.572,37.092-7.977c0-4.409-16.605-7.982-37.092-7.982
			C210.682,498.262,194.08,501.835,194.08,506.244z"/>
		<path clip-path="url(#SVGID_2_)" fill="none" stroke="#A7A9AC" stroke-width="0.397" stroke-miterlimit="10" d="M192.119,504.166
			c0,5.345,17.48,9.68,39.044,9.68c21.569,0,39.052-4.335,39.052-9.68c0-5.35-17.482-9.687-39.052-9.687
			C209.598,494.479,192.119,498.816,192.119,504.166z"/>
		<path clip-path="url(#SVGID_2_)" fill="none" stroke="#A7A9AC" stroke-width="0.398" stroke-miterlimit="10" d="M190.159,502.088
			c0,6.285,18.357,11.383,41.004,11.383c22.652,0,41.013-5.098,41.013-11.383c0-6.29-18.361-11.389-41.013-11.389
			C208.516,490.699,190.159,495.798,190.159,502.088z"/>
		<path clip-path="url(#SVGID_2_)" fill="none" stroke="#A7A9AC" stroke-width="0.399" stroke-miterlimit="10" d="M188.198,500.01
			c0,7.226,19.235,13.085,42.965,13.085c23.735,0,42.974-5.859,42.974-13.085c0-7.23-19.238-13.092-42.974-13.092
			C207.433,486.918,188.198,492.779,188.198,500.01z"/>
		<path clip-path="url(#SVGID_2_)" fill="none" stroke="#A7A9AC" stroke-width="0.399" stroke-miterlimit="10" d="M186.238,497.932
			c0,8.166,20.113,14.788,44.925,14.788c24.818,0,44.933-6.622,44.933-14.788c0-8.172-20.115-14.795-44.933-14.795
			C206.351,483.137,186.238,489.76,186.238,497.932z"/>
		<path clip-path="url(#SVGID_2_)" fill="none" stroke="#A7A9AC" stroke-width="0.4" stroke-miterlimit="10" d="M184.277,495.854
			c0,9.105,20.991,16.491,46.886,16.491c25.9,0,46.893-7.386,46.893-16.491c0-9.112-20.993-16.498-46.893-16.498
			C205.269,479.355,184.277,486.741,184.277,495.854z"/>
		<path clip-path="url(#SVGID_2_)" fill="none" stroke="#A7A9AC" stroke-width="0.401" stroke-miterlimit="10" d="M182.317,493.775
			c0,10.047,21.869,18.194,48.846,18.194c26.982,0,48.854-8.147,48.854-18.194c0-10.053-21.871-18.201-48.854-18.201
			C204.186,475.574,182.317,483.723,182.317,493.775z"/>
		<path clip-path="url(#SVGID_2_)" fill="none" stroke="#A7A9AC" stroke-width="0.402" stroke-miterlimit="10" d="M180.357,491.696
			c0,10.988,22.746,19.897,50.806,19.897c28.065,0,50.814-8.909,50.814-19.897c0-10.992-22.749-19.903-50.814-19.903
			C203.103,471.793,180.357,480.704,180.357,491.696z"/>
		<path clip-path="url(#SVGID_2_)" fill="none" stroke="#A7A9AC" stroke-width="0.403" stroke-miterlimit="10" d="M178.396,489.618
			c0,11.929,23.624,21.601,52.767,21.601c29.148,0,52.775-9.672,52.775-21.601c0-11.935-23.627-21.606-52.775-21.606
			C202.021,468.012,178.396,477.684,178.396,489.618z"/>
		<path clip-path="url(#SVGID_2_)" fill="none" stroke="#A7A9AC" stroke-width="0.404" stroke-miterlimit="10" d="M176.436,487.54
			c0,12.87,24.501,23.304,54.728,23.304c30.229,0,54.733-10.434,54.733-23.304c0-12.874-24.504-23.311-54.733-23.311
			C200.937,464.229,176.436,474.666,176.436,487.54z"/>
		<path clip-path="url(#SVGID_2_)" fill="none" stroke="#A7A9AC" stroke-width="0.405" stroke-miterlimit="10" d="M174.476,485.462
			c0,13.811,25.379,25.007,56.688,25.007c31.313,0,56.695-11.196,56.695-25.007c0-13.814-25.382-25.013-56.695-25.013
			C199.854,460.449,174.476,471.647,174.476,485.462z"/>
		<path clip-path="url(#SVGID_2_)" fill="none" stroke="#A7A9AC" stroke-width="0.406" stroke-miterlimit="10" d="M172.515,483.384
			c0,14.751,26.257,26.71,58.648,26.71c32.396,0,58.656-11.959,58.656-26.71c0-14.755-26.261-26.716-58.656-26.716
			C198.772,456.668,172.515,468.629,172.515,483.384z"/>
		<path clip-path="url(#SVGID_2_)" fill="none" stroke="#A7A9AC" stroke-width="0.407" stroke-miterlimit="10" d="M170.555,481.306
			c0,15.69,27.135,28.413,60.609,28.413c33.478,0,60.616-12.723,60.616-28.413c0-15.696-27.138-28.419-60.616-28.419
			C197.688,452.887,170.555,465.609,170.555,481.306z"/>
		<path clip-path="url(#SVGID_2_)" fill="none" stroke="#A7A9AC" stroke-width="0.408" stroke-miterlimit="10" d="M168.594,479.228
			c0,16.632,28.013,30.116,62.569,30.116c34.561,0,62.577-13.484,62.577-30.116c0-16.637-28.017-30.122-62.577-30.122
			C196.606,449.105,168.594,462.591,168.594,479.228z"/>
		<path clip-path="url(#SVGID_2_)" fill="none" stroke="#A7A9AC" stroke-width="0.409" stroke-miterlimit="10" d="M166.634,477.149
			c0,17.572,28.89,31.818,64.53,31.818c35.643,0,64.537-14.246,64.537-31.818c0-17.577-28.894-31.825-64.537-31.825
			C195.524,445.324,166.634,459.572,166.634,477.149z"/>
		<path clip-path="url(#SVGID_2_)" fill="none" stroke="#A7A9AC" stroke-width="0.409" stroke-miterlimit="10" d="M164.674,475.071
			c0,18.513,29.768,33.521,66.49,33.521c36.726,0,66.498-15.008,66.498-33.521c0-18.519-29.771-33.528-66.498-33.528
			C194.441,441.543,164.674,456.553,164.674,475.071z"/>
		<path clip-path="url(#SVGID_2_)" fill="none" stroke="#A7A9AC" stroke-width="0.41" stroke-miterlimit="10" d="M162.713,472.993
			c0,19.453,30.646,35.225,68.45,35.225c37.81,0,68.458-15.771,68.458-35.225c0-19.459-30.648-35.231-68.458-35.231
			C193.358,437.762,162.713,453.534,162.713,472.993z"/>
		<path clip-path="url(#SVGID_2_)" fill="none" stroke="#A7A9AC" stroke-width="0.411" stroke-miterlimit="10" d="M160.753,470.915
			c0,20.394,31.523,36.928,70.411,36.928c38.891,0,70.418-16.534,70.418-36.928c0-20.399-31.527-36.936-70.418-36.936
			C192.276,433.979,160.753,450.516,160.753,470.915z"/>
		<path clip-path="url(#SVGID_2_)" fill="none" stroke="#A7A9AC" stroke-width="0.412" stroke-miterlimit="10" d="M158.792,468.837
			c0,21.335,32.401,38.631,72.371,38.631c39.974,0,72.378-17.296,72.378-38.631c0-21.34-32.404-38.638-72.378-38.638
			C191.192,430.199,158.792,447.497,158.792,468.837z"/>
		<path clip-path="url(#SVGID_2_)" fill="none" stroke="#A7A9AC" stroke-width="0.413" stroke-miterlimit="10" d="M156.832,466.759
			c0,22.275,33.279,40.333,74.332,40.333c41.057,0,74.338-18.058,74.338-40.333c0-22.28-33.281-40.341-74.338-40.341
			C190.11,426.418,156.832,444.479,156.832,466.759z"/>
		<path clip-path="url(#SVGID_2_)" fill="none" stroke="#A7A9AC" stroke-width="0.414" stroke-miterlimit="10" d="M154.872,464.68
			c0,23.217,34.156,42.037,76.292,42.037c42.14,0,76.299-18.82,76.299-42.037c0-23.221-34.159-42.043-76.299-42.043
			C189.027,422.637,154.872,441.46,154.872,464.68z"/>
		<path clip-path="url(#SVGID_2_)" fill="none" stroke="#A7A9AC" stroke-width="0.415" stroke-miterlimit="10" d="M152.911,462.602
			c0,24.157,35.034,43.74,78.252,43.74c43.223,0,78.26-19.583,78.26-43.74c0-24.161-35.037-43.746-78.26-43.746
			C187.945,418.855,152.911,438.44,152.911,462.602z"/>
		<path clip-path="url(#SVGID_2_)" fill="none" stroke="#A7A9AC" stroke-width="0.416" stroke-miterlimit="10" d="M150.951,460.523
			c0,25.098,35.912,45.443,80.213,45.443c44.305,0,80.22-20.346,80.22-45.443c0-25.103-35.915-45.449-80.22-45.449
			C186.863,415.074,150.951,435.421,150.951,460.523z"/>
		<path clip-path="url(#SVGID_2_)" fill="none" stroke="#A7A9AC" stroke-width="0.417" stroke-miterlimit="10" d="M148.991,458.445
			c0,26.038,36.789,47.146,82.173,47.146c45.388,0,82.18-21.107,82.18-47.146c0-26.042-36.792-47.152-82.18-47.152
			C185.78,411.293,148.991,432.403,148.991,458.445z"/>
		<path clip-path="url(#SVGID_2_)" fill="none" stroke="#A7A9AC" stroke-width="0.418" stroke-miterlimit="10" d="M147.03,456.367
			c0,26.979,37.667,48.85,84.133,48.85c46.471,0,84.142-21.871,84.142-48.85c0-26.983-37.671-48.855-84.142-48.855
			C184.697,407.512,147.03,429.385,147.03,456.367z"/>
		<path clip-path="url(#SVGID_2_)" fill="none" stroke="#A7A9AC" stroke-width="0.419" stroke-miterlimit="10" d="M145.07,454.289
			c0,27.919,38.545,50.552,86.094,50.552c47.553,0,86.101-22.633,86.101-50.552c0-27.924-38.548-50.56-86.101-50.56
			C183.614,403.729,145.07,426.365,145.07,454.289z"/>
		<path clip-path="url(#SVGID_2_)" fill="none" stroke="#A7A9AC" stroke-width="0.419" stroke-miterlimit="10" d="M143.109,452.211
			c0,28.858,39.422,52.255,88.054,52.255c48.637,0,88.063-23.396,88.063-52.255c0-28.864-39.426-52.262-88.063-52.261
			C182.531,399.95,143.109,423.347,143.109,452.211z"/>
		<path clip-path="url(#SVGID_2_)" fill="none" stroke="#A7A9AC" stroke-width="0.42" stroke-miterlimit="10" d="M141.149,450.133
			c0,29.8,40.3,53.958,90.015,53.958c49.718,0,90.021-24.158,90.021-53.958c0-29.805-40.303-53.965-90.021-53.964
			C181.449,396.169,141.149,420.328,141.149,450.133z"/>
		<path clip-path="url(#SVGID_2_)" fill="none" stroke="#A7A9AC" stroke-width="0.421" stroke-miterlimit="10" d="M139.188,448.055
			c0,30.741,41.178,55.661,91.975,55.661c50.801,0,91.982-24.92,91.982-55.661c0-30.746-41.181-55.668-91.982-55.667
			C180.365,392.388,139.188,417.31,139.188,448.055z"/>
		<path clip-path="url(#SVGID_2_)" fill="none" stroke="#A7A9AC" stroke-width="0.422" stroke-miterlimit="10" d="M137.228,445.977
			c0,31.682,42.056,57.364,93.936,57.364c51.883,0,93.942-25.683,93.942-57.364c0-31.688-42.06-57.371-93.942-57.37
			C179.283,388.606,137.228,414.289,137.228,445.977z"/>
		<path clip-path="url(#SVGID_2_)" fill="none" stroke="#A7A9AC" stroke-width="0.423" stroke-miterlimit="10" d="M135.268,443.898
			c0,32.622,42.933,59.065,95.896,59.065c52.966,0,95.902-26.443,95.902-59.065c0-32.627-42.937-59.074-95.902-59.073
			C178.201,384.825,135.268,411.271,135.268,443.898z"/>
		<path clip-path="url(#SVGID_2_)" fill="none" stroke="#A7A9AC" stroke-width="0.424" stroke-miterlimit="10" d="M133.308,441.82
			c0,33.563,43.811,60.77,97.856,60.77c54.049,0,97.863-27.207,97.863-60.77c0-33.567-43.813-60.777-97.863-60.776
			C177.118,381.044,133.308,408.253,133.308,441.82z"/>
		<path clip-path="url(#SVGID_2_)" fill="none" stroke="#A7A9AC" stroke-width="0.425" stroke-miterlimit="10" d="M131.347,439.741
			c0,34.504,44.688,62.474,99.817,62.474c55.131,0,99.823-27.97,99.823-62.474c0-34.508-44.692-62.479-99.823-62.479
			C176.035,377.262,131.347,405.234,131.347,439.741z"/>
		<path clip-path="url(#SVGID_2_)" fill="none" stroke="#A7A9AC" stroke-width="0.426" stroke-miterlimit="10" d="M129.387,437.663
			c0,35.444,45.566,64.177,101.777,64.177c56.214,0,101.784-28.732,101.784-64.177c0-35.448-45.569-64.183-101.784-64.182
			C174.953,373.481,129.387,402.215,129.387,437.663z"/>
		<path clip-path="url(#SVGID_2_)" fill="none" stroke="#A7A9AC" stroke-width="0.427" stroke-miterlimit="10" d="M127.426,435.585
			c0,36.385,46.444,65.88,103.738,65.88c57.297,0,103.743-29.495,103.743-65.88c0-36.389-46.446-65.886-103.743-65.885
			C173.869,369.7,127.426,399.196,127.426,435.585z"/>
		<path clip-path="url(#SVGID_2_)" fill="none" stroke="#A7A9AC" stroke-width="0.428" stroke-miterlimit="10" d="M125.466,433.507
			c0,37.325,47.322,67.583,105.698,67.583c58.38,0,105.705-30.258,105.705-67.583c0-37.329-47.324-67.589-105.705-67.588
			C172.787,365.919,125.466,396.178,125.466,433.507z"/>
		<path clip-path="url(#SVGID_2_)" fill="none" stroke="#A7A9AC" stroke-width="0.429" stroke-miterlimit="10" d="M123.505,431.429
			c0,38.266,48.2,69.285,107.659,69.285c59.461,0,107.664-31.02,107.664-69.285c0-38.271-48.202-69.292-107.664-69.291
			C171.704,362.138,123.505,393.158,123.505,431.429z"/>
		<path clip-path="url(#SVGID_2_)" fill="none" stroke="#A7A9AC" stroke-width="0.429" stroke-miterlimit="10" d="M121.545,429.351
			c0,39.207,49.078,70.988,109.619,70.988c60.545,0,109.625-31.781,109.625-70.988c0-39.211-49.08-70.995-109.625-70.994
			C170.622,358.356,121.545,390.14,121.545,429.351z"/>
		<path clip-path="url(#SVGID_2_)" fill="none" stroke="#A7A9AC" stroke-width="0.43" stroke-miterlimit="10" d="M119.585,427.272
			c0,40.146,49.955,72.69,111.579,72.69c61.628,0,111.586-32.544,111.586-72.69c0-40.151-49.958-72.698-111.586-72.697
			C169.539,354.575,119.584,387.121,119.585,427.272z"/>
		<path clip-path="url(#SVGID_2_)" fill="none" stroke="#A7A9AC" stroke-width="0.431" stroke-miterlimit="10" d="M117.625,425.194
			c0,41.088,50.833,74.395,113.54,74.395c62.709,0,113.545-33.307,113.545-74.395c0-41.092-50.836-74.401-113.545-74.4
			C168.457,350.794,117.625,384.103,117.625,425.194z"/>
		<path clip-path="url(#SVGID_2_)" fill="none" stroke="#A7A9AC" stroke-width="0.432" stroke-miterlimit="10" d="M115.664,423.116
			c0,42.028,51.71,76.098,115.5,76.098c63.793,0,115.506-34.069,115.506-76.098c0-42.033-51.713-76.104-115.506-76.104
			C167.373,347.012,115.664,381.084,115.664,423.116z"/>
		<path clip-path="url(#SVGID_2_)" fill="none" stroke="#A7A9AC" stroke-width="0.433" stroke-miterlimit="10" d="M113.704,421.038
			c0,42.969,52.588,77.8,117.46,77.8c64.876,0,117.467-34.831,117.467-77.8c0-42.974-52.591-77.808-117.467-77.807
			C166.291,343.231,113.704,378.064,113.704,421.038z"/>
		<path clip-path="url(#SVGID_2_)" fill="none" stroke="#A7A9AC" stroke-width="0.434" stroke-miterlimit="10" d="M111.743,418.96
			c0,43.909,53.466,79.503,119.421,79.503c65.958,0,119.427-35.594,119.427-79.503c0-43.914-53.469-79.511-119.427-79.51
			C165.208,339.45,111.743,375.046,111.743,418.96z"/>
		<path clip-path="url(#SVGID_2_)" fill="none" stroke="#A7A9AC" stroke-width="0.435" stroke-miterlimit="10" d="M109.783,416.882
			c0,44.85,54.344,81.206,121.381,81.206c67.042,0,121.388-36.356,121.388-81.206c0-44.854-54.347-81.214-121.388-81.213
			C164.125,335.669,109.783,372.027,109.783,416.882z"/>
		<path clip-path="url(#SVGID_2_)" fill="none" stroke="#A7A9AC" stroke-width="0.436" stroke-miterlimit="10" d="M107.822,414.803
			c0,45.791,55.221,82.91,123.342,82.91c68.123,0,123.348-37.119,123.348-82.91c0-45.795-55.225-82.916-123.348-82.915
			C163.042,331.888,107.822,369.009,107.822,414.803z"/>
		<path clip-path="url(#SVGID_2_)" fill="none" stroke="#A7A9AC" stroke-width="0.437" stroke-miterlimit="10" d="M105.862,412.725
			c0,46.73,56.099,84.613,125.302,84.613c69.207,0,125.308-37.883,125.308-84.613c0-46.735-56.102-84.619-125.308-84.618
			C161.96,328.106,105.862,365.99,105.862,412.725z"/>
		<path clip-path="url(#SVGID_2_)" fill="none" stroke="#A7A9AC" stroke-width="0.438" stroke-miterlimit="10" d="M103.902,410.646
			c0,47.672,56.977,86.315,127.262,86.315c70.289,0,127.269-38.644,127.269-86.315c0-47.676-56.979-86.322-127.269-86.321
			C160.878,324.325,103.901,362.971,103.902,410.646z"/>
		<path clip-path="url(#SVGID_2_)" fill="none" stroke="#A7A9AC" stroke-width="0.439" stroke-miterlimit="10" d="M101.941,408.568
			c0,48.613,57.854,88.019,129.223,88.019c71.371,0,129.229-39.405,129.229-88.019c0-48.616-57.858-88.025-129.229-88.024
			C159.794,320.544,101.94,359.952,101.941,408.568z"/>
		<path clip-path="url(#SVGID_2_)" fill="none" stroke="#A7A9AC" stroke-width="0.439" stroke-miterlimit="10" d="M99.981,406.49
			c0,49.554,58.732,89.722,131.183,89.722c72.454,0,131.189-40.168,131.189-89.722c0-49.559-58.735-89.729-131.189-89.729
			C158.712,316.762,99.98,356.934,99.981,406.49z"/>
		<path clip-path="url(#SVGID_2_)" fill="none" stroke="#A7A9AC" stroke-width="0.44" stroke-miterlimit="10" d="M98.021,404.412
			c0,50.494,59.61,91.425,133.144,91.425c73.537,0,133.149-40.931,133.149-91.425c0-50.498-59.612-91.432-133.149-91.431
			C157.629,312.981,98.021,353.915,98.021,404.412z"/>
		<path clip-path="url(#SVGID_2_)" fill="none" stroke="#A7A9AC" stroke-width="0.441" stroke-miterlimit="10" d="M96.06,402.334
			c0,51.435,60.487,93.128,135.104,93.128c74.62,0,135.11-41.693,135.11-93.128c0-51.438-60.49-93.135-135.11-93.134
			C156.546,309.2,96.06,350.896,96.06,402.334z"/>
		<path clip-path="url(#SVGID_2_)" fill="none" stroke="#A7A9AC" stroke-width="0.442" stroke-miterlimit="10" d="M94.1,400.256
			c0,52.375,61.365,94.831,137.064,94.831c75.703,0,137.071-42.456,137.071-94.831c0-52.379-61.368-94.838-137.071-94.837
			C155.463,305.419,94.1,347.877,94.1,400.256z"/>
		<path clip-path="url(#SVGID_2_)" fill="none" stroke="#A7A9AC" stroke-width="0.443" stroke-miterlimit="10" d="M92.139,398.178
			c0,53.314,62.243,96.533,139.025,96.533c76.785,0,139.031-43.219,139.031-96.533c0-53.32-62.246-96.541-139.031-96.54
			C154.381,301.638,92.139,344.858,92.139,398.178z"/>
		<path clip-path="url(#SVGID_2_)" fill="none" stroke="#A7A9AC" stroke-width="0.444" stroke-miterlimit="10" d="M90.179,396.1
			c0,54.256,63.121,98.236,140.985,98.236c77.868,0,140.992-43.98,140.992-98.236c0-54.261-63.124-98.244-140.992-98.243
			C153.299,297.856,90.179,341.84,90.179,396.1z"/>
		<path clip-path="url(#SVGID_2_)" fill="none" stroke="#A7A9AC" stroke-width="0.445" stroke-miterlimit="10" d="M88.219,394.021
			c0,55.196,63.998,99.938,142.945,99.938c78.951,0,142.953-44.742,142.953-99.938c0-55.201-64.002-99.947-142.953-99.946
			C152.216,294.075,88.218,338.82,88.219,394.021z"/>
		<path clip-path="url(#SVGID_2_)" fill="none" stroke="#A7A9AC" stroke-width="0.446" stroke-miterlimit="10" d="M86.258,391.943
			c0,56.137,64.876,101.643,144.906,101.643c80.033,0,144.912-45.506,144.912-101.643c0-56.143-64.879-101.65-144.912-101.649
			C151.133,290.294,86.257,335.801,86.258,391.943z"/>
		<path clip-path="url(#SVGID_2_)" fill="none" stroke="#A7A9AC" stroke-width="0.447" stroke-miterlimit="10" d="M84.298,389.865
			c0,57.078,65.753,103.346,146.867,103.346c81.115,0,146.872-46.268,146.872-103.347c0-57.082-65.757-103.354-146.872-103.353
			C150.05,286.512,84.297,332.783,84.298,389.865z"/>
		<path clip-path="url(#SVGID_2_)" fill="none" stroke="#A7A9AC" stroke-width="0.448" stroke-miterlimit="10" d="M82.337,387.786
			c0,58.02,66.631,105.05,148.827,105.05c82.198,0,148.833-47.03,148.833-105.05c-0.001-58.022-66.635-105.056-148.833-105.055
			C148.967,282.731,82.336,329.765,82.337,387.786z"/>
		<path clip-path="url(#SVGID_2_)" fill="none" stroke="#A7A9AC" stroke-width="0.449" stroke-miterlimit="10" d="M80.377,385.708
			c0,58.96,67.509,106.752,150.788,106.752c83.28,0,150.792-47.792,150.792-106.752c0-58.963-67.512-106.759-150.792-106.758
			C147.885,278.95,80.376,326.745,80.377,385.708z"/>
		<path clip-path="url(#SVGID_2_)" fill="none" stroke="#A7A9AC" stroke-width="0.449" stroke-miterlimit="10" d="M78.417,383.63
			c0,59.899,68.387,108.455,152.748,108.455c84.363,0,152.752-48.556,152.752-108.455c0-59.903-68.39-108.462-152.752-108.461
			C146.803,275.169,78.417,323.727,78.417,383.63z"/>
		<path clip-path="url(#SVGID_2_)" fill="none" stroke="#A7A9AC" stroke-width="0.45" stroke-miterlimit="10" d="M76.456,381.552
			c0,60.841,69.265,110.158,154.708,110.158c85.446,0,154.714-49.317,154.714-110.158c0-60.845-69.268-110.165-154.714-110.164
			C145.72,271.388,76.456,320.708,76.456,381.552z"/>
		<path clip-path="url(#SVGID_2_)" fill="none" stroke="#A7A9AC" stroke-width="0.451" stroke-miterlimit="10" d="M74.496,379.474
			c0,61.781,70.142,111.861,156.668,111.861c86.529,0,156.674-50.08,156.674-111.861c0-61.785-70.145-111.868-156.674-111.867
			C144.637,267.606,74.495,317.689,74.496,379.474z"/>
		<path clip-path="url(#SVGID_2_)" fill="none" stroke="#A7A9AC" stroke-width="0.452" stroke-miterlimit="10" d="M72.536,377.396
			c0,62.722,71.02,113.563,158.629,113.563c87.611,0,158.634-50.842,158.634-113.563c0-62.727-71.023-113.571-158.634-113.57
			C143.555,263.825,72.535,314.669,72.536,377.396z"/>
		<path clip-path="url(#SVGID_2_)" fill="none" stroke="#A7A9AC" stroke-width="0.453" stroke-miterlimit="10" d="M70.575,375.317
			c0,63.662,71.897,115.267,160.589,115.267c88.694,0,160.595-51.604,160.595-115.267c0-63.666-71.9-115.274-160.595-115.273
			C142.471,260.044,70.574,311.651,70.575,375.317z"/>
		<path clip-path="url(#SVGID_2_)" fill="none" stroke="#A7A9AC" stroke-width="0.454" stroke-miterlimit="10" d="M68.615,373.239
			c0,64.603,72.775,116.97,162.55,116.97c89.777,0,162.555-52.367,162.555-116.97c0-64.607-72.778-116.979-162.555-116.978
			C141.389,256.262,68.614,308.633,68.615,373.239z"/>
		<path clip-path="url(#SVGID_2_)" fill="none" stroke="#A7A9AC" stroke-width="0.455" stroke-miterlimit="10" d="M66.654,371.161
			c0,65.544,73.653,118.673,164.51,118.673c90.86,0,164.516-53.13,164.516-118.673c0-65.548-73.655-118.681-164.516-118.68
			C140.306,252.481,66.653,305.614,66.654,371.161z"/>
		<path clip-path="url(#SVGID_2_)" fill="none" stroke="#A7A9AC" stroke-width="0.456" stroke-miterlimit="10" d="M64.694,369.083
			c0,66.484,74.531,120.376,166.471,120.376c91.941,0,166.475-53.892,166.475-120.376c0-66.488-74.533-120.384-166.475-120.383
			C139.223,248.7,64.693,302.595,64.694,369.083z"/>
		<path clip-path="url(#SVGID_2_)" fill="none" stroke="#A7A9AC" stroke-width="0.457" stroke-miterlimit="10" d="M62.733,367.005
			c0,67.425,75.409,122.079,168.431,122.079c93.025,0,168.436-54.654,168.436-122.079c0-67.429-75.411-122.087-168.436-122.086
			C138.141,244.919,62.732,299.576,62.733,367.005z"/>
		<path clip-path="url(#SVGID_2_)" fill="none" stroke="#A7A9AC" stroke-width="0.458" stroke-miterlimit="10" d="M60.773,364.927
			c0,68.365,76.286,123.782,170.392,123.782c94.107,0,170.396-55.417,170.396-123.782c0-68.37-76.288-123.79-170.396-123.789
			C137.058,241.138,60.772,296.558,60.773,364.927z"/>
		<path clip-path="url(#SVGID_2_)" fill="none" stroke="#A7A9AC" stroke-width="0.458" stroke-miterlimit="10" d="M58.813,362.848
			c0,69.307,77.164,125.484,172.352,125.484c95.189,0,172.355-56.178,172.355-125.484c0-69.311-77.166-125.492-172.355-125.491
			C135.975,237.356,58.812,293.538,58.813,362.848z"/>
		<path clip-path="url(#SVGID_2_)" fill="none" stroke="#A7A9AC" stroke-width="0.459" stroke-miterlimit="10" d="M56.853,360.77
			c0,70.247,78.042,127.188,174.312,127.188c96.273,0,174.317-56.94,174.317-127.188c0-70.25-78.044-127.195-174.317-127.194
			C134.893,233.575,56.852,290.521,56.853,360.77z"/>
		<path clip-path="url(#SVGID_2_)" fill="none" stroke="#A7A9AC" stroke-width="0.46" stroke-miterlimit="10" d="M54.892,358.691
			c0,71.188,78.919,128.892,176.272,128.892c97.356,0,176.278-57.704,176.278-128.892c0-71.19-78.922-128.898-176.278-128.897
			C133.809,229.794,54.891,287.501,54.892,358.691z"/>
		<path clip-path="url(#SVGID_2_)" fill="none" stroke="#A7A9AC" stroke-width="0.461" stroke-miterlimit="10" d="M52.932,356.613
			c0,72.128,79.797,130.595,178.233,130.595c98.438,0,178.238-58.467,178.238-130.595c0-72.131-79.8-130.603-178.238-130.602
			C132.727,226.012,52.931,284.482,52.932,356.613z"/>
		<path clip-path="url(#SVGID_2_)" fill="none" stroke="#A7A9AC" stroke-width="0.462" stroke-miterlimit="10" d="M50.971,354.535
			c0,73.068,80.675,132.298,180.193,132.298c99.521,0,180.199-59.229,180.199-132.298c0-73.072-80.678-132.305-180.199-132.304
			C131.644,222.231,50.97,281.464,50.971,354.535z"/>
		<path clip-path="url(#SVGID_2_)" fill="none" stroke="#A7A9AC" stroke-width="0.463" stroke-miterlimit="10" d="M49.011,352.457
			c0,74.009,81.553,134,182.154,134c100.603,0,182.158-59.991,182.158-134c0-74.013-81.556-134.008-182.158-134.007
			C130.562,218.45,49.01,278.445,49.011,352.457z"/>
		<path clip-path="url(#SVGID_2_)" fill="none" stroke="#A7A9AC" stroke-width="0.464" stroke-miterlimit="10" d="M47.05,350.379
			c0,74.95,82.43,135.703,184.114,135.703c101.687,0,184.119-60.753,184.119-135.703c0-74.953-82.433-135.711-184.119-135.71
			C129.479,214.669,47.049,275.426,47.05,350.379z"/>
		<path clip-path="url(#SVGID_2_)" fill="none" stroke="#A7A9AC" stroke-width="0.465" stroke-miterlimit="10" d="M45.09,348.301
			c0,75.891,83.308,137.406,186.075,137.406c102.769,0,186.079-61.516,186.079-137.406c0-75.895-83.312-137.414-186.079-137.413
			C128.397,210.888,45.089,272.406,45.09,348.301z"/>
		<path clip-path="url(#SVGID_2_)" fill="none" stroke="#A7A9AC" stroke-width="0.466" stroke-miterlimit="10" d="M43.13,346.223
			c0,76.831,84.186,139.108,188.035,139.108c103.851,0,188.04-62.277,188.04-139.108c0-76.835-84.189-139.117-188.04-139.116
			C127.314,207.106,43.129,269.389,43.13,346.223z"/>
		<path clip-path="url(#SVGID_2_)" fill="none" stroke="#A7A9AC" stroke-width="0.467" stroke-miterlimit="10" d="M41.169,344.145
			c0,77.771,85.063,140.812,189.995,140.812c104.934,0,190-63.041,190-140.812c0-77.775-85.066-140.82-190-140.819
			C126.231,203.326,41.168,266.37,41.169,344.145z"/>
		<path clip-path="url(#SVGID_2_)" fill="none" stroke="#A7A9AC" stroke-width="0.468" stroke-miterlimit="10" d="M39.209,342.066
			c0,78.712,85.941,142.516,191.956,142.516c106.016,0,191.961-63.804,191.961-142.516c0-78.716-85.945-142.523-191.961-142.521
			C125.148,199.545,39.208,263.351,39.209,342.066z"/>
		<path clip-path="url(#SVGID_2_)" fill="none" stroke="#A7A9AC" stroke-width="0.468" stroke-miterlimit="10" d="M37.249,339.988
			c0,79.651,86.819,144.218,193.917,144.218c107.099,0,193.92-64.566,193.92-144.218c0-79.656-86.821-144.228-193.92-144.226
			C124.065,195.763,37.248,260.332,37.249,339.988z"/>
		<path clip-path="url(#SVGID_2_)" fill="none" stroke="#A7A9AC" stroke-width="0.469" stroke-miterlimit="10" d="M35.288,337.909
			c0,80.594,87.696,145.922,195.877,145.922c108.182,0,195.881-65.328,195.881-145.922c0-80.597-87.699-145.929-195.881-145.927
			C122.983,191.982,35.287,257.313,35.288,337.909z"/>
		<path clip-path="url(#SVGID_2_)" fill="none" stroke="#A7A9AC" stroke-width="0.47" stroke-miterlimit="10" d="M33.328,335.831
			c0,81.534,88.574,147.625,197.837,147.625c109.265,0,197.842-66.091,197.842-147.625c0-81.537-88.577-147.632-197.842-147.63
			C121.899,188.201,33.327,254.295,33.328,335.831z"/>
		<path clip-path="url(#SVGID_2_)" fill="none" stroke="#A7A9AC" stroke-width="0.471" stroke-miterlimit="10" d="M31.367,333.753
			c0,82.475,89.452,149.328,199.798,149.328c110.347,0,199.802-66.854,199.802-149.328c0-82.479-89.455-149.335-199.802-149.333
			C120.817,184.42,31.366,251.274,31.367,333.753z"/>
		<path clip-path="url(#SVGID_2_)" fill="none" stroke="#A7A9AC" stroke-width="0.472" stroke-miterlimit="10" d="M29.407,331.675
			c0,83.416,90.329,151.031,201.758,151.031s201.762-67.615,201.762-151.031c0-83.418-90.333-151.038-201.762-151.036
			C119.735,180.639,29.406,248.257,29.407,331.675z"/>
		<path clip-path="url(#SVGID_2_)" fill="none" stroke="#A7A9AC" stroke-width="0.473" stroke-miterlimit="10" d="M27.447,329.597
			c0,84.355,91.207,152.733,203.718,152.732c112.512,0,203.723-68.377,203.723-152.732c0-84.359-91.211-152.741-203.723-152.739
			C118.652,176.857,27.446,245.238,27.447,329.597z"/>
		<path clip-path="url(#SVGID_2_)" fill="none" stroke="#A7A9AC" stroke-width="0.474" stroke-miterlimit="10" d="M25.486,327.519
			c0,85.297,92.085,154.437,205.679,154.437c113.596,0,205.684-69.14,205.684-154.437c0-85.3-92.088-154.444-205.684-154.442
			C117.569,173.076,25.485,242.22,25.486,327.519z"/>
		<path clip-path="url(#SVGID_2_)" fill="none" stroke="#A7A9AC" stroke-width="0.475" stroke-miterlimit="10" d="M23.526,325.44
			c0,86.237,92.962,156.14,207.639,156.14c114.678,0,207.644-69.902,207.644-156.14c0-86.24-92.966-156.147-207.644-156.146
			C116.487,169.294,23.525,239.2,23.526,325.44z"/>
		<path clip-path="url(#SVGID_2_)" fill="none" stroke="#A7A9AC" stroke-width="0.476" stroke-miterlimit="10" d="M21.565,323.362
			c0,87.178,93.84,157.843,209.6,157.843S440.77,410.54,440.769,323.362c0-87.181-93.843-157.851-209.603-157.849
			C115.403,165.514,21.564,236.182,21.565,323.362z"/>
		<path clip-path="url(#SVGID_2_)" fill="none" stroke="#A7A9AC" stroke-width="0.477" stroke-miterlimit="10" d="M19.605,321.284
			c0,88.118,94.718,159.546,211.56,159.546c116.843,0,211.563-71.428,211.563-159.546c0-88.122-94.721-159.554-211.563-159.552
			C114.321,161.732,19.604,233.163,19.605,321.284z"/>
		<path clip-path="url(#SVGID_2_)" fill="none" stroke="#A7A9AC" stroke-width="0.478" stroke-miterlimit="10" d="M17.645,319.206
			c0,89.059,95.596,161.249,213.521,161.249s213.524-72.19,213.524-161.249c0-89.063-95.599-161.257-213.524-161.255
			C113.238,157.951,17.644,230.144,17.645,319.206z"/>
		<path clip-path="url(#SVGID_2_)" fill="none" stroke="#A7A9AC" stroke-width="0.478" stroke-miterlimit="10" d="M15.684,317.128
			c0,89.999,96.474,162.951,215.481,162.951c119.008,0,215.485-72.952,215.485-162.951c0-90.003-96.478-162.96-215.485-162.958
			C112.156,154.17,15.683,227.125,15.684,317.128z"/>
		<path clip-path="url(#SVGID_2_)" fill="none" stroke="#A7A9AC" stroke-width="0.479" stroke-miterlimit="10" d="M13.724,315.05
			c0,90.938,97.351,164.654,217.441,164.654c120.091,0,217.445-73.716,217.445-164.654c0-90.943-97.354-164.663-217.445-164.661
			C111.073,150.389,13.723,224.106,13.724,315.05z"/>
		<path clip-path="url(#SVGID_2_)" fill="none" stroke="#A7A9AC" stroke-width="0.48" stroke-miterlimit="10" d="M11.764,312.972
			c0,91.88,98.229,166.356,219.401,166.356c121.174,0,219.406-74.477,219.406-166.357c0-91.884-98.231-166.365-219.406-166.363
			C109.991,146.607,11.763,221.088,11.764,312.972z"/>
		<path clip-path="url(#SVGID_2_)" fill="none" stroke="#A7A9AC" stroke-width="0.481" stroke-miterlimit="10" d="M9.803,310.893
			c0,92.822,99.106,168.062,221.362,168.062s221.366-75.239,221.366-168.062c0-92.824-99.11-168.068-221.366-168.066
			C108.907,142.826,9.802,218.069,9.803,310.893z"/>
		<path clip-path="url(#SVGID_2_)" fill="none" stroke="#A7A9AC" stroke-width="0.482" stroke-miterlimit="10" d="M7.843,308.814
			c0,93.763,99.984,169.765,223.322,169.765c123.34,0,223.327-76.002,223.327-169.765c0-93.766-99.987-169.771-223.327-169.77
			C107.825,139.044,7.842,215.051,7.843,308.814z"/>
		<path clip-path="url(#SVGID_2_)" fill="none" stroke="#A7A9AC" stroke-width="0.483" stroke-miterlimit="10" d="M5.882,306.736
			c0,94.703,100.862,171.468,225.283,171.468c124.422-0.001,225.286-76.765,225.286-171.468
			c0-94.705-100.864-171.474-225.286-171.473C106.742,135.263,5.881,212.031,5.882,306.736z"/>
		<path clip-path="url(#SVGID_2_)" fill="none" stroke="#A7A9AC" stroke-width="0.484" stroke-miterlimit="10" d="M3.922,304.658
			c0,95.644,101.74,173.17,227.243,173.17c125.505,0,227.247-77.526,227.247-173.17c0-95.646-101.742-173.177-227.247-173.176
			C105.66,131.482,3.921,209.012,3.922,304.658z"/>
		<path clip-path="url(#SVGID_2_)" fill="none" stroke="#A7A9AC" stroke-width="0.485" stroke-miterlimit="10" d="M1.961,302.58
			c0,96.584,102.618,174.873,229.204,174.873c126.586,0,229.207-78.289,229.207-174.873c0-96.587-102.62-174.88-229.207-174.879
			C104.576,127.701,1.96,205.994,1.961,302.58z"/>
		<path clip-path="url(#SVGID_2_)" fill="none" stroke="#A7A9AC" stroke-width="0.486" stroke-miterlimit="10" d="M0.001,300.502
			c0,97.523,103.495,176.576,231.164,176.576c127.67,0,231.168-79.053,231.168-176.576c0-97.527-103.498-176.583-231.168-176.582
			C103.494,123.92,0,202.976,0.001,300.502z"/>
		<path clip-path="url(#SVGID_2_)" fill="none" stroke="#A7A9AC" stroke-width="0.487" stroke-miterlimit="10" d="M-1.959,298.424
			c0,98.465,104.373,178.279,233.124,178.279c128.752,0,233.128-79.814,233.128-178.279c0-98.468-104.376-178.287-233.128-178.285
			C102.412,120.139-1.96,199.956-1.959,298.424z"/>
		<path clip-path="url(#SVGID_2_)" fill="none" stroke="#A7A9AC" stroke-width="0.488" stroke-miterlimit="10" d="M-3.919,296.346
			c0,99.405,105.25,179.981,235.084,179.981c129.836,0,235.089-80.576,235.089-179.981c0-99.409-105.253-179.99-235.089-179.988
			C101.329,116.357-3.92,196.938-3.919,296.346z"/>
		<path clip-path="url(#SVGID_2_)" fill="none" stroke="#A7A9AC" stroke-width="0.488" stroke-miterlimit="10" d="M-5.88,294.268
			c0,100.346,106.128,181.685,237.045,181.685c130.918,0,237.049-81.339,237.049-181.685c0-100.351-106.131-181.693-237.049-181.691
			C100.246,112.577-5.881,193.918-5.88,294.268z"/>
		<path clip-path="url(#SVGID_2_)" fill="none" stroke="#A7A9AC" stroke-width="0.489" stroke-miterlimit="10" d="M-7.84,292.189
			c0,101.287,107.006,183.388,239.006,183.388c132,0,239.009-82.101,239.009-183.388c0-101.29-107.009-183.396-239.009-183.395
			C99.164,108.794-7.841,190.9-7.84,292.189z"/>
		<path clip-path="url(#SVGID_2_)" fill="none" stroke="#A7A9AC" stroke-width="0.49" stroke-miterlimit="10" d="M-9.801,290.111
			c0,102.228,107.884,185.091,240.966,185.091c133.083,0,240.97-82.863,240.97-185.091c0-102.23-107.887-185.099-240.97-185.098
			C98.08,105.013-9.802,187.881-9.801,290.111z"/>
		<path clip-path="url(#SVGID_2_)" fill="none" stroke="#A7A9AC" stroke-width="0.491" stroke-miterlimit="10" d="M-11.761,288.033
			c0,103.168,108.761,186.794,242.927,186.794c134.165,0,242.929-83.626,242.929-186.794c0-103.172-108.764-186.802-242.929-186.801
			C96.998,101.232-11.762,184.862-11.761,288.033z"/>
		<path clip-path="url(#SVGID_2_)" fill="none" stroke="#A7A9AC" stroke-width="0.492" stroke-miterlimit="10" d="M-13.722,285.954
			c0,104.109,109.639,188.498,244.887,188.498c135.248,0,244.891-84.389,244.891-188.498c0-104.111-109.643-188.504-244.891-188.503
			C95.915,97.451-13.723,181.844-13.722,285.954z"/>
		<path clip-path="url(#SVGID_2_)" fill="none" stroke="#A7A9AC" stroke-width="0.493" stroke-miterlimit="10" d="M-15.682,283.876
			c0,105.05,110.517,190.201,246.848,190.201s246.85-85.151,246.85-190.201c0-105.052-110.519-190.208-246.85-190.206
			C94.833,93.67-15.683,178.825-15.682,283.876z"/>
		<path clip-path="url(#SVGID_2_)" fill="none" stroke="#A7A9AC" stroke-width="0.494" stroke-miterlimit="10" d="M-17.642,281.798
			c0,105.99,111.394,191.903,248.808,191.903c137.413,0,248.811-85.913,248.811-191.903c0-105.992-111.397-191.911-248.811-191.909
			C93.75,89.889-17.644,175.806-17.642,281.798z"/>
		<path clip-path="url(#SVGID_2_)" fill="none" stroke="#A7A9AC" stroke-width="0.495" stroke-miterlimit="10" d="M-19.603,279.72
			c0,106.931,112.272,193.605,250.768,193.605c138.496,0,250.772-86.675,250.772-193.605c0-106.935-112.276-193.614-250.772-193.612
			C92.667,86.107-19.604,172.787-19.603,279.72z"/>
		<path clip-path="url(#SVGID_2_)" fill="none" stroke="#A7A9AC" stroke-width="0.496" stroke-miterlimit="10" d="M-21.563,277.642
			c0,107.871,113.15,195.31,252.729,195.31s252.731-87.438,252.731-195.31c0-107.874-113.152-195.317-252.731-195.315
			C91.584,82.327-21.564,169.769-21.563,277.642z"/>
		<path clip-path="url(#SVGID_2_)" fill="none" stroke="#A7A9AC" stroke-width="0.497" stroke-miterlimit="10" d="M-23.523,275.563
			c0,108.812,114.027,197.013,254.689,197.013c140.662,0,254.692-88.201,254.692-197.013c0-108.814-114.03-197.02-254.692-197.019
			C90.501,78.544-23.524,166.75-23.523,275.563z"/>
		<path clip-path="url(#SVGID_2_)" fill="none" stroke="#A7A9AC" stroke-width="0.498" stroke-miterlimit="10" d="M-25.484,273.485
			c0,109.753,114.905,198.716,256.649,198.716c141.745,0,256.653-88.964,256.653-198.716c0-109.755-114.908-198.723-256.653-198.722
			C89.419,74.763-25.485,163.73-25.484,273.485z"/>
		<path clip-path="url(#SVGID_2_)" fill="none" stroke="#A7A9AC" stroke-width="0.498" stroke-miterlimit="10" d="M-27.444,271.407
			c0,110.693,115.783,200.418,258.61,200.418c142.828,0,258.613-89.725,258.613-200.418c0-110.696-115.785-200.426-258.613-200.425
			C88.337,70.982-27.445,160.712-27.444,271.407z"/>
		<path clip-path="url(#SVGID_2_)" fill="none" stroke="#A7A9AC" stroke-width="0.499" stroke-miterlimit="10" d="M-29.405,269.329
			c0,111.634,116.661,202.121,260.57,202.121c143.91,0,260.574-90.487,260.574-202.121c0-111.637-116.664-202.129-260.574-202.128
			C87.254,67.201-29.406,157.693-29.405,269.329z"/>
		<path clip-path="url(#SVGID_2_)" fill="none" stroke="#A7A9AC" stroke-width="0.5" stroke-miterlimit="10" d="M-31.365,267.251
			c0,112.574,117.538,203.824,262.53,203.824c144.992,0,262.534-91.25,262.534-203.824c0-112.577-117.542-203.833-262.534-203.831
			C86.171,63.42-31.367,154.675-31.365,267.251z"/>
		<path clip-path="url(#SVGID_2_)" fill="none" stroke="#A7A9AC" stroke-width="0.501" stroke-miterlimit="10" d="M-33.325,265.173
			c0,113.515,118.416,205.526,264.491,205.526S495.66,378.688,495.66,265.173c0-113.519-118.419-205.536-264.494-205.534
			C85.089,59.639-33.327,151.655-33.325,265.173z"/>
		<path clip-path="url(#SVGID_2_)" fill="none" stroke="#A7A9AC" stroke-width="0.502" stroke-miterlimit="10" d="M-35.286,263.095
			c0,114.455,119.293,207.229,266.451,207.229c147.158,0,266.455-92.774,266.455-207.229c0-114.459-119.297-207.239-266.455-207.237
			C84.005,55.857-35.288,148.637-35.286,263.095z"/>
		<path clip-path="url(#SVGID_2_)" fill="none" stroke="#A7A9AC" stroke-width="0.503" stroke-miterlimit="10" d="M-37.246,261.016
			c0,115.396,120.171,208.935,268.412,208.935c148.24,0,268.415-93.539,268.415-208.935c0-115.398-120.175-208.941-268.415-208.939
			C82.923,52.077-37.248,145.619-37.246,261.016z"/>
		<path clip-path="url(#SVGID_2_)" fill="none" stroke="#A7A9AC" stroke-width="0.504" stroke-miterlimit="10" d="M-39.207,258.938
			c0,116.337,121.049,210.637,270.372,210.637c149.323,0,270.375-94.3,270.375-210.637c0-116.339-121.052-210.644-270.375-210.642
			C81.84,48.295-39.208,142.6-39.207,258.938z"/>
		<path clip-path="url(#SVGID_2_)" fill="none" stroke="#A7A9AC" stroke-width="0.505" stroke-miterlimit="10" d="M-41.167,256.859
			c0,117.277,121.927,212.34,272.333,212.34c150.405,0,272.335-95.063,272.335-212.34c0-117.28-121.93-212.347-272.335-212.345
			C80.757,44.514-41.168,139.58-41.167,256.859z"/>
		<path clip-path="url(#SVGID_2_)" fill="none" stroke="#A7A9AC" stroke-width="0.506" stroke-miterlimit="10" d="M-43.127,254.781
			c0,118.218,122.805,214.043,274.293,214.043s274.296-95.825,274.296-214.043c0-118.22-122.809-214.05-274.296-214.048
			C79.675,40.733-43.128,136.562-43.127,254.781z"/>
		<path clip-path="url(#SVGID_2_)" fill="none" stroke="#A7A9AC" stroke-width="0.507" stroke-miterlimit="10" d="M-45.088,252.703
			c0,119.159,123.683,215.746,276.253,215.746c152.572,0,276.257-96.587,276.257-215.746c0-119.161-123.685-215.753-276.257-215.751
			C78.592,36.952-45.089,133.543-45.088,252.703z"/>
		<path clip-path="url(#SVGID_2_)" fill="none" stroke="#A7A9AC" stroke-width="0.508" stroke-miterlimit="10" d="M-47.048,250.625
			c0,120.1,124.56,217.449,278.213,217.449c153.654,0,278.217-97.35,278.217-217.449c0-120.102-124.563-217.457-278.217-217.455
			C77.509,33.17-47.05,130.524-47.048,250.625z"/>
		<path clip-path="url(#SVGID_2_)" fill="none" stroke="#A7A9AC" stroke-width="0.508" stroke-miterlimit="10" d="M-49.008,248.547
			c0,121.04,125.438,219.15,280.174,219.15s280.177-98.11,280.177-219.15c0-121.042-125.441-219.16-280.177-219.158
			C76.427,29.389-49.01,127.505-49.008,248.547z"/>
		<path clip-path="url(#SVGID_2_)" fill="none" stroke="#A7A9AC" stroke-width="0.509" stroke-miterlimit="10" d="M-50.969,246.469
			c0,121.979,126.315,220.854,282.134,220.854c155.82,0,282.139-98.874,282.139-220.854c0-121.983-126.318-220.863-282.139-220.861
			C75.344,25.607-50.971,124.487-50.969,246.469z"/>
		<path clip-path="url(#SVGID_2_)" fill="none" stroke="#A7A9AC" stroke-width="0.51" stroke-miterlimit="10" d="M-52.929,244.391
			c0,122.921,127.193,222.558,284.095,222.558c156.901,0,284.098-99.637,284.098-222.558c0-122.924-127.196-222.566-284.098-222.564
			C74.261,21.827-52.931,121.468-52.929,244.391z"/>
		<path clip-path="url(#SVGID_2_)" fill="none" stroke="#A7A9AC" stroke-width="0.511" stroke-miterlimit="10" d="M-54.89,242.313
			c0,123.861,128.071,224.261,286.056,224.261c157.984,0,286.057-100.399,286.057-224.261
			c0-123.864-128.073-224.269-286.057-224.267C73.178,18.045-54.892,118.449-54.89,242.313z"/>
		<path clip-path="url(#SVGID_2_)" fill="none" stroke="#A7A9AC" stroke-width="0.512" stroke-miterlimit="10" d="M-56.85,240.234
			c0,124.802,128.949,225.964,288.016,225.964c159.067,0,288.018-101.162,288.018-225.964c0-124.805-128.95-225.972-288.018-225.97
			C72.096,14.264-56.852,115.43-56.85,240.234z"/>
		<path clip-path="url(#SVGID_2_)" fill="none" stroke="#A7A9AC" stroke-width="0.513" stroke-miterlimit="10" d="M-58.811,238.156
			c0,125.742,129.826,227.667,289.977,227.667c160.149,0,289.978-101.925,289.978-227.667
			c0-125.746-129.829-227.675-289.978-227.673C71.014,10.483-58.812,112.411-58.811,238.156z"/>
		<path clip-path="url(#SVGID_2_)" fill="none" stroke="#A7A9AC" stroke-width="0.514" stroke-miterlimit="10" d="M-60.771,236.078
			c0,126.683,130.704,229.369,291.937,229.369c161.232,0,291.938-102.687,291.938-229.37c0-126.686-130.706-229.377-291.938-229.375
			C69.931,6.702-60.772,109.392-60.771,236.078z"/>
		<path clip-path="url(#SVGID_2_)" fill="none" stroke="#A7A9AC" stroke-width="0.515" stroke-miterlimit="10" d="M-62.731,233.999
			c0,127.625,131.582,231.073,293.897,231.073c162.315,0,293.899-103.449,293.899-231.073
			c0-127.626-131.585-231.081-293.899-231.079C68.848,2.92-62.733,106.374-62.731,233.999z"/>
		<path clip-path="url(#SVGID_2_)" fill="none" stroke="#A7A9AC" stroke-width="0.516" stroke-miterlimit="10" d="M-64.691,231.921
			c0,128.564,132.459,232.776,295.857,232.776s295.86-104.212,295.86-232.776c0-128.567-132.462-232.784-295.86-232.782
			C67.766-0.861-64.693,103.355-64.691,231.921z"/>
		<path clip-path="url(#SVGID_2_)" fill="none" stroke="#A7A9AC" stroke-width="0.517" stroke-miterlimit="10" d="M-66.652,229.843
			c0,129.506,133.337,234.479,297.818,234.479c164.48,0,297.82-104.973,297.82-234.479c0-129.507-133.34-234.487-297.82-234.485
			C66.682-4.643-66.654,100.336-66.652,229.843z"/>
		<path clip-path="url(#SVGID_2_)" fill="none" stroke="#A7A9AC" stroke-width="0.518" stroke-miterlimit="10" d="M-68.612,227.765
			c0,130.446,134.215,236.183,299.778,236.183s299.781-105.736,299.781-236.183c0-130.448-134.218-236.19-299.781-236.188
			C65.6-8.423-68.614,97.317-68.612,227.765z"/>
		<path clip-path="url(#SVGID_2_)" fill="none" stroke="#A7A9AC" stroke-width="0.518" stroke-miterlimit="10" d="M-70.573,225.687
			c0,131.387,135.092,237.885,301.739,237.885c166.646,0,301.74-106.498,301.74-237.885c0-131.389-135.095-237.893-301.74-237.891
			C64.517-12.205-70.575,94.298-70.573,225.687z"/>
		<path clip-path="url(#SVGID_2_)" fill="none" stroke="#A7A9AC" stroke-width="0.519" stroke-miterlimit="10" d="M-72.533,223.608
			c0,132.327,135.97,239.588,303.699,239.588c167.728,0,303.701-107.261,303.701-239.588c0-132.33-135.974-239.596-303.701-239.594
			C63.434-15.986-72.535,91.279-72.533,223.608z"/>
		<path clip-path="url(#SVGID_2_)" fill="none" stroke="#A7A9AC" stroke-width="0.52" stroke-miterlimit="10" d="M-74.494,221.53
			c0,133.268,136.848,241.291,305.66,241.291c168.811,0,305.661-108.023,305.661-241.291c0-133.27-136.851-241.299-305.661-241.297
			C62.352-19.767-74.496,88.261-74.494,221.53z"/>
		<path clip-path="url(#SVGID_2_)" fill="none" stroke="#A7A9AC" stroke-width="0.521" stroke-miterlimit="10" d="M-76.454,219.452
			c0,134.208,137.726,242.994,307.62,242.994c169.894,0,307.622-108.786,307.622-242.994c0-134.211-137.729-243.002-307.622-243
			C61.269-23.548-76.456,85.242-76.454,219.452z"/>
		<path clip-path="url(#SVGID_2_)" fill="none" stroke="#A7A9AC" stroke-width="0.522" stroke-miterlimit="10" d="M-78.414,217.374
			c0,135.147,138.603,244.697,309.58,244.697c170.976,0,309.583-109.55,309.583-244.697c0-135.151-138.607-244.706-309.583-244.704
			C60.186-27.33-78.416,82.224-78.414,217.374z"/>
		<path clip-path="url(#SVGID_2_)" fill="none" stroke="#A7A9AC" stroke-width="0.523" stroke-miterlimit="10" d="M-80.375,215.296
			c0,136.089,139.481,246.399,311.541,246.399c172.058,0,311.542-110.311,311.542-246.399
			c0-136.092-139.483-246.409-311.542-246.407C59.104-31.111-80.376,79.205-80.375,215.296z"/>
		<path clip-path="url(#SVGID_2_)" fill="none" stroke="#A7A9AC" stroke-width="0.524" stroke-miterlimit="10" d="M-82.335,213.218
			c0,137.03,140.358,248.103,313.501,248.103c173.142,0,313.503-111.072,313.503-248.103c0-137.033-140.361-248.112-313.503-248.11
			C58.02-34.893-82.337,76.186-82.335,213.218z"/>
		<path clip-path="url(#SVGID_2_)" fill="none" stroke="#A7A9AC" stroke-width="0.525" stroke-miterlimit="10" d="M-84.295,211.14
			c0,137.971,141.236,249.806,315.461,249.806S546.63,349.11,546.63,211.14c0-137.974-141.239-249.815-315.464-249.813
			C56.938-38.673-84.297,73.167-84.295,211.14z"/>
		<path clip-path="url(#SVGID_2_)" fill="none" stroke="#A7A9AC" stroke-width="0.526" stroke-miterlimit="10" d="M-86.256,209.061
			c0,138.912,142.114,251.51,317.422,251.51S548.59,347.973,548.59,209.061c0-138.913-142.116-251.517-317.424-251.515
			C55.855-42.455-86.258,70.148-86.256,209.061z"/>
		<path clip-path="url(#SVGID_2_)" fill="none" stroke="#A7A9AC" stroke-width="0.527" stroke-miterlimit="10" d="M550.55,206.982
			c0-139.854-142.994-253.22-319.384-253.218c-176.394,0-319.385,113.365-319.383,253.218
			c0,139.853,142.992,253.213,319.383,253.213C407.556,460.195,550.55,346.835,550.55,206.982z"/>
	</g>
	<path fill="#FFFFFF" d="M453.79,361.786c0,31.535-99.441,57.098-222.112,57.098c-122.669,0-222.109-25.563-222.109-57.098
		s99.44-57.098,222.109-57.098C354.349,304.688,453.79,330.251,453.79,361.786"/>
	<path fill="#C41230" d="M234.844,303.402C107.414,304.007,4.25,331.571,4.419,364.969c0.028,5.121,2.493,10.084,7.092,14.813
		c-3.66-4.303-5.612-8.789-5.635-13.407c-0.17-33.397,100.169-60.949,224.116-61.536s224.563,26.012,224.731,59.409
		c0.106,20.878-39.067,39.473-98.732,50.622c66.026-10.951,110.006-30.276,109.895-52.088
		C465.716,329.382,362.275,302.798,234.844,303.402"/>
	<g>
		<path fill="#58595B" d="M215.443,360.354l0.059,1.406c0.93-1.094,2.184-1.641,3.762-1.641c1.773,0,2.98,0.68,3.621,2.039
			c0.422-0.609,0.971-1.102,1.646-1.477s1.475-0.563,2.396-0.563c2.781,0,4.195,1.473,4.242,4.418v8.496h-2.168v-8.367
			c0-0.906-0.207-1.584-0.621-2.033s-1.109-0.674-2.086-0.674c-0.805,0-1.473,0.24-2.004,0.721s-0.84,1.127-0.926,1.939v8.414h-2.18
			v-8.309c0-1.844-0.902-2.766-2.707-2.766c-1.422,0-2.395,0.605-2.918,1.816v9.258h-2.168v-12.68H215.443z"/>
		<path fill="#58595B" d="M239.7,373.269c-1.719,0-3.117-0.564-4.195-1.693s-1.617-2.639-1.617-4.529v-0.398
			c0-1.258,0.24-2.381,0.721-3.369s1.152-1.762,2.016-2.32s1.799-0.838,2.807-0.838c1.648,0,2.93,0.543,3.844,1.629
			s1.371,2.641,1.371,4.664v0.902h-8.59c0.031,1.25,0.396,2.26,1.096,3.029s1.588,1.154,2.666,1.154
			c0.766,0,1.414-0.156,1.945-0.469s0.996-0.727,1.395-1.242l1.324,1.031C243.419,372.452,241.825,373.269,239.7,373.269z
			 M239.431,361.901c-0.875,0-1.609,0.318-2.203,0.955s-0.961,1.529-1.102,2.678h6.352v-0.164c-0.063-1.102-0.359-1.955-0.891-2.561
			S240.337,361.901,239.431,361.901z"/>
		<path fill="#58595B" d="M246.626,366.589c0-1.945,0.461-3.51,1.383-4.693s2.129-1.775,3.621-1.775c1.484,0,2.66,0.508,3.527,1.523
			v-6.609h2.168v18h-1.992l-0.105-1.359c-0.867,1.063-2.074,1.594-3.621,1.594c-1.469,0-2.666-0.602-3.592-1.805
			s-1.389-2.773-1.389-4.711V366.589z M248.794,366.835c0,1.438,0.297,2.563,0.891,3.375s1.414,1.219,2.461,1.219
			c1.375,0,2.379-0.617,3.012-1.852v-5.824c-0.648-1.195-1.645-1.793-2.988-1.793c-1.063,0-1.891,0.41-2.484,1.23
			S248.794,365.226,248.794,366.835z"/>
		<path fill="#58595B" d="M260.7,356.991c0-0.352,0.107-0.648,0.322-0.891s0.533-0.363,0.955-0.363s0.742,0.121,0.961,0.363
			s0.328,0.539,0.328,0.891s-0.109,0.645-0.328,0.879s-0.539,0.352-0.961,0.352s-0.74-0.117-0.955-0.352
			S260.7,357.343,260.7,356.991z M263.044,373.034h-2.168v-12.68h2.168V373.034z"/>
		<path fill="#58595B" d="M274.341,373.034c-0.125-0.25-0.227-0.695-0.305-1.336c-1.008,1.047-2.211,1.57-3.609,1.57
			c-1.25,0-2.275-0.354-3.076-1.061s-1.201-1.604-1.201-2.689c0-1.32,0.502-2.346,1.506-3.076s2.416-1.096,4.236-1.096h2.109v-0.996
			c0-0.758-0.227-1.361-0.68-1.811s-1.121-0.674-2.004-0.674c-0.773,0-1.422,0.195-1.945,0.586s-0.785,0.863-0.785,1.418h-2.18
			c0-0.633,0.225-1.244,0.674-1.834s1.059-1.057,1.828-1.4s1.615-0.516,2.537-0.516c1.461,0,2.605,0.365,3.434,1.096
			s1.258,1.736,1.289,3.018v5.836c0,1.164,0.148,2.09,0.445,2.777v0.188H274.341z M270.743,371.382c0.68,0,1.324-0.176,1.934-0.527
			s1.051-0.809,1.324-1.371v-2.602h-1.699c-2.656,0-3.984,0.777-3.984,2.332c0,0.68,0.227,1.211,0.68,1.594
			S270.032,371.382,270.743,371.382z"/>
		<path fill="#58595B" d="M279.614,371.897c0-0.375,0.111-0.688,0.334-0.938s0.557-0.375,1.002-0.375s0.783,0.125,1.014,0.375
			s0.346,0.563,0.346,0.938c0,0.359-0.115,0.66-0.346,0.902s-0.568,0.363-1.014,0.363s-0.779-0.121-1.002-0.363
			S279.614,372.257,279.614,371.897z"/>
		<path fill="#58595B" d="M287.935,360.354l0.07,1.594c0.969-1.219,2.234-1.828,3.797-1.828c2.68,0,4.031,1.512,4.055,4.535v8.379
			h-2.168v-8.391c-0.008-0.914-0.217-1.59-0.627-2.027s-1.049-0.656-1.916-0.656c-0.703,0-1.32,0.188-1.852,0.563
			s-0.945,0.867-1.242,1.477v9.035h-2.168v-12.68H287.935z"/>
		<path fill="#58595B" d="M299.138,356.991c0-0.352,0.107-0.648,0.322-0.891s0.533-0.363,0.955-0.363s0.742,0.121,0.961,0.363
			s0.328,0.539,0.328,0.891s-0.109,0.645-0.328,0.879s-0.539,0.352-0.961,0.352s-0.74-0.117-0.955-0.352
			S299.138,357.343,299.138,356.991z M301.481,373.034h-2.168v-12.68h2.168V373.034z"/>
		<path fill="#58595B" d="M308.489,367.163l-1.359,1.418v4.453h-2.168v-18h2.168v10.887l1.16-1.395l3.949-4.172h2.637l-4.934,5.297
			l5.508,7.383h-2.543L308.489,367.163z"/>
		<path fill="#58595B" d="M324.942,373.034c-0.125-0.25-0.227-0.695-0.305-1.336c-1.008,1.047-2.211,1.57-3.609,1.57
			c-1.25,0-2.275-0.354-3.076-1.061s-1.201-1.604-1.201-2.689c0-1.32,0.502-2.346,1.506-3.076s2.416-1.096,4.236-1.096h2.109v-0.996
			c0-0.758-0.227-1.361-0.68-1.811s-1.121-0.674-2.004-0.674c-0.773,0-1.422,0.195-1.945,0.586s-0.785,0.863-0.785,1.418h-2.18
			c0-0.633,0.225-1.244,0.674-1.834s1.059-1.057,1.828-1.4s1.615-0.516,2.537-0.516c1.461,0,2.605,0.365,3.434,1.096
			s1.258,1.736,1.289,3.018v5.836c0,1.164,0.148,2.09,0.445,2.777v0.188H324.942z M321.345,371.382c0.68,0,1.324-0.176,1.934-0.527
			s1.051-0.809,1.324-1.371v-2.602h-1.699c-2.656,0-3.984,0.777-3.984,2.332c0,0.68,0.227,1.211,0.68,1.594
			S320.634,371.382,321.345,371.382z"/>
		<path fill="#58595B" d="M332.208,360.354l0.059,1.406c0.93-1.094,2.184-1.641,3.762-1.641c1.773,0,2.98,0.68,3.621,2.039
			c0.422-0.609,0.971-1.102,1.646-1.477s1.475-0.563,2.396-0.563c2.781,0,4.195,1.473,4.242,4.418v8.496h-2.168v-8.367
			c0-0.906-0.207-1.584-0.621-2.033s-1.109-0.674-2.086-0.674c-0.805,0-1.473,0.24-2.004,0.721s-0.84,1.127-0.926,1.939v8.414h-2.18
			v-8.309c0-1.844-0.902-2.766-2.707-2.766c-1.422,0-2.395,0.605-2.918,1.816v9.258h-2.168v-12.68H332.208z"/>
		<path fill="#58595B" d="M356.466,373.269c-1.719,0-3.117-0.564-4.195-1.693s-1.617-2.639-1.617-4.529v-0.398
			c0-1.258,0.24-2.381,0.721-3.369s1.152-1.762,2.016-2.32s1.799-0.838,2.807-0.838c1.648,0,2.93,0.543,3.844,1.629
			s1.371,2.641,1.371,4.664v0.902h-8.59c0.031,1.25,0.396,2.26,1.096,3.029s1.588,1.154,2.666,1.154
			c0.766,0,1.414-0.156,1.945-0.469s0.996-0.727,1.395-1.242l1.324,1.031C360.185,372.452,358.591,373.269,356.466,373.269z
			 M356.196,361.901c-0.875,0-1.609,0.318-2.203,0.955s-0.961,1.529-1.102,2.678h6.352v-0.164c-0.063-1.102-0.359-1.955-0.891-2.561
			S357.103,361.901,356.196,361.901z"/>
		<path fill="#58595B" d="M363.392,366.589c0-1.945,0.461-3.51,1.383-4.693s2.129-1.775,3.621-1.775c1.484,0,2.66,0.508,3.527,1.523
			v-6.609h2.168v18h-1.992l-0.105-1.359c-0.867,1.063-2.074,1.594-3.621,1.594c-1.469,0-2.666-0.602-3.592-1.805
			s-1.389-2.773-1.389-4.711V366.589z M365.56,366.835c0,1.438,0.297,2.563,0.891,3.375s1.414,1.219,2.461,1.219
			c1.375,0,2.379-0.617,3.012-1.852v-5.824c-0.648-1.195-1.645-1.793-2.988-1.793c-1.063,0-1.891,0.41-2.484,1.23
			S365.56,365.226,365.56,366.835z"/>
		<path fill="#58595B" d="M377.501,371.897c0-0.375,0.111-0.688,0.334-0.938s0.557-0.375,1.002-0.375s0.783,0.125,1.014,0.375
			s0.346,0.563,0.346,0.938c0,0.359-0.115,0.66-0.346,0.902s-0.568,0.363-1.014,0.363s-0.779-0.121-1.002-0.363
			S377.501,372.257,377.501,371.897z"/>
		<path fill="#58595B" d="M389.899,362.3c-0.328-0.055-0.684-0.082-1.066-0.082c-1.422,0-2.387,0.605-2.895,1.816v9h-2.168v-12.68
			h2.109l0.035,1.465c0.711-1.133,1.719-1.699,3.023-1.699c0.422,0,0.742,0.055,0.961,0.164V362.3z"/>
		<path fill="#58595B" d="M399.72,371.78c-0.844,0.992-2.082,1.488-3.715,1.488c-1.352,0-2.381-0.393-3.088-1.178
			s-1.064-1.947-1.072-3.486v-8.25h2.168v8.191c0,1.922,0.781,2.883,2.344,2.883c1.656,0,2.758-0.617,3.305-1.852v-9.223h2.168
			v12.68h-2.063L399.72,371.78z"/>
	</g>
</g>
</svg>
