<?xml version="1.0" encoding="utf-8"?>
<!-- Generator: Adobe Illustrator 14.0.0, SVG Export Plug-In . SVG Version: 6.00 Build 43363)  -->
<!DOCTYPE svg PUBLIC "-//W3C//DTD SVG 1.1//EN" "http://www.w3.org/Graphics/SVG/1.1/DTD/svg11.dtd">
<svg version="1.1" id="Layer_1" xmlns="http://www.w3.org/2000/svg" xmlns:xlink="http://www.w3.org/1999/xlink" x="0px" y="0px"
	 width="16px" height="16px" viewBox="0 0 16 16" enable-background="new 0 0 16 16" xml:space="preserve">
<path fill="#FFFFFF" d="M7.21,7.451H3.238C3.106,7.451,3,7.344,3,7.213l0,0V3.238C3,3.107,3.107,3,3.238,3H4.19
	c0.131,0,0.238,0.107,0.238,0.238v1.55c0.939-1.048,2.284-1.642,3.691-1.63C10.828,3.172,13.014,5.38,13,8.09
	c-0.006,2.717-2.215,4.914-4.931,4.907c-1.216-0.003-2.387-0.456-3.289-1.271c-0.098-0.089-0.106-0.24-0.018-0.338
	c0.002-0.003,0.005-0.006,0.008-0.009l0.674-0.674c0.089-0.089,0.231-0.093,0.325-0.011c1.442,1.278,3.648,1.145,4.925-0.299
	c0.566-0.639,0.878-1.463,0.877-2.317c0-1.928-1.563-3.49-3.489-3.491c-1.116,0-2.164,0.533-2.821,1.434H7.21
	c0.132,0,0.238,0.107,0.238,0.239v0.952C7.448,7.344,7.341,7.451,7.21,7.451z"/>
</svg>
