<?xml version="1.0" encoding="utf-8"?>
<!-- Generator: Adobe Illustrator 14.0.0, SVG Export Plug-In . SVG Version: 6.00 Build 43363)  -->
<!DOCTYPE svg PUBLIC "-//W3C//DTD SVG 1.1//EN" "http://www.w3.org/Graphics/SVG/1.1/DTD/svg11.dtd">
<svg version="1.1" id="Layer_1" xmlns="http://www.w3.org/2000/svg" xmlns:xlink="http://www.w3.org/1999/xlink" x="0px" y="0px"
	 width="24px" height="24px" viewBox="0 0 24 24" enable-background="new 0 0 24 24" xml:space="preserve">
<path fill="#909194" d="M7.155,12.372l6.468,6.474c0.207,0.207,0.543,0.207,0.75,0l0.872-0.865c0.206-0.203,0.208-0.535,0.005-0.74
	c-0.002-0.002-0.004-0.003-0.005-0.004L10.024,12l5.22-5.236c0.205-0.203,0.207-0.534,0.004-0.74
	c-0.001-0.001-0.002-0.003-0.004-0.004l-0.872-0.866c-0.208-0.206-0.542-0.206-0.749,0l-6.468,6.474
	c-0.205,0.203-0.207,0.534-0.004,0.74C7.152,12.369,7.153,12.371,7.155,12.372z"/>
</svg>
