<?xml version="1.0" encoding="utf-8"?>
<!-- Generator: Adobe Illustrator 14.0.0, SVG Export Plug-In . SVG Version: 6.00 Build 43363)  -->
<!DOCTYPE svg PUBLIC "-//W3C//DTD SVG 1.1//EN" "http://www.w3.org/Graphics/SVG/1.1/DTD/svg11.dtd">
<svg version="1.1" id="Layer_1" xmlns="http://www.w3.org/2000/svg" xmlns:xlink="http://www.w3.org/1999/xlink" x="0px" y="0px"
	 width="16px" height="16px" viewBox="0 0 16 16" enable-background="new 0 0 16 16" xml:space="preserve">
<path fill="#909194" d="M14.35,7.603C13.021,5.362,10.605,3.992,8,4C5.395,3.992,2.979,5.362,1.65,7.603c-0.2,0.34-0.2,0.76,0,1.1
	c1.33,2.24,3.745,3.611,6.35,3.604c2.605,0.008,5.021-1.363,6.35-3.604C14.55,8.363,14.55,7.943,14.35,7.603z M8,11.223
	c-2.222,0.009-4.283-1.159-5.417-3.07c1.036-1.747,2.855-2.882,4.879-3.047c0.487,0.5,0.476,1.301-0.024,1.788
	S6.137,7.369,5.65,6.869C5.42,6.632,5.292,6.316,5.292,5.986c-0.799,1.496-0.234,3.356,1.262,4.155s3.355,0.233,4.154-1.262
	c0.566-1.061,0.462-2.354-0.269-3.31c1.246,0.517,2.291,1.424,2.978,2.584C12.283,10.063,10.223,11.231,8,11.223z"/>
</svg>
