<?xml version="1.0" encoding="utf-8"?>
<!-- Generator: Adobe Illustrator 14.0.0, SVG Export Plug-In . SVG Version: 6.00 Build 43363)  -->
<!DOCTYPE svg PUBLIC "-//W3C//DTD SVG 1.1//EN" "http://www.w3.org/Graphics/SVG/1.1/DTD/svg11.dtd">
<svg version="1.1" id="Layer_1" xmlns="http://www.w3.org/2000/svg" xmlns:xlink="http://www.w3.org/1999/xlink" x="0px" y="0px"
	 width="24px" height="24px" viewBox="0 0 24 24" enable-background="new 0 0 24 24" xml:space="preserve">
<path fill="#C41230" d="M17.46,7.115l-6.866,7.189l-3.053-3.173c-0.141-0.148-0.375-0.154-0.523-0.013
	c-0.004,0.004-0.009,0.008-0.013,0.013L6.111,12.06c-0.148,0.156-0.148,0.401,0,0.557l4.215,4.379
	c0.141,0.148,0.375,0.154,0.523,0.013c0.004-0.004,0.009-0.009,0.013-0.013L18.889,8.6c0.148-0.156,0.148-0.401,0-0.557
	l-0.894-0.929c-0.142-0.148-0.375-0.154-0.523-0.013C17.467,7.105,17.463,7.109,17.46,7.115L17.46,7.115z"/>
</svg>
