<svg xmlns="http://www.w3.org/2000/svg" width="24" height="24" viewBox="0 0 24 24">
    <path fill="#909194" fill-rule="evenodd" d="M19.571 7H4.43A.429.429 0 0 1 4 6.571V5.43C4 5.192 4.192 5 4.429 5H19.57c.237 0 .429.192.429.429V6.57a.429.429 0 0 1-.429.429zm0 5.714H4.43A.429.429 0 0 1 4 12.286v-1.143c0-.237.192-.429.429-.429H19.57c.237 0 .429.192.429.429v1.143a.429.429 0 0 1-.429.428zm0 5.715H4.43A.429.429 0 0 1 4 18v-1.143c0-.237.192-.428.429-.428H19.57c.237 0 .429.191.429.428V18a.429.429 0 0 1-.429.429z"/>
</svg>
