<?xml version="1.0" encoding="utf-8"?>
<!-- Generator: Adobe Illustrator 14.0.0, SVG Export Plug-In . SVG Version: 6.00 Build 43363)  -->
<!DOCTYPE svg PUBLIC "-//W3C//DTD SVG 1.1//EN" "http://www.w3.org/Graphics/SVG/1.1/DTD/svg11.dtd">
<svg version="1.1" id="Layer_1" xmlns="http://www.w3.org/2000/svg" xmlns:xlink="http://www.w3.org/1999/xlink" x="0px" y="0px"
	 width="42px" height="56px" viewBox="0 0 42 56" enable-background="new 0 0 42 56" xml:space="preserve">
<path opacity="0.5" fill="#D1D3D4" enable-background="new    " d="M39.835,10.717L30.8,1.542C29.839,0.56,28.523,0.004,27.15,0
	H5.17C2.314,0.01,0,2.362,0,5.26v45.49C0,53.648,2.315,56,5.17,56h31.016c2.853,0,5.168-2.352,5.168-5.249V14.435
	C41.354,13.045,40.805,11.701,39.835,10.717z M37.402,13.199c0.226,0.23,0.375,0.503,0.451,0.81H27.568V3.564
	c0.303,0.076,0.572,0.23,0.798,0.46L37.402,13.199L37.402,13.199z M36.186,52.501H5.169c-0.947,0-1.723-0.788-1.723-1.75V5.26
	c0-0.962,0.776-1.75,1.723-1.75h18.954v11.373c0,1.454,1.152,2.625,2.585,2.625h11.2V50.75C37.908,51.712,37.132,52.5,36.186,52.501
	L36.186,52.501z M28.29,38.514c0.507,0.517,0.507,1.344,0,1.86l-0.614,0.623c-0.494,0.505-1.305,0.515-1.811,0.021
	c-0.006-0.008-0.013-0.014-0.02-0.021l-5.17-5.271l-5.18,5.26c-0.495,0.505-1.305,0.514-1.81,0.02
	c-0.007-0.006-0.014-0.014-0.02-0.02l-0.615-0.625c-0.506-0.516-0.506-1.342,0-1.858l5.18-5.26l-5.18-5.26
	c-0.505-0.516-0.505-1.342,0-1.858l0.614-0.624c0.494-0.505,1.305-0.514,1.81-0.02c0.007,0.007,0.013,0.013,0.02,0.02l5.18,5.26
	l5.181-5.26c0.493-0.506,1.304-0.516,1.81-0.022c0.007,0.007,0.015,0.015,0.022,0.022l0.613,0.624c0.506,0.517,0.506,1.343,0,1.859
	l-5.191,5.27L28.29,38.514L28.29,38.514z"/>
</svg>
