<?xml version="1.0" encoding="utf-8"?>
<!-- Generator: Adobe Illustrator 14.0.0, SVG Export Plug-In . SVG Version: 6.00 Build 43363)  -->
<!DOCTYPE svg PUBLIC "-//W3C//DTD SVG 1.1//EN" "http://www.w3.org/Graphics/SVG/1.1/DTD/svg11.dtd">
<svg version="1.1" id="Layer_1" xmlns="http://www.w3.org/2000/svg" xmlns:xlink="http://www.w3.org/1999/xlink" x="0px" y="0px"
	 width="16px" height="16px" viewBox="0 0 16 16" enable-background="new 0 0 16 16" xml:space="preserve">
<path fill="#909194" d="M14.904,14.286l-0.618,0.618c-0.128,0.128-0.335,0.129-0.464,0.001c0-0.001-0.001-0.001-0.002-0.001
	l-3.319-3.32c-0.062-0.062-0.096-0.145-0.095-0.232v-0.36c-2.375,2.054-5.966,1.794-8.021-0.581C1.491,9.377,0.999,8.055,1,6.687
	C1,3.547,3.545,1,6.685,1c0,0,0.001,0,0.002,0c3.14-0.002,5.688,2.542,5.69,5.682c0,1.368-0.491,2.689-1.386,3.724h0.36
	c0.088,0,0.17,0.035,0.232,0.095l3.32,3.319C15.032,13.949,15.033,14.156,14.904,14.286C14.904,14.285,14.904,14.285,14.904,14.286z
	 M11.063,6.687c0-2.416-1.958-4.375-4.374-4.375c0,0-0.001,0-0.002,0c-2.416,0-4.375,1.958-4.375,4.373c0,0,0,0.001,0,0.002
	c0,2.416,1.958,4.375,4.373,4.375c0,0,0.001,0,0.002,0c2.416,0,4.375-1.958,4.375-4.374C11.063,6.688,11.063,6.688,11.063,6.687z"/>
</svg>
