<?xml version="1.0" encoding="utf-8"?>
<!-- Generator: Adobe Illustrator 14.0.0, SVG Export Plug-In . SVG Version: 6.00 Build 43363)  -->
<!DOCTYPE svg PUBLIC "-//W3C//DTD SVG 1.1//EN" "http://www.w3.org/Graphics/SVG/1.1/DTD/svg11.dtd">
<svg version="1.1" id="Layer_1" xmlns="http://www.w3.org/2000/svg" xmlns:xlink="http://www.w3.org/1999/xlink" x="0px" y="0px"
	 width="16px" height="16px" viewBox="0 0 16 16" enable-background="new 0 0 16 16" xml:space="preserve">
<path fill="#0072BC" d="M4.897,12.633l-2.124,2.25c-0.142,0.15-0.379,0.158-0.53,0.016c-0.005-0.005-0.011-0.01-0.016-0.016
	l-2.124-2.25c-0.143-0.15-0.136-0.388,0.014-0.529C0.187,12.037,0.279,12,0.375,12H1.75V1.375C1.75,1.168,1.918,1,2.125,1h0.75
	C3.082,1,3.25,1.168,3.25,1.375V12h1.375C4.955,12,5.121,12.396,4.897,12.633z M7.375,4.25h8.25C15.832,4.25,16,4.082,16,3.875
	v-0.75c0-0.207-0.168-0.375-0.375-0.375h-8.25C7.168,2.75,7,2.918,7,3.125v0.75C7,4.082,7.168,4.25,7.375,4.25z M7,6.875v-0.75
	C7,5.918,7.168,5.75,7.375,5.75h6.25C13.832,5.75,14,5.918,14,6.125v0.75c0,0.207-0.168,0.375-0.375,0.375l0,0h-6.25
	C7.168,7.25,7,7.082,7,6.875L7,6.875z M7,12.875v-0.75c0-0.207,0.168-0.375,0.375-0.375h2.25c0.207,0,0.375,0.168,0.375,0.375v0.75
	c0,0.207-0.168,0.375-0.375,0.375h-2.25C7.168,13.25,7,13.082,7,12.875z M7,9.875v-0.75C7,8.918,7.168,8.75,7.375,8.75h4.25
	C11.832,8.75,12,8.918,12,9.125v0.75c0,0.207-0.168,0.375-0.375,0.375h-4.25C7.168,10.25,7,10.082,7,9.875z"/>
</svg>
