<svg xmlns="http://www.w3.org/2000/svg" width="16" height="16" viewBox="0 0 16 16">
    <path fill="#909194" fill-rule="evenodd" d="M4.897 12.633l-2.124 2.25a.375.375 0 0 1-.546 0l-2.124-2.25A.375.375 0 0 1 .375 12H1.75V1.375c0-.207.168-.375.375-.375h.75c.207 0 .375.168.375.375V12h1.375c.33 0 .496.396.272.633zM7.375 4.25h8.25A.375.375 0 0 0 16 3.875v-.75a.375.375 0 0 0-.375-.375h-8.25A.375.375 0 0 0 7 3.125v.75c0 .207.168.375.375.375zM7 6.875v-.75c0-.207.168-.375.375-.375h6.25c.207 0 .375.168.375.375v.75a.375.375 0 0 1-.375.375h-6.25A.375.375 0 0 1 7 6.875zm0 6v-.75c0-.207.168-.375.375-.375h2.25c.207 0 .375.168.375.375v.75a.375.375 0 0 1-.375.375h-2.25A.375.375 0 0 1 7 12.875zm0-3v-.75c0-.207.168-.375.375-.375h4.25c.207 0 .375.168.375.375v.75a.375.375 0 0 1-.375.375h-4.25A.375.375 0 0 1 7 9.875z"/>
</svg>
