<svg xmlns="http://www.w3.org/2000/svg" width="16" height="14" viewBox="0 0 16 14">
    <path fill="#0072BC" fill-rule="evenodd" d="M0 1.5v11A1.5 1.5 0 0 0 1.5 14h13a1.5 1.5 0 0 0 1.5-1.5v-11A1.5 1.5 0 0 0 14.5 0h-13A1.5 1.5 0 0 0 0 1.5zm14.75 7h-3.667v-3h3.667v3zm-4.917 0H6.167v-3h3.666v3zm0 1.25v3H6.167v-3h3.666zM1.25 5.5h3.667v3H1.25v-3zm4.917-1.25v-3h3.666v3H6.167zm-1.25-3v3H1.25V1.625c0-.207.168-.375.375-.375h3.292zM1.25 9.75h3.667v3H1.625a.375.375 0 0 1-.375-.375V9.75zm9.833 3v-3h3.667v3h-3.667zm3.667-8.5h-3.667v-3h3.667v3z"/>
</svg>
