<svg xmlns="http://www.w3.org/2000/svg" width="24" height="24" viewBox="0 0 24 24">
    <path fill="#909194" fill-rule="evenodd" d="M16.375 11.656v1.203a.517.517 0 0 1-.516.516H8.641a.517.517 0 0 1-.516-.516v-1.203c0-.283.232-.515.516-.515h7.218c.284 0 .516.232.516.515zm-.516 3.094H8.641a.517.517 0 0 0-.516.516v1.203c0 .283.232.515.516.515h7.218a.517.517 0 0 0 .516-.515v-1.203a.517.517 0 0 0-.516-.516zM20.5 6.668v14.27A2.063 2.063 0 0 1 18.437 23H6.063A2.063 2.063 0 0 1 4 20.937V3.063C4 1.925 4.924 1 6.063 1h8.77c.545 0 1.07.22 1.456.606l3.605 3.605c.387.382.606.91.606 1.457zM15 3.23V6.5h3.27L15 3.23zm3.438 17.707V8.563h-4.47c-.57 0-1.03-.46-1.03-1.03v-4.47H6.061v17.875h12.375z"/>
</svg>
