<svg xmlns="http://www.w3.org/2000/svg" width="24" height="24" viewBox="0 0 24 24">
    <path fill="#909194" fill-rule="evenodd" d="M21 16.372V3.25C21 2.537 20.472 2 19.876 2c-.112 0-.226.019-.34.059L8.85 5.809c-.468.164-.788.644-.788 1.191v9.184a3.545 3.545 0 0 0-1.687-.434C4.51 15.75 3 17.15 3 18.875 3 20.601 4.511 22 6.375 22c1.735 0 3.148-1.217 3.337-2.777.023-.106.036-.218.036-.337l.002-.011V12l9.562-3.355v5.038a3.548 3.548 0 0 0-1.687-.433c-1.864 0-3.375 1.4-3.375 3.125 0 1.726 1.51 3.125 3.375 3.125 1.735 0 3.148-1.218 3.337-2.779.022-.1.033-.208.035-.32 0-.01.003-.017.003-.026v-.003zM6.305 20.163c-.974 0-1.653-.645-1.653-1.224 0-.58.679-1.225 1.653-1.225s1.653.645 1.653 1.225c0 .58-.679 1.224-1.653 1.224zM19.346 6.61l-9.55 3.35V7.39l9.55-3.35v2.57zm0 9.676c0 .58-.678 1.224-1.652 1.224-.974 0-1.653-.645-1.653-1.224 0-.58.679-1.225 1.653-1.225s1.653.645 1.653 1.224v.001z"/>
</svg>
