<svg xmlns="http://www.w3.org/2000/svg" width="24" height="24" viewBox="0 0 24 24">
    <path fill="#909194" fill-rule="evenodd" d="M20.125 3H3.875C2.839 3 2 4.007 2 5.25v13.5C2 19.993 2.84 21 3.875 21h16.25C21.161 21 22 19.993 22 18.75V5.25C22 4.007 21.16 3 20.125 3zm-.356 16H4.231C4.103 19 4 18.87 4 18.708V5.292C4 5.13 4.103 5 4.23 5h15.54c.127 0 .23.13.23.292v13.416c0 .161-.103.292-.23.292zM7.5 8a1.5 1.5 0 1 0 0 3 1.5 1.5 0 0 0 0-3zM6 17h12v-3.742l-3.282-4.094c-.176-.219-.46-.219-.636 0L9.6 14.754l-1.482-1.848c-.176-.219-.46-.219-.636 0L6 14.755V17z"/>
</svg>
