<svg xmlns="http://www.w3.org/2000/svg" width="24" height="24" viewBox="0 0 24 24">
    <path fill="#909194" fill-rule="evenodd" d="M21.83 6.167c-.226 0-.456.065-.664.207l-4 2.494V6.743c0-.963-.845-1.743-1.888-1.743H3.888C2.847 5 2 5.78 2 6.743v10.514C2 18.22 2.846 19 3.889 19h11.39c1.042 0 1.888-.78 1.888-1.743v-2.125l4 2.49c.207.146.44.208.663.208.605 0 1.17-.474 1.17-1.149V7.315c0-.674-.565-1.148-1.17-1.148zm-6.719 3.889v6.906a.227.227 0 0 1-.132.038H4.132A.204.204 0 0 1 4 16.962V7.038A.227.227 0 0 1 4.132 7h10.847c.07 0 .111.02.132.038v3.018zM21 15.5l-3.556-2.813V10.65L21 8.615V15.5z"/>
</svg>
