<?xml version="1.0" encoding="utf-8"?>
<!-- Generator: Adobe Illustrator 14.0.0, SVG Export Plug-In . SVG Version: 6.00 Build 43363)  -->
<!DOCTYPE svg PUBLIC "-//W3C//DTD SVG 1.1//EN" "http://www.w3.org/Graphics/SVG/1.1/DTD/svg11.dtd">
<svg version="1.1" id="Layer_1" xmlns="http://www.w3.org/2000/svg" xmlns:xlink="http://www.w3.org/1999/xlink" x="0px" y="0px"
	 width="24px" height="24px" viewBox="0 0 24 24" enable-background="new 0 0 24 24" xml:space="preserve">
<path fill="#FFFFFF" d="M11.628,7.955l-6.474,6.468c-0.207,0.207-0.207,0.543,0,0.75l0.865,0.872
	c0.203,0.206,0.535,0.208,0.74,0.005c0.002-0.002,0.003-0.004,0.004-0.005L12,10.824l5.236,5.22
	c0.203,0.205,0.534,0.207,0.739,0.004c0.002-0.001,0.004-0.002,0.005-0.004l0.866-0.872c0.205-0.208,0.205-0.542,0-0.749
	l-6.474-6.468c-0.203-0.205-0.534-0.207-0.74-0.004C11.631,7.952,11.63,7.953,11.628,7.955z"/>
</svg>
