<?xml version="1.0" encoding="utf-8"?>
<!-- Generator: Adobe Illustrator 14.0.0, SVG Export Plug-In . SVG Version: 6.00 Build 43363)  -->
<!DOCTYPE svg PUBLIC "-//W3C//DTD SVG 1.1//EN" "http://www.w3.org/Graphics/SVG/1.1/DTD/svg11.dtd">
<svg version="1.1" id="Layer_1" xmlns="http://www.w3.org/2000/svg" xmlns:xlink="http://www.w3.org/1999/xlink" x="0px" y="0px"
	 width="16px" height="16px" viewBox="0 0 16 16" enable-background="new 0 0 16 16" xml:space="preserve">
<path fill="#FFFFFF" d="M14.9,11.614c-0.566-0.608-1.625-1.523-1.625-4.521c0-2.277-1.596-4.099-3.748-4.546v-0.61
	c0-0.518-0.42-0.937-0.938-0.937c-0.517,0-0.937,0.419-0.937,0.937v0.61c-2.152,0.447-3.748,2.27-3.748,4.546
	c0,2.997-1.06,3.912-1.625,4.521c-0.163,0.171-0.254,0.399-0.253,0.636c0.004,0.48,0.38,0.938,0.94,0.938h11.245
	c0.56,0,0.937-0.457,0.94-0.938C15.153,12.014,15.063,11.785,14.9,11.614z M4.006,11.781c0.621-0.82,1.301-2.178,1.304-4.67
	L5.309,7.094c0-1.812,1.469-3.281,3.281-3.281c1.813,0,3.281,1.469,3.281,3.281l-0.002,0.017c0.004,2.493,0.684,3.851,1.305,4.67
	H4.006z M8.59,16c1.035,0,1.874-0.84,1.874-1.875H6.716C6.716,15.161,7.556,16,8.59,16z"/>
</svg>
