<?xml version="1.0" encoding="utf-8"?>
<!-- Generator: Adobe Illustrator 14.0.0, SVG Export Plug-In . SVG Version: 6.00 Build 43363)  -->
<!DOCTYPE svg PUBLIC "-//W3C//DTD SVG 1.1//EN" "http://www.w3.org/Graphics/SVG/1.1/DTD/svg11.dtd">
<svg version="1.1" id="Layer_1" xmlns="http://www.w3.org/2000/svg" xmlns:xlink="http://www.w3.org/1999/xlink" x="0px" y="0px"
	 width="16px" height="16px" viewBox="0 0 16 16" enable-background="new 0 0 16 16" xml:space="preserve">
<path fill="#FFFFFF" d="M7.635,0c-2.385,0-4.08,0.987-5.38,2.916c-0.444,0.66-0.295,1.553,0.339,2.033l1.313,0.996
	C4.558,6.439,5.485,6.32,5.991,5.679c0.671-0.85,0.887-1,1.442-1c0.32,0,0.79,0.22,0.79,0.571c0,0.804-3.416,0.648-3.416,3.82V9.5
	c0,0.5,0.247,0.943,0.624,1.216C4.76,11.285,4.374,12.12,4.374,13c0,1.654,1.346,3,3,3c1.655,0,3-1.346,3-3
	c0-0.914-0.41-1.732-1.056-2.284C9.695,10.443,9.941,10,9.941,9.5V9.354C10.734,8.76,13.2,7.963,13.2,4.996
	C13.2,2.15,10.385,0,7.635,0z M7.375,15c-1.103,0-2-0.896-2-2s0.897-2,2-2c1.102,0,2,0.896,2,2S8.477,15,7.375,15z M8.941,9.175V9.5
	c0,0.276-0.223,0.5-0.5,0.5H6.307c-0.276,0-0.5-0.224-0.5-0.5V9.07c0-2.712,3.416-1.792,3.416-3.82c0-1-0.99-1.57-1.79-1.57
	c-1.056,0-1.537,0.506-2.227,1.379C5.038,5.272,4.729,5.312,4.512,5.148L3.198,4.152c-0.211-0.16-0.261-0.458-0.113-0.678
	C4.152,1.891,5.51,1,7.635,1C9.843,1,12.2,2.724,12.2,4.996C12.2,8.013,8.941,8.06,8.941,9.175z"/>
</svg>
