<?xml version="1.0" encoding="utf-8"?>
<!-- Generator: Adobe Illustrator 14.0.0, SVG Export Plug-In . SVG Version: 6.00 Build 43363)  -->
<!DOCTYPE svg PUBLIC "-//W3C//DTD SVG 1.1//EN" "http://www.w3.org/Graphics/SVG/1.1/DTD/svg11.dtd">
<svg version="1.1" id="Layer_1" xmlns="http://www.w3.org/2000/svg" xmlns:xlink="http://www.w3.org/1999/xlink" x="0px" y="0px"
	 width="16px" height="16px" viewBox="0 0 16 16" enable-background="new 0 0 16 16" xml:space="preserve">
<g>
	<g>
		<path fill="#E1E4E8" d="M8,1C4.133,1,1,4.133,1,8s3.133,7,7,7s7-3.133,7-7S11.867,1,8,1z M11.613,12.9
			C10.568,13.676,9.303,14.096,8,14.098c-1.352,0-2.6-0.449-3.613-1.197v-0.385c0-0.996,0.81-1.806,1.807-1.806
			c0.313,0,0.776,0.321,1.806,0.321c1.033,0,1.49-0.321,1.807-0.321c0.996,0,1.807,0.81,1.807,1.806V12.9L11.613,12.9z
			 M12.477,12.124c-0.188-1.329-1.326-2.315-2.67-2.317c-0.58,0-0.859,0.321-1.807,0.321c-0.948,0-1.225-0.321-1.806-0.321
			c-1.342,0.002-2.48,0.988-2.67,2.317C2.483,11.003,1.904,9.529,1.903,8C1.907,4.634,4.634,1.907,8,1.903
			C11.365,1.907,14.094,4.634,14.098,8C14.098,9.529,13.518,11.003,12.477,12.124z M8,4.16c-1.373,0-2.485,1.112-2.485,2.485
			S6.627,9.13,8,9.13c1.372,0,2.484-1.112,2.484-2.484S9.372,4.162,8,4.162l0,0V4.16z M8,8.225C7.127,8.187,6.45,7.449,6.488,6.576
			C6.524,5.756,7.18,5.1,8,5.064c0.873,0.044,1.545,0.787,1.5,1.66C9.459,7.535,8.811,8.183,8,8.225L8,8.225z"/>
		<path opacity="0.5" fill="#E1E4E8" enable-background="new    " d="M8,1C4.133,1,1,4.133,1,8s3.133,7,7,7s7-3.133,7-7
			S11.867,1,8,1z M11.613,12.9C10.568,13.676,9.303,14.096,8,14.098c-1.352,0-2.6-0.449-3.613-1.197v-0.385
			c0-0.996,0.81-1.806,1.807-1.806c0.313,0,0.776,0.321,1.806,0.321c1.033,0,1.49-0.321,1.807-0.321c0.996,0,1.807,0.81,1.807,1.806
			V12.9L11.613,12.9z M12.477,12.124c-0.188-1.329-1.326-2.315-2.67-2.317c-0.58,0-0.859,0.321-1.807,0.321
			c-0.948,0-1.225-0.321-1.806-0.321c-1.342,0.002-2.48,0.988-2.67,2.317C2.483,11.003,1.904,9.529,1.903,8
			C1.907,4.634,4.634,1.907,8,1.903C11.365,1.907,14.094,4.634,14.098,8C14.098,9.529,13.518,11.003,12.477,12.124z M8,4.16
			c-1.373,0-2.485,1.112-2.485,2.485S6.627,9.13,8,9.13c1.372,0,2.484-1.112,2.484-2.484S9.372,4.162,8,4.162l0,0V4.16z M8,8.225
			C7.127,8.187,6.45,7.449,6.488,6.576C6.524,5.756,7.18,5.1,8,5.064c0.873,0.044,1.545,0.787,1.5,1.66
			C9.459,7.535,8.811,8.183,8,8.225L8,8.225z"/>
	</g>
</g>
</svg>
