<?xml version="1.0" encoding="utf-8"?>
<!-- Generator: Adobe Illustrator 14.0.0, SVG Export Plug-In . SVG Version: 6.00 Build 43363)  -->
<!DOCTYPE svg PUBLIC "-//W3C//DTD SVG 1.1//EN" "http://www.w3.org/Graphics/SVG/1.1/DTD/svg11.dtd">
<svg version="1.1" id="Layer_1" xmlns="http://www.w3.org/2000/svg" xmlns:xlink="http://www.w3.org/1999/xlink" x="0px" y="0px"
	 width="16px" height="16px" viewBox="0 0 16 16" enable-background="new 0 0 16 16" xml:space="preserve">
<path fill="#0072BC" d="M13,14h-2.625C10.168,14,10,13.832,10,13.625v-0.75c0-0.206,0.169-0.375,0.375-0.375H13
	c0.828,0,1.5-0.672,1.5-1.5V5c0-0.829-0.672-1.5-1.5-1.5h-2.625C10.168,3.5,10,3.332,10,3.125v-0.75C10,2.169,10.169,2,10.375,2H13
	c1.656,0,3,1.343,3,3v6C16,12.656,14.656,14,13,14z M5.222,2.61L4.609,3.222C4.463,3.365,4.461,3.6,4.605,3.745
	c0.003,0.004,0.007,0.007,0.011,0.011L8.15,7.188H0.375C0.168,7.188,0,7.356,0,7.563v0.875c0,0.207,0.169,0.375,0.375,0.375H8.15
	l-3.534,3.429c-0.149,0.144-0.154,0.382-0.009,0.531c0,0.001,0.001,0.002,0.002,0.003l0.613,0.611
	c0.146,0.146,0.384,0.147,0.53,0.001l0-0.001l5.138-5.125c0.146-0.146,0.146-0.384,0-0.53L5.753,2.605
	C5.605,2.46,5.368,2.462,5.222,2.608V2.61z"/>
</svg>
