<?xml version="1.0" encoding="utf-8"?>
<!-- Generator: Adobe Illustrator 14.0.0, SVG Export Plug-In . SVG Version: 6.00 Build 43363)  -->
<!DOCTYPE svg PUBLIC "-//W3C//DTD SVG 1.1//EN" "http://www.w3.org/Graphics/SVG/1.1/DTD/svg11.dtd">
<svg version="1.1" id="Layer_1" xmlns="http://www.w3.org/2000/svg" xmlns:xlink="http://www.w3.org/1999/xlink" x="0px" y="0px"
	 width="16px" height="16px" viewBox="0 0 16 16" enable-background="new 0 0 16 16" xml:space="preserve">
<path fill="#FFFFFF" d="M2.497,2h4.117C6.82,2,6.988,2.168,6.988,2.374v0.25c0,0.206-0.167,0.374-0.374,0.374H2.497
	c-0.276,0-0.499,0.224-0.499,0.5v8.982c0,0.275,0.224,0.498,0.5,0.498h4.116c0.206,0,0.374,0.168,0.374,0.375v0.25
	c0,0.206-0.167,0.373-0.374,0.373H2.497C1.671,13.977,1,13.307,1,12.48V3.497C1,2.671,1.67,2,2.497,2z M9.199,2.608L8.977,2.83
	c-0.146,0.146-0.146,0.383,0,0.53l4.117,4.098h-6.73c-0.206,0-0.373,0.167-0.374,0.374v0.312c0,0.206,0.169,0.375,0.375,0.375h6.731
	L8.98,12.617c-0.146,0.146-0.146,0.383,0,0.529l0.22,0.222c0.146,0.146,0.384,0.147,0.53,0.001v-0.001l5.131-5.115
	c0.146-0.146,0.146-0.383,0-0.53L9.73,2.608C9.584,2.462,9.346,2.462,9.199,2.608L9.199,2.608z"/>
</svg>
