<?xml version="1.0" encoding="utf-8"?>
<!-- Generator: Adobe Illustrator 14.0.0, SVG Export Plug-In . SVG Version: 6.00 Build 43363)  -->
<!DOCTYPE svg PUBLIC "-//W3C//DTD SVG 1.1//EN" "http://www.w3.org/Graphics/SVG/1.1/DTD/svg11.dtd">
<svg version="1.1" id="Layer_1" xmlns="http://www.w3.org/2000/svg" xmlns:xlink="http://www.w3.org/1999/xlink" x="0px" y="0px"
	 width="14px" height="14px" viewBox="0 0 14 14" enable-background="new 0 0 14 14" xml:space="preserve">
<path fill="#E1E4E8" d="M7,8.414L1.684,13.73c-0.188,0.188-0.477,0.205-0.644,0.037L0.232,12.96
	c-0.167-0.167-0.15-0.456,0.038-0.644L5.586,7L0.27,1.684C0.082,1.496,0.065,1.207,0.232,1.04L1.04,0.232
	c0.167-0.167,0.456-0.15,0.644,0.038L7,5.586l5.316-5.316c0.188-0.188,0.477-0.205,0.644-0.038l0.808,0.808
	c0.168,0.167,0.15,0.456-0.037,0.644L8.414,7l5.316,5.316c0.188,0.188,0.205,0.477,0.037,0.644l-0.808,0.808
	c-0.167,0.168-0.456,0.15-0.644-0.037L7,8.414z"/>
</svg>
