<?xml version="1.0" encoding="utf-8"?>
<!-- Generator: Adobe Illustrator 14.0.0, SVG Export Plug-In . SVG Version: 6.00 Build 43363)  -->
<!DOCTYPE svg PUBLIC "-//W3C//DTD SVG 1.1//EN" "http://www.w3.org/Graphics/SVG/1.1/DTD/svg11.dtd">
<svg version="1.1" id="Layer_1" xmlns="http://www.w3.org/2000/svg" xmlns:xlink="http://www.w3.org/1999/xlink" x="0px" y="0px"
	 width="12.545px" height="11.99px" viewBox="0 0 12.545 11.99" enable-background="new 0 0 12.545 11.99" xml:space="preserve">
<g>
	<path fill="#D22856" d="M6.235,11.99c-0.212,0-0.412-0.091-0.553-0.249C1.885,7.417,1.039,6.443,0.825,6.169H0.821
		C0.292,5.494,0,4.651,0,3.796c0-2.095,1.704-3.799,3.799-3.799c0.936,0,1.806,0.32,2.484,0.898c0.696-0.578,1.56-0.898,2.463-0.898
		c2.095,0,3.799,1.704,3.799,3.799c0,0.909-0.316,1.754-0.896,2.381l-4.86,5.563C6.648,11.899,6.447,11.99,6.235,11.99L6.235,11.99z
		 M1.99,5.284c0.208,0.255,2.471,2.839,4.243,4.857l4.322-4.943c0.341-0.369,0.521-0.86,0.521-1.399c0-1.285-1.045-2.331-2.33-2.331
		c-0.729,0-1.421,0.345-1.899,0.943C6.704,2.589,6.493,2.677,6.26,2.686C6.034,2.682,5.822,2.575,5.685,2.391
		c-0.44-0.587-1.129-0.925-1.888-0.925c-1.284,0-2.33,1.046-2.33,2.331c0,0.678,0.275,1.171,0.508,1.467
		C1.98,5.271,1.986,5.277,1.99,5.284z"/>
</g>
<path d="M14.105-25.505"/>
</svg>
