<?xml version="1.0" encoding="utf-8"?>
<!-- Generator: Adobe Illustrator 14.0.0, SVG Export Plug-In . SVG Version: 6.00 Build 43363)  -->
<!DOCTYPE svg PUBLIC "-//W3C//DTD SVG 1.1//EN" "http://www.w3.org/Graphics/SVG/1.1/DTD/svg11.dtd">
<svg version="1.1" id="Layer_1" xmlns="http://www.w3.org/2000/svg" xmlns:xlink="http://www.w3.org/1999/xlink" x="0px" y="0px"
	 width="31.92px" height="31.92px" viewBox="0 0 31.92 31.92" enable-background="new 0 0 31.92 31.92" xml:space="preserve">
<path d="M16.038,4c6.595,0,11.96,5.365,11.96,11.96s-5.365,11.96-11.96,11.96s-11.96-5.365-11.96-11.96S9.443,4,16.038,4 M16.038,0
	C7.224,0,0.078,7.145,0.078,15.96c0,8.813,7.146,15.96,15.96,15.96c8.814,0,15.96-7.146,15.96-15.96C31.998,7.145,24.852,0,16.038,0
	L16.038,0z"/>
<path d="M16.038,24.291c4.706,0,8.521-3.813,8.521-8.52c0-4.705-3.813-8.519-8.521-8.519V24.291z"/>
</svg>
