<svg xmlns="http://www.w3.org/2000/svg" width="24" height="24" viewBox="-273.64 420.945 24 24"><path fill="#91229A" d="M-249.779 429.313a.734.734 0 0 0-.598-.311l-17.778-3.169v-2.463c-.08-1.022-.186-1.506-1.072-1.801l-3.678-.75c-.407 0-.736.334-.736.75s.329 1.029.736 1.029l2.972.75v15.86c.029.736.606 1.208 1.816 1.297h.794a3.022 3.022 0 0 0-.303 1.316c0 1.652 1.32 2.998 2.943 2.998s2.942-1.346 2.942-2.998c0-.473-.111-.918-.303-1.316h6.653a3.036 3.036 0 0 0-.303 1.316c0 1.652 1.32 2.998 2.943 2.998 1.622 0 2.941-1.346 2.941-2.998 0-1.653-1.319-2.998-2.941-2.998h-15.406V437.1h17.723c.314 0 .652-.207.752-.512v-6.6a.744.744 0 0 0-.097-.675zm-14.903 13.584c-.583 0-1.055-.481-1.055-1.075s.472-1.074 1.055-1.074c.581 0 1.055.48 1.055 1.074s-.474 1.075-1.055 1.075zm11.933-.049a1.016 1.016 0 0 1-1.008-1.025c0-.565.45-1.025 1.008-1.025.556 0 1.009.46 1.009 1.025 0 .566-.453 1.025-1.009 1.025zm1.123-7.71h-16.529v-7.301l16.529 2.769v4.532z"/></svg>