<?xml version="1.0" encoding="utf-8"?>
<!-- Generator: Adobe Illustrator 14.0.0, SVG Export Plug-In . SVG Version: 6.00 Build 43363)  -->
<!DOCTYPE svg PUBLIC "-//W3C//DTD SVG 1.1//EN" "http://www.w3.org/Graphics/SVG/1.1/DTD/svg11.dtd">
<svg version="1.1" id="Layer_1" xmlns="http://www.w3.org/2000/svg" xmlns:xlink="http://www.w3.org/1999/xlink" x="0px" y="0px"
	 width="24px" height="24px" viewBox="-273.64 420.945 24 24" enable-background="new -273.64 420.945 24 24" xml:space="preserve">
<path fill="#91229A" d="M-249.779,429.313c-0.138-0.195-0.361-0.311-0.598-0.311l-17.778-3.169v-2.463
	c-0.08-1.022-0.186-1.506-1.072-1.801l-3.678-0.75c-0.407,0-0.736,0.334-0.736,0.75s0.329,1.029,0.736,1.029l2.972,0.75v15.86
	c0.029,0.736,0.606,1.208,1.816,1.297h0.794c-0.192,0.398-0.303,0.844-0.303,1.316c0,1.652,1.32,2.998,2.943,2.998
	c1.623,0,2.942-1.346,2.942-2.998c0-0.473-0.111-0.918-0.303-1.316h6.653c-0.191,0.398-0.303,0.844-0.303,1.316
	c0,1.652,1.32,2.998,2.943,2.998c1.622,0,2.941-1.346,2.941-2.998c0-1.653-1.319-2.998-2.941-2.998h-15.406V437.1h17.723
	c0.314,0,0.652-0.207,0.752-0.512v-6.6C-249.602,429.76-249.641,429.508-249.779,429.313z M-264.682,442.897
	c-0.583,0-1.055-0.481-1.055-1.075s0.472-1.074,1.055-1.074c0.581,0,1.055,0.48,1.055,1.074S-264.101,442.897-264.682,442.897z
	 M-252.749,442.848c-0.558,0-1.008-0.459-1.008-1.025c0-0.565,0.45-1.025,1.008-1.025c0.556,0,1.009,0.46,1.009,1.025
	C-251.74,442.389-252.193,442.848-252.749,442.848z M-251.626,435.138h-16.529v-7.301l16.529,2.769V435.138z"/>
</svg>
