<?xml version="1.0" encoding="utf-8"?>
<!-- Generator: Adobe Illustrator 14.0.0, SVG Export Plug-In . SVG Version: 6.00 Build 43363)  -->
<!DOCTYPE svg PUBLIC "-//W3C//DTD SVG 1.1//EN" "http://www.w3.org/Graphics/SVG/1.1/DTD/svg11.dtd">
<svg version="1.1" id="Layer_1" xmlns="http://www.w3.org/2000/svg" xmlns:xlink="http://www.w3.org/1999/xlink" x="0px" y="0px"
	 width="24px" height="24px" viewBox="-273.64 420.945 24 24" enable-background="new -273.64 420.945 24 24" xml:space="preserve">
<path fill="#FFFFFF" d="M-249.779,429.313c-0.138-0.195-0.361-0.311-0.598-0.311l-17.4-3.102v-2.53
	c-0.08-1.022-0.564-1.506-1.45-1.801l-3.678-0.75c-0.407,0-0.736,0.334-0.736,0.75s0.329,1.029,0.736,1.029l2.972,0.75v15.86
	c0.029,0.736,0.606,1.586,1.816,1.675h0.653c-0.097,0.297-0.162,0.608-0.162,0.938c0,1.652,1.32,2.998,2.943,2.998
	c1.623,0,2.942-1.346,2.942-2.998c0-0.33-0.065-0.642-0.162-0.938h6.372c-0.097,0.297-0.162,0.608-0.162,0.938
	c0,1.652,1.32,2.998,2.943,2.998c1.622,0,2.941-1.346,2.941-2.998c0-1.653-1.319-2.998-2.941-2.998h-15.028V437.1h17.345
	c0.314,0,0.652-0.207,0.752-0.512v-6.6C-249.602,429.76-249.641,429.508-249.779,429.313z M-263.627,441.822
	c0,0.594-0.474,1.075-1.055,1.075c-0.583,0-1.055-0.481-1.055-1.075c0-0.412,0.235-0.758,0.569-0.938h0.971
	C-263.863,441.064-263.627,441.41-263.627,441.822z M-252.749,442.848c-0.558,0-1.008-0.459-1.008-1.025
	c0-0.42,0.25-0.78,0.606-0.938h0.803c0.356,0.158,0.607,0.519,0.607,0.938C-251.74,442.389-252.193,442.848-252.749,442.848z
	 M-251.626,434.76h-16.151v-6.481l16.151,2.705V434.76z"/>
</svg>
