<svg xmlns="http://www.w3.org/2000/svg" width="20" height="24" viewBox="51.492 123.305 20 24"><path fill="#214F9C" d="M71.49 128.592l-.001-.005c0-.01-.002-.019-.004-.028l-.003-.009-.005-.024-.004-.011-.007-.021-.005-.01a.2.2 0 0 0-.01-.021l-.006-.011a.174.174 0 0 0-.011-.018l-.008-.011-.012-.016-.011-.012a.106.106 0 0 0-.01-.012l-4.88-4.974-.002-.002a.166.166 0 0 0-.014-.013.057.057 0 0 1-.011-.011l-.024-.018-.003-.002a.35.35 0 0 0-.197-.06H56.74c-.965 0-1.749.779-1.749 1.736v2.003a.343.343 0 0 0-.096-.014h-1.654c-.965 0-1.75.779-1.75 1.736v16.802c0 .957.785 1.736 1.75 1.736h13.001c.965 0 1.75-.779 1.75-1.737v-1.643a.346.346 0 0 0-.336-.346h2.086c.965 0 1.75-.779 1.75-1.737v-13.208c0-.011 0-.025-.002-.039zm-4.878-4.085l3.701 3.772h-3.701v-3.772zm.68 19.419v1.643c0 .574-.471 1.042-1.05 1.042H53.241c-.579 0-1.05-.468-1.05-1.042v-16.801c0-.574.471-1.042 1.05-1.042h1.654a.377.377 0 0 0 .096-.013v14.13c0 .958.784 1.737 1.749 1.737h10.889a.347.347 0 0 0-.337.346zm2.45-1.041H56.74a1.046 1.046 0 0 1-1.049-1.042v-16.801c0-.575.47-1.042 1.049-1.042h9.172v4.626c0 .192.157.347.35.347h4.53v12.869c0 .575-.472 1.043-1.05 1.043z"/></svg>