<?xml version="1.0" encoding="utf-8"?>
<!-- Generator: Adobe Illustrator 14.0.0, SVG Export Plug-In . SVG Version: 6.00 Build 43363)  -->
<!DOCTYPE svg PUBLIC "-//W3C//DTD SVG 1.1//EN" "http://www.w3.org/Graphics/SVG/1.1/DTD/svg11.dtd">
<svg version="1.1" id="Capa_1" xmlns="http://www.w3.org/2000/svg" xmlns:xlink="http://www.w3.org/1999/xlink" x="0px" y="0px"
	 width="9px" height="9px" viewBox="191.623 191.031 9 9" enable-background="new 191.623 191.031 9 9" xml:space="preserve">
<g>
	<path fill="#FFFFFF" d="M200.356,198.727c0.293,0.293,0.293,0.769,0,1.061c-0.293,0.293-0.769,0.293-1.062,0l-3.179-3.18
		l-3.202,3.202c-0.295,0.295-0.774,0.295-1.069,0c-0.295-0.296-0.295-0.774,0-1.069l3.202-3.202l-3.18-3.18
		c-0.293-0.293-0.293-0.769,0-1.062c0.293-0.293,0.768-0.293,1.061,0l3.18,3.18l3.225-3.225c0.295-0.295,0.774-0.295,1.069,0
		c0.295,0.296,0.295,0.774,0,1.069l-3.225,3.225L200.356,198.727z"/>
</g>
</svg>
