<?xml version="1.0" encoding="utf-8"?>
<!-- Generator: Adobe Illustrator 14.0.0, SVG Export Plug-In . SVG Version: 6.00 Build 43363)  -->
<!DOCTYPE svg PUBLIC "-//W3C//DTD SVG 1.1//EN" "http://www.w3.org/Graphics/SVG/1.1/DTD/svg11.dtd">
<svg version="1.1" id="Layer_1" xmlns="http://www.w3.org/2000/svg" xmlns:xlink="http://www.w3.org/1999/xlink" x="0px" y="0px"
	 width="30px" height="30px" viewBox="0 0 30 30" enable-background="new 0 0 30 30" xml:space="preserve">
<g>
	<path fill="#FFFFFF" d="M18.452,8.836h2.47c0.528,0,0.959-0.431,0.959-0.96V3.908c0-0.529-0.431-0.959-0.959-0.959h-3.391
		c-0.034-0.002-0.09-0.003-0.168-0.003c-0.641,0-2.866,0.126-4.631,1.75c-1.927,1.772-1.742,3.894-1.662,4.416v2.585H8.617
		c-0.529,0-0.96,0.431-0.96,0.959v4.269c0,0.529,0.431,0.96,0.96,0.96h2.312v11.202c0,0.529,0.431,0.96,0.96,0.96h4.836
		c0.529,0,0.96-0.431,0.96-0.96V17.939h2.739c0.487,0,0.897-0.365,0.953-0.85l0.498-4.323c0.031-0.271-0.055-0.544-0.237-0.749
		c-0.182-0.204-0.443-0.321-0.716-0.321h-3.237v-2.17C17.685,9.079,17.807,8.836,18.452,8.836L18.452,8.836z M17.145,12.777h3.642
		l-0.47,4.083h-3.172c-0.299,0-0.54,0.241-0.54,0.54v11.566h-4.596V17.345c0-0.299-0.241-0.54-0.54-0.54H8.737v-4.028h2.874
		c0.298,0,0.54-0.242,0.54-0.54V9.068c0-0.031-0.003-0.062-0.008-0.092c-0.057-0.327-0.26-2.031,1.321-3.485
		c1.478-1.359,3.358-1.465,3.9-1.465c0.074,0,0.121,0.001,0.129,0.002c0.009,0,0.018,0,0.026,0h3.282v3.728h-2.349
		c-1.156,0-1.848,0.662-1.848,1.771v2.71C16.604,12.535,16.847,12.777,17.145,12.777L17.145,12.777z M17.145,12.777"/>
	<path fill="#FFFFFF" d="M13.096,21.139c-0.298,0-0.54,0.242-0.54,0.54v0.27c0,0.298,0.242,0.54,0.54,0.54
		c0.298,0,0.54-0.242,0.54-0.54v-0.27C13.635,21.381,13.394,21.139,13.096,21.139L13.096,21.139z M13.096,21.139"/>
	<path fill="#FFFFFF" d="M13.096,23.137c-0.298,0-0.54,0.241-0.54,0.54v4.103c0,0.299,0.242,0.539,0.54,0.539
		c0.298,0,0.54-0.24,0.54-0.539v-4.103C13.635,23.378,13.394,23.137,13.096,23.137L13.096,23.137z M13.096,23.137"/>
</g>
</svg>
