<?xml version="1.0" encoding="utf-8"?>
<!-- Generator: Adobe Illustrator 14.0.0, SVG Export Plug-In . SVG Version: 6.00 Build 43363)  -->
<!DOCTYPE svg PUBLIC "-//W3C//DTD SVG 1.1//EN" "http://www.w3.org/Graphics/SVG/1.1/DTD/svg11.dtd">
<svg version="1.1"
	 id="svg2989" xmlns:cc="http://creativecommons.org/ns#" xmlns:rdf="http://www.w3.org/1999/02/22-rdf-syntax-ns#" xmlns:dc="http://purl.org/dc/elements/1.1/" xmlns:inkscape="http://www.inkscape.org/namespaces/inkscape" xmlns:svg="http://www.w3.org/2000/svg" xmlns:sodipodi="http://sodipodi.sourceforge.net/DTD/sodipodi-0.dtd" inkscape:version="0.48.3.1 r9886" sodipodi:docname="heart_empty_font_awesome.svg"
	 xmlns="http://www.w3.org/2000/svg" xmlns:xlink="http://www.w3.org/1999/xlink" x="0px" y="0px" width="24px" height="20px"
	 viewBox="7.33 398.257 24 20" enable-background="new 7.33 398.257 24 20" xml:space="preserve">
<sodipodi:namedview  inkscape:window-maximized="0" objecttolerance="10" borderopacity="1" guidetolerance="10" bordercolor="#666666" gridtolerance="10" pagecolor="#ffffff" inkscape:zoom="0.13169643" inkscape:cy="896" showgrid="false" inkscape:cx="896" id="namedview2995" inkscape:current-layer="svg2989" inkscape:window-y="25" inkscape:window-x="0" inkscape:window-height="480" inkscape:window-width="640" inkscape:pageshadow="2" inkscape:pageopacity="0">
	</sodipodi:namedview>
<path fill="#91229A" d="M31.33,404.35c0,1.918-1.022,3.872-3.067,5.859l-8.344,7.813c-0.161,0.156-0.357,0.234-0.589,0.234
	s-0.428-0.078-0.589-0.234l-8.357-7.838c-0.089-0.07-0.211-0.183-0.368-0.339c-0.157-0.156-0.404-0.44-0.744-0.853
	c-0.339-0.413-0.643-0.835-0.911-1.27s-0.507-0.959-0.717-1.576c-0.209-0.616-0.314-1.215-0.314-1.797
	c0-1.91,0.567-3.403,1.701-4.479c1.134-1.077,2.7-1.615,4.701-1.615c0.553,0,1.118,0.093,1.694,0.28
	c0.576,0.187,1.112,0.438,1.607,0.755s0.922,0.614,1.279,0.892c0.356,0.278,0.696,0.573,1.018,0.885
	c0.322-0.313,0.661-0.607,1.018-0.885c0.357-0.278,0.784-0.575,1.279-0.892s1.031-0.568,1.607-0.755
	c0.576-0.187,1.141-0.28,1.694-0.28c2,0,3.567,0.538,4.701,1.615C30.763,400.948,31.33,402.441,31.33,404.35z"/>
</svg>
