<?xml version="1.0" encoding="utf-8"?>
<!-- Generator: Adobe Illustrator 14.0.0, SVG Export Plug-In . SVG Version: 6.00 Build 43363)  -->
<!DOCTYPE svg PUBLIC "-//W3C//DTD SVG 1.1//EN" "http://www.w3.org/Graphics/SVG/1.1/DTD/svg11.dtd">
<svg version="1.1"
	 id="svg2989" xmlns:cc="http://creativecommons.org/ns#" xmlns:rdf="http://www.w3.org/1999/02/22-rdf-syntax-ns#" xmlns:dc="http://purl.org/dc/elements/1.1/" xmlns:inkscape="http://www.inkscape.org/namespaces/inkscape" xmlns:svg="http://www.w3.org/2000/svg" xmlns:sodipodi="http://sodipodi.sourceforge.net/DTD/sodipodi-0.dtd" inkscape:version="0.48.3.1 r9886" sodipodi:docname="heart_empty_font_awesome.svg"
	 xmlns="http://www.w3.org/2000/svg" xmlns:xlink="http://www.w3.org/1999/xlink" x="0px" y="0px" width="24px" height="20px"
	 viewBox="7.33 398.257 24 20" enable-background="new 7.33 398.257 24 20" xml:space="preserve">
<sodipodi:namedview  inkscape:window-maximized="0" objecttolerance="10" borderopacity="1" guidetolerance="10" bordercolor="#666666" gridtolerance="10" pagecolor="#ffffff" inkscape:zoom="0.13169643" inkscape:cy="896" showgrid="false" inkscape:cx="896" id="namedview2995" inkscape:current-layer="svg2989" inkscape:window-y="25" inkscape:window-x="0" inkscape:window-height="480" inkscape:window-width="640" inkscape:pageshadow="2" inkscape:pageopacity="0">
	</sodipodi:namedview>
<g id="g2991" transform="matrix(1,0,0,-1,22.779661,1328.2373)">
	<path id="path2993" inkscape:connector-curvature="0" fill="#FFFFFF" d="M6.836,923.887c0,0.703-0.096,1.324-0.288,1.862
		c-0.192,0.539-0.438,0.966-0.737,1.283c-0.299,0.317-0.663,0.575-1.091,0.775c-0.429,0.2-0.849,0.334-1.259,0.403
		c-0.411,0.07-0.848,0.104-1.313,0.104s-0.964-0.111-1.5-0.332c-0.536-0.222-1.029-0.5-1.479-0.833
		c-0.451-0.334-0.837-0.646-1.159-0.938c-0.321-0.291-0.589-0.558-0.803-0.801c-0.161-0.191-0.38-0.287-0.656-0.287
		s-0.496,0.096-0.656,0.287c-0.214,0.243-0.482,0.51-0.803,0.801c-0.322,0.291-0.708,0.604-1.159,0.938
		c-0.451,0.334-0.944,0.612-1.479,0.833c-0.536,0.221-1.036,0.332-1.5,0.332s-0.902-0.035-1.313-0.104
		c-0.411-0.069-0.83-0.204-1.259-0.403c-0.428-0.2-0.792-0.458-1.091-0.775c-0.299-0.317-0.544-0.744-0.737-1.283
		c-0.191-0.538-0.288-1.159-0.288-1.862c0-1.458,0.834-2.999,2.504-4.623l7.781-7.292l7.768,7.279
		C5.997,920.884,6.836,922.428,6.836,923.887z M8.55,923.887c0-1.918-1.022-3.872-3.067-5.859l-8.344-7.813
		c-0.161-0.156-0.357-0.234-0.589-0.234s-0.428,0.078-0.589,0.234l-8.357,7.838c-0.089,0.07-0.211,0.183-0.368,0.339
		c-0.157,0.156-0.404,0.44-0.744,0.853c-0.339,0.413-0.643,0.835-0.911,1.27s-0.507,0.959-0.717,1.576
		c-0.209,0.616-0.314,1.215-0.314,1.797c0,1.91,0.567,3.403,1.701,4.479c1.134,1.077,2.7,1.615,4.701,1.615
		c0.553,0,1.118-0.093,1.694-0.28c0.576-0.187,1.112-0.438,1.607-0.755s0.922-0.614,1.279-0.892
		c0.356-0.278,0.696-0.573,1.018-0.885c0.322,0.313,0.661,0.607,1.018,0.885c0.357,0.278,0.784,0.575,1.279,0.892
		s1.031,0.568,1.607,0.755c0.576,0.187,1.141,0.28,1.694,0.28c2,0,3.567-0.538,4.701-1.615C7.983,927.29,8.55,925.797,8.55,923.887z
		"/>
</g>
</svg>
