<svg xmlns="http://www.w3.org/2000/svg" width="24" height="20" viewBox="7.33 398.257 24 20"><path fill="#91229A" d="M31.33 404.35c0 1.918-1.022 3.872-3.067 5.859l-8.344 7.813c-.161.156-.357.234-.589.234s-.428-.078-.589-.234l-8.357-7.838a4.733 4.733 0 0 1-.368-.339c-.157-.156-.404-.44-.744-.853-.339-.413-.643-.835-.911-1.27s-.507-.959-.717-1.576a5.579 5.579 0 0 1-.314-1.797c0-1.91.567-3.403 1.701-4.479 1.134-1.077 2.7-1.615 4.701-1.615.553 0 1.118.093 1.694.28.576.187 1.112.438 1.607.755s.922.614 1.279.892c.356.278.696.573 1.018.885.322-.313.661-.607 1.018-.885s.784-.575 1.279-.892 1.031-.568 1.607-.755a5.468 5.468 0 0 1 1.694-.28c2 0 3.567.538 4.701 1.615 1.134 1.078 1.701 2.571 1.701 4.48z"/></svg>