<svg xmlns="http://www.w3.org/2000/svg" width="24" height="20" viewBox="7.33 398.257 24 20"><path fill="#FFF" d="M29.616 404.35c0-.703-.096-1.324-.288-1.862-.192-.539-.438-.966-.737-1.283a3.54 3.54 0 0 0-1.091-.775 4.913 4.913 0 0 0-1.26-.403c-.41-.07-.847-.104-1.312-.104s-.964.111-1.5.332a6.94 6.94 0 0 0-1.48.833c-.45.334-.836.646-1.158.938-.321.291-.59.558-.803.801-.161.191-.38.287-.656.287s-.496-.096-.656-.287c-.214-.243-.482-.51-.803-.8a15.471 15.471 0 0 0-1.16-.939 6.902 6.902 0 0 0-1.478-.833c-.536-.22-1.036-.332-1.5-.332s-.902.035-1.313.104a4.94 4.94 0 0 0-1.26.403 3.54 3.54 0 0 0-1.09.775c-.3.317-.544.744-.737 1.283-.191.538-.288 1.16-.288 1.862 0 1.458.834 3 2.504 4.623l7.78 7.292 7.769-7.279c1.678-1.633 2.517-3.177 2.517-4.636zm1.714 0c0 1.918-1.022 3.872-3.067 5.86l-8.344 7.812c-.161.156-.357.234-.59.234s-.427-.078-.588-.234l-8.357-7.838a4.733 4.733 0 0 1-.368-.339c-.157-.156-.404-.44-.744-.853-.34-.413-.643-.835-.911-1.27s-.507-.959-.717-1.576a5.579 5.579 0 0 1-.314-1.797c0-1.91.567-3.403 1.7-4.479 1.135-1.077 2.7-1.615 4.702-1.615.553 0 1.118.093 1.694.28.576.187 1.112.438 1.607.755s.922.614 1.279.892c.356.278.696.573 1.018.885.322-.313.66-.607 1.018-.885.357-.278.784-.575 1.279-.892s1.03-.568 1.607-.755a5.468 5.468 0 0 1 1.694-.28c2 0 3.567.538 4.7 1.615 1.135 1.077 1.702 2.57 1.702 4.48z"/></svg>