<?xml version="1.0" encoding="utf-8"?>
<!-- Generator: Adobe Illustrator 14.0.0, SVG Export Plug-In . SVG Version: 6.00 Build 43363)  -->
<!DOCTYPE svg PUBLIC "-//W3C//DTD SVG 1.1//EN" "http://www.w3.org/Graphics/SVG/1.1/DTD/svg11.dtd">
<svg version="1.1" id="Layer_1" xmlns="http://www.w3.org/2000/svg" xmlns:xlink="http://www.w3.org/1999/xlink" x="0px" y="0px"
	 width="180.676px" height="61.466px" viewBox="0 0 180.676 61.466" enable-background="new 0 0 180.676 61.466"
	 xml:space="preserve">
<g>
	<defs>
		<path id="SVGID_1_" d="M47.281,23.482c0,13.167-9.925,23.243-23.428,23.243S0.426,36.649,0.426,23.482
			c0-13.168,9.925-23.245,23.428-23.245S47.281,10.314,47.281,23.482z M40.395,23.482c0-9.943-6.886-16.93-16.541-16.93
			S7.313,13.539,7.313,23.482c0,9.941,6.886,16.929,16.541,16.929S40.395,33.424,40.395,23.482z M83.606,31.745
			c0,8.666-6.617,14.98-15.191,14.98c-8.575,0-15.191-6.314-15.191-14.98c0-8.733,6.616-14.914,15.191-14.914
			C76.989,16.831,83.606,23.012,83.606,31.745z M76.854,31.812c0-6.448-4.254-9.068-8.439-9.068c-4.186,0-8.439,2.62-8.439,9.068
			c0,5.442,3.241,9.003,8.439,9.003S76.854,37.254,76.854,31.812z M119.39,31.745c0,8.666-6.616,14.98-15.191,14.98
			c-8.574,0-15.19-6.314-15.19-14.98c0-8.733,6.616-14.914,15.19-14.914C112.773,16.831,119.39,23.012,119.39,31.745z
			 M112.638,31.812c0-6.448-4.253-9.068-8.439-9.068s-8.439,2.62-8.439,9.068c0,5.442,3.241,9.003,8.439,9.003
			S112.638,37.254,112.638,31.812z M132.894,61.237h-6.616V17.57h6.616v3.09c2.431-2.89,5.604-3.829,8.439-3.829
			c7.494,0,13.84,5.71,13.84,14.712c0,9.541-7.021,15.183-13.773,15.183c-1.553,0-5.536-0.536-8.507-4.165V61.237z M132.489,31.88
			c0,5.911,3.849,8.935,8.035,8.935c4.793,0,7.899-4.099,7.899-9.003c0-5.037-3.105-9.068-7.899-9.068
			C136.337,22.743,132.489,25.698,132.489,31.88z M173.134,25.296c-0.607-1.613-1.823-2.553-3.173-2.553
			c-0.877,0-2.161,0.47-2.161,1.813c0,1.746,1.823,2.418,3.781,3.359c3.173,1.479,4.523,2.284,5.401,2.888
			c2.903,2.083,3.443,4.435,3.443,6.316c0,5.374-4.523,9.605-10.397,9.605c-0.945,0-7.292-0.201-9.857-6.985l5.536-2.554
			c0.608,1.813,2.161,3.628,4.659,3.628c2.026,0,3.309-1.209,3.309-3.023c0-2.083-1.688-2.889-3.039-3.561
			c-2.836-1.344-4.186-1.813-5.671-2.754c-2.363-1.545-3.375-3.493-3.375-6.181c0-5.375,3.983-8.465,8.912-8.465
			c4.187,0,6.819,2.62,8.102,5.575L173.134,25.296z"/>
	</defs>
	<clipPath id="SVGID_2_">
		<use xlink:href="#SVGID_1_"  overflow="visible"/>
	</clipPath>
	<linearGradient id="SVGID_3_" gradientUnits="userSpaceOnUse" x1="29.8032" y1="91.2686" x2="150.874" y2="-29.8023">
		<stop  offset="0.4" style="stop-color:#922299"/>
		<stop  offset="1" style="stop-color:#1A539C"/>
	</linearGradient>
	<rect clip-path="url(#SVGID_2_)" fill="url(#SVGID_3_)" width="180.676" height="61.466"/>
</g>
</svg>
