<?xml version="1.0" encoding="utf-8"?>
<!-- Generator: Adobe Illustrator 14.0.0, SVG Export Plug-In . SVG Version: 6.00 Build 43363)  -->
<!DOCTYPE svg PUBLIC "-//W3C//DTD SVG 1.1//EN" "http://www.w3.org/Graphics/SVG/1.1/DTD/svg11.dtd">
<svg version="1.1" id="Layer_1" xmlns="http://www.w3.org/2000/svg" xmlns:xlink="http://www.w3.org/1999/xlink" x="0px" y="0px"
	 width="30px" height="30px" viewBox="0 0 30 30" enable-background="new 0 0 30 30" xml:space="preserve">
<path fill="#FFFFFF" d="M7.766,10.821H2.408c-0.542,0-0.984,0.441-0.984,0.984v17.21C1.424,29.559,1.866,30,2.408,30h5.357
	c0.542,0,0.984-0.441,0.984-0.984v-17.21C8.75,11.263,8.308,10.821,7.766,10.821L7.766,10.821z M7.643,28.893H2.532V11.929h5.111
	V28.893z M7.643,28.893"/>
<path fill="#FFFFFF" d="M7.977,3.463C7.204,2.691,6.179,2.266,5.089,2.266C2.834,2.266,1,4.098,1,6.351
	c0,2.253,1.834,4.086,4.089,4.086c2.253,0,4.086-1.833,4.086-4.086C9.175,5.261,8.749,4.235,7.977,3.463L7.977,3.463z M5.089,9.329
	c-1.644,0-2.981-1.336-2.981-2.979c0-1.642,1.337-2.978,2.981-2.978c0.794,0,1.542,0.311,2.105,0.874
	C7.757,4.81,8.067,5.557,8.067,6.351C8.067,7.993,6.731,9.329,5.089,9.329L5.089,9.329z M5.089,9.329"/>
<path fill="#FFFFFF" d="M27.556,13.38c-1.169-1.982-3.242-2.987-6.163-2.987c-1.883,0-3.25,0.642-4.16,1.305
	c-0.053-0.492-0.472-0.877-0.978-0.877h-5.131c-0.542,0-0.984,0.441-0.984,0.984v17.21c0,0.543,0.441,0.984,0.984,0.984h5.346
	c0.543,0,0.984-0.441,0.984-0.984v-8.515c0-2.887,0.782-3.434,2.226-3.434c1.412,0,1.798,0.77,1.798,3.581v8.367
	c0,0.543,0.441,0.984,0.984,0.984h5.348c0.542,0,0.983-0.441,0.983-0.984v-9.44C28.793,17.668,28.652,15.24,27.556,13.38
	L27.556,13.38z M27.686,28.893h-5.101v-8.244c0-1.121-0.031-2.29-0.403-3.163c-0.431-1.013-1.273-1.525-2.502-1.525
	c-2.938,0-3.333,2.295-3.333,4.541v8.392h-5.099V11.929h4.883v0.995c0,0.228,0.141,0.433,0.354,0.516s0.454,0.027,0.608-0.142
	c0.616-0.671,1.994-1.796,4.3-1.796c5.531,0,6.293,3.881,6.293,8.074V28.893z M27.686,28.893"/>
<path fill="#FFFFFF" d="M3.658,22.001c-0.306,0-0.554,0.248-0.554,0.554v5.149c0,0.306,0.248,0.554,0.554,0.554
	s0.554-0.248,0.554-0.554v-5.149C4.211,22.249,3.963,22.001,3.658,22.001L3.658,22.001z M3.658,22.001"/>
<path fill="#FFFFFF" d="M3.658,19.676c-0.306,0-0.554,0.248-0.554,0.554v0.499c0,0.305,0.248,0.553,0.554,0.553
	s0.554-0.248,0.554-0.553v-0.499C4.211,19.924,3.963,19.676,3.658,19.676L3.658,19.676z M3.658,19.676"/>
</svg>
