<?xml version="1.0" encoding="utf-8"?>
<!-- Generator: Adobe Illustrator 14.0.0, SVG Export Plug-In . SVG Version: 6.00 Build 43363)  -->
<!DOCTYPE svg PUBLIC "-//W3C//DTD SVG 1.1//EN" "http://www.w3.org/Graphics/SVG/1.1/DTD/svg11.dtd">
<svg version="1.1" id="Layer_1" xmlns="http://www.w3.org/2000/svg" xmlns:xlink="http://www.w3.org/1999/xlink" x="0px" y="0px"
	 width="65px" height="85px" viewBox="-3.334 -0.25 65 85" enable-background="new -3.334 -0.25 65 85" xml:space="preserve">
<g>
	<path fill="#874E70" d="M5.855,70.17c-0.531,0-1.041-0.212-1.417-0.588c-0.375-0.376-0.585-0.887-0.583-1.418L3.9,53.044
		c0.001-0.517,0.203-1.012,0.562-1.384c2.481-2.569,7.371-5.66,12.546-8.933c4.146-2.621,8.433-5.332,11.38-7.73
		c0.36-0.293,0.807-0.449,1.262-0.449c0.158,0,0.316,0.019,0.473,0.057c0.374,0.091,0.798,0.194,12.462,8.174
		c11.658,7.976,12.31,8.684,12.523,8.916c0.34,0.369,0.528,0.852,0.528,1.354l0.01,15.12c0,0.53-0.21,1.039-0.585,1.415
		c-0.375,0.375-0.885,0.586-1.415,0.586H5.855z M32.495,60.104l2.501-0.003l0.026-2.542l-2.52,0.005L32.495,60.104z M26.837,60.098
		l-0.001-2.532l-2.527-0.006l0.024,2.52L26.837,60.098z M32.51,51.905h2.455l-0.007-2.443l-2.413-0.01L32.51,51.905z M26.83,51.895
		l-0.003-2.456l-2.431,0.008l-0.021,2.412L26.83,51.895z"/>
	<path fill="#FFFFFF" d="M29.65,36.549c0.521,0.127,22.963,15.389,23.986,16.501l0.01,15.12H5.855L5.9,53.05
		C10.158,48.642,22.989,41.97,29.65,36.549 M28.833,53.925l-0.009-6.493l-6.41,0.021l-0.058,6.375L28.833,53.925 M30.482,53.906
		l6.489-0.002l-0.019-6.434l-6.379-0.027L30.482,53.906 M31.135,62.105l5.84-0.006l0.061-5.902
		c-0.144-0.781,0.157-0.203-0.348-0.642c-0.001,0-6.18,0.013-6.18,0.013l-0.02,6.267C30.78,62.111,30.112,62.085,31.135,62.105
		 M28.191,62.107c1.07-0.025,0.316,0,0.646-0.273l-0.003-6.264l-6.195-0.015c-0.547,0.274-0.351,0.711-0.336,1.49l0.048,5.019
		L28.191,62.107 M29.65,32.549c-0.91,0-1.804,0.311-2.525,0.897c-2.854,2.323-7.09,5.001-11.186,7.591
		c-5.28,3.339-10.268,6.492-12.916,9.233c-0.718,0.743-1.12,1.734-1.123,2.768l-0.045,15.12c-0.003,1.063,0.417,2.083,1.167,2.836
		s1.77,1.176,2.833,1.176h47.791c1.062,0,2.079-0.422,2.829-1.173c0.75-0.75,1.172-1.769,1.171-2.83l-0.01-15.12
		c-0.001-1.002-0.378-1.968-1.057-2.705c-0.381-0.415-1.02-1.108-12.866-9.213c-11.965-8.186-12.302-8.268-13.117-8.466
		C30.283,32.586,29.966,32.549,29.65,32.549L29.65,32.549z"/>
</g>
<g>
	<path fill="#6A1C70" d="M53.178,51.469c-0.261,0-0.522-0.051-0.771-0.154c-4.222-1.763-8.744-5.172-13.118-8.469
		c-3.386-2.552-6.877-5.183-10.003-6.851l-2.103,1.302l-6.551,4.478l-2.67,1.847L6.558,51.138c-0.333,0.22-0.716,0.33-1.101,0.33
		c-0.325,0-0.651-0.079-0.948-0.239c-0.647-0.348-1.052-1.023-1.052-1.759L3.448,37.553l-1.692-0.004
		c-0.532-0.001-1.042-0.214-1.416-0.592c-0.375-0.378-0.583-0.889-0.58-1.421l0.061-9.521c0.007-1.1,0.9-1.987,2-1.987
		c0.001,0,55.057,0.061,55.057,0.061c1.104,0.001,1.997,0.896,1.998,1.999l0.007,9.418c0,0.531-0.211,1.041-0.586,1.416
		c-0.375,0.375-0.884,0.585-1.414,0.585c-0.001,0-1.669-0.002-1.669-0.002l-0.035,11.971c-0.002,0.668-0.337,1.291-0.894,1.66
		C53.952,51.355,53.566,51.469,53.178,51.469L53.178,51.469z"/>
	<path fill="#FFFFFF" d="M1.821,26.027l55.055,0.061l0.007,9.418l-12.209-0.018c-0.279,0.651-0.36,0.398,0.006,1.123
		c0.592,0.063,1.192,0.08,1.796,0.08c0.785,0,1.575-0.03,2.354-0.03c0.052,0,0.104,0,0.156,0c0.464,0.004,0.924,0.009,1.386,0.009
		c0.24,0,0.48-0.001,0.721-0.005c0.357-0.006,0.739-0.047,1.083-0.047c0.48,0,0.886,0.082,1.039,0.458l-0.036,12.393
		c-7.577-3.163-16.507-12.186-23.99-15.766l-3.058,1.893l-6.627,4.527l-2.68,1.854L5.458,49.468l-0.01-12.761l8.412-0.045
		c1.412-0.008,1.163-1.082,0.075-1.086L1.76,35.549L1.821,26.027 M42.2,34.863c1.064,0,2.131-0.721,2.2-2.014
		c0.064-1.211-0.816-1.785-1.65-1.785c-1.012,0-1.956,0.844-1.065,2.417l1.196,0.113l0.377-0.986
		c-0.106-0.017-0.188-0.024-0.253-0.024c-0.381,0-0.138,0.27-0.745,0.532c-0.459-0.646-0.419-0.361-0.109-1.221
		c0.251-0.097,0.473-0.14,0.665-0.14c1.273,0,1.286,1.871,0.161,2.285c-0.274,0.101-0.521,0.146-0.74,0.146
		c-2.012,0-1.773-3.818,0.315-3.818c0.387,0,0.836,0.131,1.346,0.439c1.603,0.971,0.751,2.256,0.5,3.492
		c1.555-0.557,1.164-3.934-0.813-4.482c-0.325-0.09-0.643-0.133-0.946-0.133c-1.825,0-3.151,1.543-2.498,3.654
		C40.463,34.382,41.331,34.863,42.2,34.863 M1.821,22.027c-2.199,0-3.986,1.775-4,3.975l-0.061,9.521
		c-0.007,1.063,0.411,2.086,1.159,2.842c0.678,0.684,1.577,1.098,2.53,1.171l0.008,9.934c0.001,1.471,0.81,2.822,2.104,3.52
		c0.593,0.319,1.245,0.478,1.896,0.478c0.769,0,1.536-0.222,2.201-0.66l11.366-7.491c0.025-0.017,0.05-0.033,0.074-0.05l2.68-1.854
		l6.533-4.463l1.026-0.635c2.741,1.601,5.785,3.896,8.748,6.129c4.473,3.371,9.098,6.857,13.552,8.717
		c0.495,0.207,1.02,0.309,1.541,0.309c0.776,0,1.547-0.226,2.213-0.668c1.112-0.739,1.783-1.984,1.787-3.32l0.029-9.988
		c0.941-0.077,1.829-0.485,2.502-1.157c0.752-0.751,1.174-1.77,1.173-2.833l-0.007-9.418c-0.002-2.206-1.789-3.995-3.995-3.997
		L1.825,22.027C1.824,22.027,1.823,22.027,1.821,22.027L1.821,22.027z"/>
</g>
<path fill="#874E70" stroke="#FFFFFF" stroke-width="4" stroke-linecap="round" stroke-linejoin="round" d="M37.089,2.486
	c-5.211,1.133-6.991,6.442-7.188,11.242c-0.093,2.213-0.002,6.666,0.281,8.813c0.513,3.865,3.844,0.988,5.229-0.324
	c3.382-3.207,6.745-5.075,8.484-9.838C45.719,7.383,42.677,1.273,37.089,2.486z M34.095,17.933
	c-0.374-2.362-0.316-5.851,0.476-8.146c0.722-2.09,2.97-4.371,5.08-2.334C42.747,10.441,36.246,16.636,34.095,17.933z M19.175,7.964
	c-4.384,1.123-5.992,5.981-3.354,9.644c2.493,3.463,5.913,4.428,9.506,6.293c2.685,1.393,3.982,0.641,3.504-2.451
	c-0.336-2.168-0.571-4.563-1.126-6.668C26.686,10.926,23.706,6.803,19.175,7.964z M21.849,11.842l0.665,0.439
	c1.536,1.35,2.084,4.707,2.322,6.695l0.151,0.854l-0.383-0.303c-1.802-0.496-4.815-2.375-5.813-3.844
	C16.656,12.535,20.231,10.268,21.849,11.842L21.849,11.842z M35.482,23.72l0.039,0.287c3.972-0.735,10.282-3.767,13.816-6.177
	l3.663-2.959c-0.349-0.358-0.098-0.157-0.636-0.389c-0.271-0.117-0.043,0.053-0.507-0.162c-3.621,0.199-1.911-1.248-3.715-2.996
	c-1.544,1.881-2.07,3.838-5.394,7.074C41.396,19.719,37.407,23.279,35.482,23.72 M5.287,18.111
	c4.351,3.172,11.833,5.736,17.261,5.976c-0.782-0.685-4.197-1.782-7.293-4.007c-2.479-1.781-3.784-3.36-5.818-5.475
	c-0.68,0.742-0.58,1.896-1.318,2.379C7.325,17.5,5.973,17.49,5.287,18.111"/>
<path fill="#AB5E8C" stroke="#FFFFFF" stroke-width="4" stroke-linecap="round" stroke-linejoin="round" d="M22.061,11.83
	l-0.663-0.441L22.061,11.83"/>
<g>
	<g>
		<path fill="#214F9C" d="M19.316,81.896c-0.308,0-0.615-0.013-0.922-0.038c-0.655-0.05-1.31-0.204-1.934-0.458
			c-0.555-0.223-1.089-0.525-1.579-0.896c-0.592-0.455-1.063-1.041-1.375-1.703c-0.037-0.077-0.072-0.157-0.105-0.237
			c-0.152,0.073-0.31,0.141-0.473,0.202c-0.657,0.248-1.375,0.377-2.131,0.384v0.531c0,1.104-0.896,2-2,2H6.108
			c-1.104,0-2-0.896-2-2v-9.906c0-1.104,0.896-2,2-2h4.627c0.779,0,1.517,0.13,2.193,0.385c0.689,0.26,1.284,0.622,1.767,1.078
			c0.83-0.791,1.836-1.285,2.994-1.471c0.496-0.08,1.003-0.12,1.507-0.12c0.503,0,1.011,0.04,1.508,0.12
			c0.879,0.141,1.672,0.458,2.366,0.949c0.353-0.565,0.981-0.941,1.697-0.941h4.492c1.407,0,2.681,0.49,3.682,1.418
			c0.224,0.207,0.424,0.428,0.603,0.66c0.177-0.187,0.364-0.359,0.563-0.521c0.687-0.558,1.475-0.99,2.341-1.286
			c0.854-0.293,1.738-0.441,2.623-0.441c0.891,0,1.774,0.149,2.628,0.443c0.858,0.293,1.646,0.725,2.335,1.283
			c0.744,0.604,1.343,1.385,1.78,2.324c0.433,0.925,0.652,1.964,0.652,3.086c0,1.119-0.219,2.159-0.651,3.091
			c-0.438,0.947-1.037,1.732-1.779,2.334c-0.691,0.56-1.479,0.991-2.342,1.286c-0.84,0.291-1.726,0.44-2.623,0.44
			s-1.783-0.149-2.631-0.443c-0.836-0.281-1.624-0.713-2.327-1.279c-0.108-0.087-0.213-0.179-0.315-0.273
			c-0.082,0.099-0.169,0.195-0.26,0.29c-0.659,0.682-1.86,1.494-3.841,1.494h-4.929c-0.654,0-1.235-0.314-1.6-0.8
			c-0.339,0.207-0.705,0.389-1.094,0.544c-0.616,0.246-1.274,0.395-1.955,0.442C19.85,81.887,19.583,81.896,19.316,81.896
			L19.316,81.896z M39.081,74.084c-0.161,0-0.297,0.028-0.425,0.088c-0.02,0.009-0.068,0.06-0.122,0.146
			c-0.061,0.098-0.091,0.24-0.091,0.426c0,0.194,0.03,0.341,0.09,0.438c0.053,0.086,0.105,0.146,0.143,0.164
			c0.123,0.059,0.251,0.086,0.405,0.086c0.153,0,0.281-0.026,0.4-0.085c0.042-0.02,0.095-0.08,0.147-0.165
			c0.06-0.097,0.09-0.243,0.09-0.438c0-0.186-0.03-0.328-0.089-0.423c-0.063-0.102-0.11-0.143-0.128-0.151
			C39.376,74.111,39.242,74.084,39.081,74.084L39.081,74.084z"/>
		<path fill="#FFFFFF" d="M39.07,69.605c0.671,0,1.33,0.111,1.977,0.334c0.646,0.221,1.222,0.537,1.729,0.947
			c0.506,0.41,0.915,0.948,1.225,1.613c0.311,0.664,0.466,1.412,0.466,2.242s-0.155,1.58-0.466,2.25s-0.719,1.211-1.225,1.621
			c-0.507,0.41-1.082,0.727-1.729,0.947c-0.641,0.222-1.309,0.332-1.977,0.332s-1.336-0.11-1.977-0.332
			c-0.627-0.211-1.212-0.532-1.728-0.947c-0.506-0.41-0.914-0.951-1.226-1.621c-0.311-0.67-0.466-1.42-0.466-2.25
			s0.155-1.578,0.466-2.242c0.312-0.665,0.72-1.203,1.226-1.613c0.505-0.41,1.081-0.727,1.728-0.947
			C37.741,69.718,38.399,69.605,39.07,69.605 M39.081,77.432c0.457,0,0.879-0.095,1.27-0.283c0.392-0.188,0.717-0.492,0.978-0.912
			s0.391-0.918,0.391-1.492c0-0.566-0.13-1.061-0.391-1.479s-0.586-0.722-0.978-0.905c-0.391-0.183-0.813-0.275-1.27-0.275
			s-0.879,0.093-1.271,0.275c-0.391,0.184-0.717,0.486-0.977,0.905c-0.261,0.419-0.391,0.912-0.391,1.479
			c0,0.574,0.13,1.072,0.391,1.492c0.26,0.42,0.586,0.725,0.977,0.912C38.202,77.337,38.624,77.432,39.081,77.432 M19.197,69.646
			c0.398,0,0.796,0.032,1.19,0.096c0.796,0.127,1.471,0.47,2.021,1.025c0.551,0.557,0.82,1.24,0.812,2.053h-2.555
			c0-0.313-0.147-0.551-0.443-0.715c-0.282-0.157-0.601-0.241-0.923-0.241c-0.018,0-0.036,0-0.053,0.001
			c-0.356,0.004-0.689,0.09-1,0.254c-0.312,0.166-0.477,0.39-0.496,0.672c-0.03,0.341,0.098,0.578,0.383,0.716
			c0.286,0.137,0.714,0.233,1.285,0.29c0.521,0.057,0.939,0.107,1.255,0.154c0.315,0.049,0.678,0.141,1.089,0.277
			s0.729,0.301,0.954,0.494c0.226,0.193,0.42,0.465,0.586,0.813c0.165,0.351,0.248,0.766,0.248,1.246
			c0,0.443-0.098,0.854-0.293,1.23c-0.188,0.368-0.457,0.688-0.789,0.934c-0.331,0.246-0.708,0.453-1.134,0.623
			s-0.877,0.271-1.353,0.305c-0.222,0.016-0.443,0.023-0.664,0.023c-0.253,0-0.505-0.011-0.757-0.031
			c-0.462-0.035-0.915-0.143-1.345-0.317c-0.402-0.161-0.78-0.376-1.126-0.638c-0.33-0.254-0.596-0.584-0.773-0.961
			c-0.193-0.404-0.286-0.848-0.271-1.295h2.603h-0.001c0,0.235,0.113,0.437,0.339,0.602c0.225,0.165,0.498,0.27,0.818,0.313
			c0.193,0.024,0.387,0.037,0.582,0.037c0.129,0,0.258-0.005,0.388-0.017c0.324-0.028,0.601-0.117,0.825-0.269
			c0.227-0.15,0.338-0.336,0.338-0.553c0-0.32-0.167-0.543-0.503-0.664c-0.336-0.123-0.809-0.203-1.42-0.242
			c-1.231-0.084-2.174-0.357-2.824-0.82c-0.651-0.461-0.982-1.202-0.992-2.221c-0.021-0.813,0.245-1.496,0.796-2.053
			s1.222-0.898,2.014-1.025C18.4,69.679,18.799,69.646,19.197,69.646 M29.26,69.775c0.912,0,1.686,0.295,2.322,0.885
			c0.636,0.59,0.954,1.309,0.954,2.158c0,0.303-0.075,0.613-0.227,0.935c-0.149,0.321-0.351,0.579-0.601,0.778
			c0.841,0.406,1.262,1.08,1.262,2.023c-0.01,0.905-0.301,1.652-0.871,2.242s-1.373,0.885-2.403,0.885h-4.929v-9.906H29.26
			 M27.368,73.64h1.698c0.341,0,0.578-0.134,0.714-0.403c0.135-0.25,0.133-0.551-0.007-0.799c-0.143-0.266-0.383-0.396-0.723-0.396
			h-1.683V73.64 M27.367,77.433h2.148c0.341,0,0.579-0.139,0.713-0.418c0.137-0.265,0.134-0.579-0.008-0.842
			c-0.139-0.284-0.379-0.425-0.72-0.425h-2.134V77.433 M10.735,69.775c0.541,0,1.037,0.086,1.487,0.256
			c0.451,0.17,0.824,0.396,1.119,0.68c0.295,0.283,0.546,0.609,0.751,0.982s0.331,0.762,0.375,1.168
			c0.045,0.405,0.045,0.812,0,1.217c-0.045,0.406-0.17,0.793-0.375,1.16c-0.206,0.369-0.456,0.693-0.751,0.978
			s-0.668,0.509-1.119,0.679c-0.45,0.17-0.946,0.256-1.487,0.256H8.797v2.531H6.108v-9.906H10.735 M8.796,74.871h1.924
			c0.28,0,0.519-0.098,0.713-0.291c0.195-0.192,0.318-0.428,0.368-0.707c0.05-0.277,0.056-0.555,0.016-0.827
			s-0.158-0.511-0.354-0.708c-0.187-0.19-0.443-0.298-0.709-0.298c-0.012,0-0.023,0.001-0.035,0.001H8.796V74.871 M39.07,65.605
			c-1.106,0-2.207,0.185-3.272,0.55c-0.763,0.261-1.48,0.608-2.143,1.037c-1.261-0.931-2.765-1.417-4.396-1.417h-4.492
			c-0.718,0-1.392,0.189-1.974,0.521c-0.563-0.235-1.158-0.405-1.777-0.504c-0.596-0.096-1.21-0.146-1.82-0.146
			s-1.224,0.05-1.826,0.146c-0.969,0.155-1.881,0.485-2.702,0.973c-0.326-0.181-0.672-0.341-1.037-0.478
			c-0.9-0.34-1.875-0.513-2.897-0.513H6.108c-2.209,0-4,1.791-4,4v9.906c0,2.209,1.791,4,4,4h2.688c1.737,0,3.215-1.107,3.768-2.654
			c0.319,0.39,0.684,0.745,1.085,1.054c0.656,0.497,1.347,0.888,2.078,1.18c0.796,0.324,1.653,0.526,2.528,0.593
			c0.333,0.027,0.698,0.043,1.061,0.043c0.313,0,0.627-0.011,0.942-0.033c0.888-0.062,1.749-0.257,2.557-0.58
			c0.039-0.016,0.078-0.031,0.116-0.047c0.55,0.284,1.174,0.445,1.836,0.445h4.929c1.865,0,3.24-0.554,4.217-1.214
			c0.602,0.364,1.237,0.659,1.905,0.884c1.025,0.355,2.131,0.541,3.252,0.541s2.227-0.186,3.285-0.553
			c1.07-0.364,2.063-0.911,2.937-1.617c0.983-0.798,1.769-1.822,2.337-3.048c0.556-1.198,0.837-2.521,0.837-3.933
			c0-1.417-0.283-2.741-0.843-3.937c-0.563-1.211-1.348-2.23-2.328-3.026c-0.876-0.708-1.869-1.255-2.956-1.625
			C41.286,65.791,40.182,65.605,39.07,65.605L39.07,65.605z"/>
	</g>
	<g>
		<path fill="#214F9C" d="M51.136,81.682c-0.681,0-1.315-0.347-1.684-0.92l-0.366-0.57l-0.372,0.576
			c-0.368,0.57-1.001,0.914-1.68,0.914h-2.811c-1.104,0-2-0.896-2-2V79.3c0-0.409,0.126-0.809,0.359-1.145l2.591-3.713l-2.22-3.126
			c-0.24-0.339-0.369-0.743-0.369-1.158v-0.383c0-1.104,0.896-2,2-2h2.75c0.67,0,1.295,0.335,1.666,0.894l0.105,0.158l0.123-0.18
			c0.372-0.546,0.99-0.872,1.651-0.872h2.704c1.104,0,2,0.896,2,2v0.383c0,0.415-0.129,0.819-0.369,1.158l-2.219,3.123l2.602,3.713
			c0.236,0.336,0.362,0.736,0.362,1.147v0.382c0,1.104-0.896,2-2,2H51.136z"/>
		<path fill="#FFFFFF" d="M53.586,69.775v0.383l-3.035,4.273l3.411,4.868v0.382h-2.825l-1.998-3.113h-0.091l-2.013,3.113h-2.811
			V79.3l3.396-4.868l-3.035-4.273v-0.383h2.75l1.712,2.576h0.075l1.759-2.576H53.586 M53.586,65.775h-2.704
			c-0.624,0-1.229,0.146-1.772,0.414c-0.544-0.269-1.149-0.414-1.773-0.414h-2.75c-2.209,0-4,1.791-4,4v0.383
			c0,0.83,0.258,1.64,0.739,2.316l1.404,1.978l-1.785,2.559c-0.469,0.672-0.72,1.471-0.72,2.289v0.382c0,2.209,1.791,4,4,4h2.811
			c0.733,0,1.44-0.201,2.051-0.565c0.61,0.364,1.317,0.565,2.051,0.565h2.825c2.209,0,4-1.791,4-4V79.3
			c0-0.821-0.253-1.623-0.725-2.295l-1.791-2.558l1.4-1.973c0.481-0.677,0.739-1.486,0.739-2.316v-0.383
			C57.586,67.566,55.795,65.775,53.586,65.775L53.586,65.775z"/>
	</g>
</g>
<g>
	<path fill="#874E70" d="M5.9,53.05L5.855,68.17h47.791l-0.01-15.12c-1.023-1.112-23.465-16.374-23.986-16.501
		C22.989,41.97,10.158,48.642,5.9,53.05z M22.414,47.453l6.41-0.021l0.009,6.493l-6.477-0.097L22.414,47.453z M30.574,47.443
		l6.379,0.027l0.019,6.434l-6.489,0.002L30.574,47.443z M22.639,55.556l6.195,0.015l0.003,6.264
		c-0.33,0.273,0.424,0.248-0.646,0.273l-5.84-0.043l-0.048-5.019C22.289,56.267,22.093,55.83,22.639,55.556z M36.688,55.556
		c0.505,0.438,0.204-0.14,0.348,0.642L36.975,62.1l-5.84,0.006c-1.023-0.021-0.355,0.006-0.646-0.271l0.02-6.267
		C30.509,55.568,36.687,55.556,36.688,55.556z"/>
	<path fill="#6A1C70" d="M41.684,33.48c-1.625-2.871,2.858-3.313,2.716-0.632c-0.126,2.349-3.542,2.812-4.261,0.489
		c-0.763-2.463,1.169-4.152,3.444-3.521c1.978,0.549,2.368,3.926,0.813,4.482c0.251-1.236,1.103-2.521-0.5-3.492
		c-3.571-2.163-4.167,4.43-0.921,3.232c1.296-0.477,1.082-2.885-0.826-2.145c-0.31,0.859-0.35,0.574,0.109,1.221
		c0.71-0.307,0.259-0.623,0.998-0.508l-0.377,0.986L41.684,33.48z M53.178,49.469l0.036-12.393c-0.263-0.645-1.266-0.424-2.122-0.41
		c-0.704,0.012-1.402,0.002-2.106-0.004c-1.429-0.008-2.895,0.099-4.307-0.051c-0.366-0.725-0.285-0.472-0.006-1.123l12.209,0.018
		l-0.007-9.418L1.821,26.027L1.76,35.549l12.175,0.027c1.088,0.004,1.337,1.078-0.075,1.086l-8.412,0.045l0.01,12.761l11.366-7.491
		l2.68-1.854l6.627-4.527l3.058-1.893C36.672,37.283,45.601,46.306,53.178,49.469z"/>
	<path fill="#874E70" d="M37.089,2.486c-5.211,1.133-6.991,6.442-7.188,11.242c-0.093,2.213-0.002,6.666,0.281,8.813
		c0.513,3.865,3.844,0.988,5.229-0.324c3.382-3.207,6.745-5.075,8.484-9.838C45.719,7.383,42.677,1.273,37.089,2.486z
		 M34.095,17.933c-0.374-2.362-0.316-5.851,0.476-8.146c0.722-2.09,2.97-4.371,5.08-2.334
		C42.747,10.441,36.246,16.636,34.095,17.933z M19.175,7.964c-4.384,1.123-5.992,5.981-3.354,9.644
		c2.493,3.463,5.913,4.428,9.506,6.293c2.685,1.393,3.982,0.641,3.504-2.451c-0.336-2.168-0.571-4.563-1.126-6.668
		C26.686,10.926,23.706,6.803,19.175,7.964z M21.849,11.842l0.665,0.439c1.536,1.35,2.084,4.707,2.322,6.695l0.151,0.854
		l-0.383-0.303c-1.802-0.496-4.815-2.375-5.813-3.844C16.656,12.535,20.231,10.268,21.849,11.842L21.849,11.842z M35.482,23.72
		l0.039,0.287c3.972-0.735,10.282-3.767,13.816-6.177l3.663-2.959c-0.349-0.358-0.098-0.157-0.636-0.389
		c-0.271-0.117-0.043,0.053-0.507-0.162c-3.621,0.199-1.911-1.248-3.715-2.996c-1.544,1.881-2.07,3.838-5.394,7.074
		C41.396,19.719,37.407,23.279,35.482,23.72 M5.287,18.111c4.351,3.172,11.833,5.736,17.261,5.976
		c-0.782-0.685-4.197-1.782-7.293-4.007c-2.479-1.781-3.784-3.36-5.818-5.475c-0.68,0.742-0.58,1.896-1.318,2.379
		C7.325,17.5,5.973,17.49,5.287,18.111"/>
	<path fill="#AB5E8C" d="M22.061,11.83l-0.663-0.441L22.061,11.83"/>
	<g>
		<path fill="#214F9C" d="M8.797,79.682H6.108v-9.906h4.627c0.541,0,1.037,0.086,1.487,0.256c0.451,0.17,0.824,0.396,1.119,0.68
			c0.295,0.283,0.546,0.609,0.751,0.982s0.331,0.762,0.375,1.168c0.045,0.405,0.045,0.812,0,1.217
			c-0.045,0.406-0.17,0.793-0.375,1.16c-0.206,0.369-0.456,0.693-0.751,0.978s-0.668,0.509-1.119,0.679
			c-0.45,0.17-0.946,0.256-1.487,0.256H8.797V79.682z M10.719,74.871c0.28,0,0.519-0.098,0.713-0.291
			c0.195-0.192,0.318-0.428,0.368-0.707c0.05-0.277,0.056-0.555,0.016-0.827s-0.158-0.511-0.354-0.708
			c-0.195-0.199-0.466-0.307-0.744-0.297H8.796v2.83H10.719z M17.645,76.654c0,0.235,0.113,0.437,0.339,0.602
			c0.225,0.165,0.498,0.27,0.818,0.313c0.32,0.041,0.645,0.049,0.97,0.021c0.324-0.028,0.601-0.117,0.825-0.269
			c0.227-0.15,0.338-0.336,0.338-0.553c0-0.32-0.167-0.543-0.503-0.664c-0.336-0.123-0.809-0.203-1.42-0.242
			c-1.231-0.084-2.174-0.357-2.824-0.82c-0.651-0.461-0.982-1.202-0.992-2.221c-0.021-0.813,0.245-1.496,0.796-2.053
			s1.222-0.898,2.014-1.025c0.789-0.127,1.593-0.127,2.381,0c0.796,0.127,1.471,0.47,2.021,1.025c0.551,0.557,0.82,1.24,0.812,2.053
			h-2.555c0-0.313-0.147-0.551-0.443-0.715c-0.298-0.166-0.636-0.25-0.977-0.24c-0.356,0.004-0.689,0.09-1,0.254
			c-0.312,0.166-0.477,0.39-0.496,0.672c-0.03,0.341,0.098,0.578,0.383,0.716c0.286,0.137,0.714,0.233,1.285,0.29
			c0.521,0.057,0.939,0.107,1.255,0.154c0.315,0.049,0.678,0.141,1.089,0.277s0.729,0.301,0.954,0.494
			c0.226,0.193,0.42,0.465,0.586,0.813c0.165,0.351,0.248,0.766,0.248,1.246c0,0.443-0.098,0.854-0.293,1.23
			c-0.188,0.368-0.457,0.688-0.789,0.934c-0.331,0.246-0.708,0.453-1.134,0.623s-0.877,0.271-1.353,0.305
			c-0.477,0.033-0.949,0.031-1.421-0.008c-0.462-0.035-0.915-0.143-1.345-0.317c-0.402-0.161-0.78-0.376-1.126-0.638
			c-0.33-0.254-0.596-0.584-0.773-0.961c-0.193-0.404-0.286-0.848-0.271-1.295H17.645L17.645,76.654z M32.536,72.818
			c0,0.303-0.075,0.613-0.227,0.935c-0.149,0.321-0.351,0.579-0.601,0.778c0.841,0.406,1.262,1.08,1.262,2.023
			c-0.01,0.905-0.301,1.652-0.871,2.242s-1.373,0.885-2.403,0.885h-4.929v-9.906h4.492c0.912,0,1.686,0.295,2.322,0.885
			C32.218,71.25,32.536,71.969,32.536,72.818z M29.051,72.041h-1.683v1.599h1.698c0.341,0,0.578-0.134,0.714-0.403
			c0.135-0.25,0.133-0.551-0.007-0.799C29.631,72.172,29.39,72.041,29.051,72.041z M29.501,75.748h-2.134v1.685h2.148
			c0.341,0,0.579-0.139,0.713-0.418c0.137-0.265,0.134-0.579-0.008-0.842C30.082,75.889,29.842,75.748,29.501,75.748z M44,72.5
			c0.311,0.664,0.466,1.412,0.466,2.242s-0.155,1.58-0.466,2.25s-0.719,1.211-1.225,1.621c-0.507,0.41-1.082,0.727-1.729,0.947
			c-1.28,0.443-2.673,0.443-3.953,0c-0.627-0.211-1.212-0.532-1.728-0.947c-0.506-0.41-0.914-0.951-1.226-1.621
			c-0.311-0.67-0.466-1.42-0.466-2.25s0.155-1.578,0.466-2.242c0.312-0.665,0.72-1.203,1.226-1.613
			c0.505-0.41,1.081-0.727,1.728-0.947c0.647-0.222,1.306-0.334,1.977-0.334s1.33,0.111,1.977,0.334
			c0.646,0.221,1.222,0.537,1.729,0.947C43.281,71.297,43.69,71.835,44,72.5z M36.443,74.744c0,0.574,0.13,1.072,0.391,1.492
			c0.26,0.42,0.586,0.725,0.977,0.912c0.392,0.188,0.813,0.283,1.271,0.283s0.879-0.095,1.27-0.283
			c0.392-0.188,0.717-0.492,0.978-0.912s0.391-0.918,0.391-1.492c0-0.566-0.13-1.061-0.391-1.479s-0.586-0.722-0.978-0.905
			c-0.391-0.183-0.813-0.275-1.27-0.275s-0.879,0.093-1.271,0.275c-0.391,0.184-0.717,0.486-0.977,0.905
			C36.573,73.684,36.443,74.177,36.443,74.744z"/>
		<path fill="#214F9C" d="M49.138,76.568h-0.091l-2.013,3.113h-2.811V79.3l3.396-4.868l-3.035-4.273v-0.383h2.75l1.712,2.576h0.075
			l1.759-2.576h2.704v0.383l-3.035,4.273l3.411,4.868v0.382h-2.825L49.138,76.568z"/>
	</g>
</g>
</svg>
