<svg xmlns="http://www.w3.org/2000/svg" width="59" height="82" viewBox="34.279 49.018 59 82"><path fill="#874E70" d="M40.181 101.915l-.045 15.12h47.791l-.009-15.12c-1.024-1.112-23.465-16.374-23.987-16.501-6.661 5.421-19.492 12.093-23.75 16.501zm16.514-5.597l6.41-.021.009 6.493-6.477-.096.058-6.376zm8.16-.009l6.379.027.019 6.434-6.49.002.092-6.463zm-7.934 8.112l6.195.014.003 6.264c-.33.274.424.249-.647.274l-5.839-.044-.048-5.018c-.015-.779-.211-1.215.336-1.49zm14.048 0c.505.439.205-.139.348.641l-.06 5.903-5.84.006c-1.024-.021-.356.006-.647-.271l.02-6.266 6.179-.013z"/><path fill="#6A1C70" d="M75.966 82.346c-1.625-2.872 2.858-3.313 2.715-.632-.126 2.349-3.542 2.812-4.26.489-.763-2.463 1.169-4.152 3.444-3.521 1.978.549 2.368 3.925.813 4.482.251-1.236 1.103-2.521-.5-3.492-3.571-2.163-4.167 4.43-.92 3.233 1.295-.477 1.082-2.886-.827-2.145-.309.859-.349.574.11 1.221.71-.307.259-.623.998-.509l-.377.987-1.196-.113zM87.46 98.334l.036-12.393c-.263-.644-1.266-.423-2.122-.41-.704.012-1.403.002-2.107-.003-1.428-.009-2.894.098-4.306-.051-.367-.725-.285-.472-.006-1.124l12.209.018-.007-9.418-55.055-.06-.06 9.521 12.175.028c1.087.003 1.336 1.077-.076 1.085l-8.412.045.01 12.761 11.366-7.491 2.68-1.854 6.627-4.527 3.057-1.892c7.484 3.579 16.414 12.602 23.991 15.765z"/><path fill="#874E70" d="M71.37 51.352c-5.211 1.132-6.991 6.442-7.189 11.241-.092 2.213-.002 6.667.282 8.813.512 3.865 3.843.989 5.228-.324 3.382-3.207 6.745-5.075 8.485-9.838 1.825-4.996-1.217-11.106-6.806-9.892zm-2.993 15.446c-.374-2.362-.317-5.851.475-8.145.722-2.09 2.97-4.371 5.08-2.334 3.096 2.988-3.405 9.182-5.555 10.479zm-14.921-9.969c-4.384 1.123-5.992 5.982-3.354 9.644 2.493 3.462 5.913 4.427 9.506 6.292 2.685 1.393 3.983.642 3.504-2.451-.336-2.168-.571-4.563-1.126-6.667-1.018-3.856-3.999-7.979-8.53-6.818zm2.675 3.878l.665.44c1.536 1.349 2.084 4.706 2.322 6.695l.151.853-.383-.303c-1.801-.496-4.815-2.375-5.812-3.843-2.137-3.149 1.438-5.416 3.057-3.842zm13.632 11.878l.039.287c3.972-.735 10.283-3.766 13.817-6.176l3.663-2.96c-.349-.358-.098-.157-.636-.388-.271-.117-.043.053-.507-.163-3.621.2-1.911-1.247-3.714-2.996-1.544 1.882-2.071 3.838-5.394 7.074-1.354 1.321-5.343 4.881-7.268 5.322m-30.195-5.609c4.351 3.173 11.833 5.737 17.261 5.976-.782-.684-4.197-1.782-7.293-4.006-2.479-1.782-3.784-3.361-5.818-5.475-.68.742-.581 1.896-1.319 2.378-.793.516-2.144.507-2.831 1.127"/><path fill="#AB5E8C" d="M56.343 60.695l-.664-.441.664.441"/><g fill="#214F9C"><path d="M43.078 128.547h-2.689v-9.906h4.627c.541 0 1.037.085 1.488.255s.824.396 1.119.68.546.61.751.983c.205.373.331.762.375 1.167.045.406.045.812 0 1.218-.045.405-.17.792-.375 1.16-.206.368-.456.693-.751.977s-.668.509-1.119.679-.947.255-1.488.255h-1.938v2.532zm1.923-4.811c.28 0 .518-.097.713-.29s.318-.429.368-.708c.05-.277.055-.554.015-.827s-.158-.51-.353-.708a1 1 0 0 0-.744-.297h-1.923v2.83h1.924zm6.926 1.783c0 .236.113.437.338.602.225.165.498.269.819.312.32.042.644.049.969.021.325-.028.601-.117.826-.269.226-.15.338-.335.338-.552 0-.32-.167-.543-.503-.665-.336-.123-.809-.203-1.42-.241-1.232-.084-2.174-.358-2.825-.82-.651-.462-.982-1.203-.992-2.222-.021-.812.245-1.495.796-2.052s1.222-.898 2.014-1.026a7.487 7.487 0 0 1 2.381 0c.796.128 1.47.47 2.021 1.026s.821 1.24.812 2.052h-2.555c0-.312-.147-.55-.443-.715a1.914 1.914 0 0 0-.977-.24c-.356.005-.689.09-1 .255s-.476.389-.496.672c-.03.34.098.578.383.715.286.137.714.233 1.285.29.521.057.939.108 1.255.155.315.048.678.14 1.089.276.411.137.729.302.954.495.225.193.42.465.586.813.165.35.248.765.248 1.245 0 .444-.098.854-.293 1.231a2.67 2.67 0 0 1-.789.934c-.331.246-.708.453-1.134.623s-.877.271-1.353.305c-.476.032-.949.03-1.42-.008a4.458 4.458 0 0 1-1.345-.318 4.832 4.832 0 0 1-1.126-.637 2.642 2.642 0 0 1-.774-.962 2.789 2.789 0 0 1-.271-1.295h2.602zm14.89-3.835c0 .302-.075.613-.226.934-.15.321-.351.58-.601.778.841.406 1.262 1.081 1.262 2.024-.01.905-.301 1.653-.871 2.242-.571.59-1.373.885-2.404.885h-4.928v-9.906h4.492c.912 0 1.685.295 2.322.885.636.589.954 1.308.954 2.158zm-3.485-.778h-1.683v1.599h1.698c.341 0 .579-.134.714-.403a.825.825 0 0 0-.007-.799c-.142-.266-.382-.397-.722-.397zm.45 3.708h-2.134v1.684h2.149c.34 0 .579-.139.713-.418a.905.905 0 0 0-.008-.842c-.139-.284-.379-.424-.72-.424zm14.499-3.249c.311.665.466 1.413.466 2.243s-.155 1.58-.466 2.25-.719 1.21-1.225 1.62-1.082.727-1.728.948a6.047 6.047 0 0 1-3.953 0 5.597 5.597 0 0 1-1.728-.948c-.506-.41-.914-.95-1.225-1.62s-.466-1.42-.466-2.25.155-1.578.466-2.243.719-1.203 1.225-1.613c.505-.41 1.081-.727 1.728-.948s1.305-.333 1.976-.333 1.33.111 1.977.333c.646.222 1.222.538 1.728.948s.915.948 1.225 1.613zm-7.557 2.244c0 .575.13 1.073.391 1.492.26.42.586.725.977.913s.813.283 1.27.283.879-.095 1.27-.283.716-.493.977-.913c.261-.419.391-.917.391-1.492 0-.566-.13-1.06-.391-1.479-.261-.419-.586-.722-.977-.905s-.813-.276-1.27-.276-.879.093-1.27.276-.717.486-.977.905c-.261.419-.391.912-.391 1.479z"/><path d="M83.42 125.434h-.091l-2.013 3.113h-2.81v-.382l3.396-4.868-3.035-4.273v-.383h2.75l1.712 2.576h.075l1.759-2.576h2.704v.383l-3.035 4.273 3.411 4.868v.382h-2.825l-1.998-3.113z"/></g></svg>