<?xml version="1.0" encoding="utf-8"?>
<!-- Generator: Adobe Illustrator 14.0.0, SVG Export Plug-In . SVG Version: 6.00 Build 43363)  -->
<!DOCTYPE svg PUBLIC "-//W3C//DTD SVG 1.1//EN" "http://www.w3.org/Graphics/SVG/1.1/DTD/svg11.dtd">
<svg version="1.1" id="Layer_1" xmlns="http://www.w3.org/2000/svg" xmlns:xlink="http://www.w3.org/1999/xlink" x="0px" y="0px"
	 width="108px" height="41px" viewBox="-6.949 -59.733 108 41" enable-background="new -6.949 -59.733 108 41" xml:space="preserve"
	>
<g>
	<g>
		<path fill="#874E70" d="M-4.069-28.242l-0.027,9.336h29.51l-0.006-9.336c-0.632-0.687-14.489-10.111-14.811-10.189
			C6.484-35.084-1.439-30.964-4.069-28.242z M6.129-31.698l3.958-0.014l0.005,4.01l-4-0.06L6.129-31.698z M11.168-31.704
			l3.938,0.017l0.012,3.973l-4.007,0.001L11.168-31.704z M6.268-26.695l3.825,0.009l0.002,3.868
			c-0.204,0.169,0.262,0.153-0.399,0.169L6.09-22.675l-0.03-3.099C6.052-26.255,5.93-26.525,6.268-26.695z M14.943-26.695
			c0.312,0.271,0.126-0.086,0.214,0.396l-0.038,3.645l-3.605,0.003c-0.632-0.013-0.22,0.004-0.399-0.167l0.012-3.869
			C11.127-26.687,14.943-26.695,14.943-26.695z"/>
		<path fill="#6A1C70" d="M18.028-40.326c-1.003-1.772,1.765-2.045,1.677-0.391c-0.078,1.451-2.187,1.736-2.63,0.303
			c-0.471-1.521,0.722-2.564,2.126-2.174c1.221,0.338,1.462,2.424,0.502,2.768c0.155-0.763,0.681-1.557-0.308-2.156
			c-2.206-1.335-2.573,2.735-0.569,1.996c0.801-0.294,0.668-1.781-0.509-1.324c-0.191,0.531-0.217,0.354,0.067,0.754
			c0.438-0.19,0.16-0.385,0.616-0.314l-0.232,0.61L18.028-40.326z M25.125-30.453l0.022-7.652c-0.163-0.398-0.782-0.262-1.311-0.253
			c-0.435,0.007-0.866,0.001-1.3-0.002c-0.882-0.005-1.788,0.061-2.66-0.031c-0.226-0.447-0.176-0.292-0.003-0.694l7.539,0.011
			l-0.004-5.816l-33.995-0.037l-0.038,5.879l7.518,0.018c0.672,0.002,0.826,0.666-0.046,0.67l-5.194,0.028l0.005,7.879l7.019-4.626
			l1.654-1.145l4.092-2.795l1.889-1.168C14.932-37.978,20.447-32.406,25.125-30.453z"/>
		<path fill="#874E70" d="M15.19-59.464c-3.218,0.7-4.317,3.979-4.439,6.942c-0.057,1.367-0.001,4.117,0.173,5.442
			c0.317,2.387,2.374,0.61,3.229-0.2c2.088-1.98,4.165-3.134,5.239-6.075C20.52-56.44,18.641-60.213,15.19-59.464z M13.342-49.926
			c-0.23-1.458-0.195-3.612,0.294-5.03c0.446-1.29,1.834-2.699,3.137-1.441C18.684-54.552,14.67-50.727,13.342-49.926z
			 M4.129-56.082c-2.707,0.693-3.701,3.693-2.07,5.955c1.539,2.138,3.65,2.734,5.869,3.886c1.658,0.86,2.459,0.396,2.164-1.513
			c-0.208-1.339-0.353-2.818-0.695-4.117C8.767-54.252,6.927-56.798,4.129-56.082z M5.78-53.688l0.411,0.271
			c0.948,0.834,1.287,2.908,1.434,4.135l0.094,0.527l-0.237-0.187c-1.112-0.307-2.973-1.466-3.589-2.374
			C2.573-53.259,4.781-54.659,5.78-53.688L5.78-53.688z M14.198-46.353l0.024,0.177c2.452-0.454,6.349-2.326,8.531-3.814
			l2.262-1.827c-0.215-0.222-0.061-0.097-0.393-0.24c-0.168-0.072-0.026,0.033-0.313-0.1c-2.236,0.123-1.18-0.771-2.294-1.85
			c-0.953,1.162-1.278,2.37-3.33,4.368C17.85-48.823,15.386-46.625,14.198-46.353 M-4.447-49.816
			c2.686,1.959,7.307,3.542,10.658,3.69c-0.483-0.422-2.592-1.101-4.503-2.474c-1.531-1.1-2.336-2.075-3.593-3.381
			c-0.419,0.458-0.358,1.171-0.814,1.469C-3.188-50.193-4.023-50.199-4.447-49.816"/>
		<path fill="#AB5E8C" d="M5.911-53.694l-0.409-0.272L5.911-53.694"/>
	</g>
	<g>
		<path fill="#214F9C" d="M39.011-24.058h-3.674v-13.537h6.322c0.739,0,1.418,0.118,2.032,0.35c0.616,0.232,1.127,0.541,1.529,0.929
			c0.403,0.387,0.746,0.833,1.027,1.342c0.279,0.51,0.451,1.041,0.512,1.596c0.062,0.553,0.062,1.108,0,1.663
			c-0.062,0.555-0.232,1.083-0.512,1.585c-0.282,0.504-0.624,0.947-1.027,1.335c-0.402,0.388-0.913,0.695-1.529,0.928
			c-0.614,0.232-1.293,0.349-2.032,0.349h-2.648V-24.058z M41.638-30.631c0.383,0,0.709-0.133,0.975-0.397
			c0.267-0.263,0.436-0.584,0.503-0.966c0.067-0.379,0.075-0.758,0.021-1.13c-0.056-0.373-0.217-0.698-0.483-0.968
			c-0.268-0.272-0.636-0.418-1.017-0.405H39.01v3.867H41.638z M51.101-28.194c0,0.322,0.156,0.596,0.464,0.822
			c0.308,0.226,0.681,0.368,1.118,0.427c0.438,0.056,0.881,0.067,1.325,0.028c0.443-0.039,0.82-0.16,1.127-0.367
			c0.311-0.206,0.463-0.459,0.463-0.755c0-0.438-0.229-0.742-0.688-0.907c-0.458-0.168-1.104-0.278-1.939-0.332
			c-1.683-0.114-2.97-0.488-3.859-1.121c-0.891-0.63-1.342-1.643-1.355-3.034c-0.029-1.11,0.334-2.044,1.088-2.805
			c0.752-0.761,1.669-1.228,2.751-1.401c1.078-0.174,2.177-0.174,3.254,0c1.088,0.173,2.01,0.642,2.762,1.401
			c0.753,0.761,1.121,1.695,1.109,2.805h-3.491c0-0.427-0.202-0.752-0.605-0.977c-0.408-0.227-0.869-0.341-1.334-0.329
			c-0.487,0.006-0.942,0.123-1.367,0.347c-0.426,0.228-0.65,0.533-0.678,0.918c-0.042,0.466,0.133,0.79,0.522,0.978
			c0.392,0.187,0.977,0.319,1.757,0.396c0.712,0.077,1.283,0.146,1.714,0.21c0.432,0.067,0.927,0.192,1.488,0.379
			c0.563,0.187,0.997,0.412,1.304,0.676c0.309,0.264,0.574,0.635,0.801,1.11c0.225,0.479,0.339,1.046,0.339,1.702
			c0,0.606-0.133,1.166-0.4,1.681c-0.256,0.503-0.624,0.939-1.078,1.276c-0.452,0.336-0.968,0.62-1.549,0.852
			c-0.582,0.232-1.198,0.371-1.849,0.416c-0.651,0.046-1.297,0.043-1.941-0.011c-0.631-0.048-1.251-0.194-1.838-0.433
			c-0.549-0.221-1.066-0.514-1.538-0.872c-0.451-0.347-0.814-0.798-1.057-1.313c-0.265-0.552-0.391-1.159-0.371-1.77h3.557H51.101z
			 M71.449-33.436c0,0.414-0.103,0.838-0.309,1.277c-0.204,0.439-0.479,0.792-0.821,1.063c1.149,0.556,1.724,1.476,1.724,2.766
			c-0.014,1.237-0.41,2.257-1.19,3.063c-0.778,0.806-1.875,1.209-3.283,1.209h-6.734v-13.537h6.138c1.246,0,2.304,0.403,3.174,1.209
			C71.013-35.579,71.449-34.597,71.449-33.436z M66.687-34.498h-2.3v2.185h2.32c0.466,0,0.79-0.183,0.977-0.551
			c0.184-0.341,0.182-0.753-0.01-1.092C67.479-34.319,67.151-34.498,66.687-34.498z M67.302-29.433h-2.916v2.302h2.936
			c0.466,0,0.792-0.189,0.975-0.571c0.187-0.362,0.183-0.792-0.012-1.15C68.095-29.24,67.767-29.433,67.302-29.433z M87.114-33.871
			c0.425,0.907,0.637,1.929,0.637,3.063s-0.212,2.159-0.637,3.074c-0.424,0.916-0.981,1.655-1.673,2.215
			c-0.693,0.561-1.479,0.993-2.362,1.294c-1.749,0.606-3.652,0.606-5.401,0c-0.856-0.289-1.657-0.728-2.361-1.294
			c-0.691-0.561-1.249-1.299-1.674-2.215c-0.425-0.915-0.637-1.94-0.637-3.074s0.212-2.156,0.637-3.063
			c0.425-0.909,0.982-1.645,1.674-2.205c0.689-0.561,1.478-0.993,2.361-1.295c0.885-0.302,1.784-0.456,2.7-0.456
			c0.917,0,1.817,0.152,2.701,0.456c0.884,0.302,1.669,0.734,2.362,1.295C86.133-35.515,86.691-34.78,87.114-33.871z M76.788-30.804
			c0,0.784,0.179,1.465,0.534,2.039c0.355,0.574,0.801,0.99,1.335,1.246c0.534,0.257,1.111,0.387,1.735,0.387
			c0.625,0,1.201-0.13,1.735-0.387c0.535-0.256,0.979-0.672,1.335-1.246c0.356-0.574,0.535-1.255,0.535-2.039
			c0-0.774-0.179-1.45-0.535-2.021c-0.355-0.573-0.8-0.986-1.335-1.237c-0.534-0.25-1.11-0.376-1.735-0.376
			c-0.624,0-1.201,0.127-1.735,0.376c-0.534,0.251-0.979,0.665-1.335,1.237C76.967-32.254,76.788-31.58,76.788-30.804z"/>
		<path fill="#214F9C" d="M94.135-28.312h-0.124l-2.75,4.254h-3.841v-0.522l4.642-6.652l-4.148-5.839v-0.523h3.758l2.34,3.521h0.104
			l2.402-3.521h3.695v0.523l-4.147,5.839l4.661,6.652v0.522h-3.86L94.135-28.312z"/>
	</g>
</g>
</svg>
