<?xml version="1.0" encoding="utf-8"?>
<!-- Generator: Adobe Illustrator 14.0.0, SVG Export Plug-In . SVG Version: 6.00 Build 43363)  -->
<!DOCTYPE svg PUBLIC "-//W3C//DTD SVG 1.1//EN" "http://www.w3.org/Graphics/SVG/1.1/DTD/svg11.dtd">
<svg version="1.1" id="Layer_1" xmlns="http://www.w3.org/2000/svg" xmlns:xlink="http://www.w3.org/1999/xlink" x="0px" y="0px"
	 width="59px" height="82px" viewBox="34.279 49.018 59 82" enable-background="new 34.279 49.018 59 82" xml:space="preserve">
<path fill="#874E70" d="M40.181,101.915l-0.045,15.12h47.791l-0.009-15.12c-1.024-1.112-23.465-16.374-23.987-16.501
	C57.27,90.835,44.439,97.507,40.181,101.915z M56.695,96.318l6.41-0.021l0.009,6.493l-6.477-0.096L56.695,96.318z M64.855,96.309
	l6.379,0.027l0.019,6.434l-6.49,0.002L64.855,96.309z M56.921,104.421l6.195,0.014l0.003,6.264c-0.33,0.274,0.424,0.249-0.647,0.274
	l-5.839-0.044l-0.048-5.018C56.57,105.132,56.374,104.696,56.921,104.421z M70.969,104.421c0.505,0.439,0.205-0.139,0.348,0.641
	l-0.06,5.903l-5.84,0.006c-1.024-0.021-0.356,0.006-0.647-0.271l0.02-6.266L70.969,104.421z"/>
<path fill="#6A1C70" d="M75.966,82.346c-1.625-2.872,2.858-3.313,2.715-0.632c-0.126,2.349-3.542,2.812-4.26,0.489
	c-0.763-2.463,1.169-4.152,3.444-3.521c1.978,0.549,2.368,3.925,0.813,4.482c0.251-1.236,1.103-2.521-0.5-3.492
	c-3.571-2.163-4.167,4.43-0.92,3.233c1.295-0.477,1.082-2.886-0.827-2.145c-0.309,0.859-0.349,0.574,0.11,1.221
	c0.71-0.307,0.259-0.623,0.998-0.509l-0.377,0.987L75.966,82.346z M87.46,98.334l0.036-12.393c-0.263-0.644-1.266-0.423-2.122-0.41
	c-0.704,0.012-1.403,0.002-2.107-0.003c-1.428-0.009-2.894,0.098-4.306-0.051c-0.367-0.725-0.285-0.472-0.006-1.124l12.209,0.018
	l-0.007-9.418l-55.055-0.06l-0.06,9.521l12.175,0.028c1.087,0.003,1.336,1.077-0.076,1.085l-8.412,0.045l0.01,12.761l11.366-7.491
	l2.68-1.854l6.627-4.527l3.057-1.892C70.953,86.148,79.883,95.171,87.46,98.334z"/>
<path fill="#874E70" d="M71.37,51.352c-5.211,1.132-6.991,6.442-7.189,11.241c-0.092,2.213-0.002,6.667,0.282,8.813
	c0.512,3.865,3.843,0.989,5.228-0.324c3.382-3.207,6.745-5.075,8.485-9.838C80.001,56.248,76.959,50.138,71.37,51.352z
	 M68.377,66.798c-0.374-2.362-0.317-5.851,0.475-8.145c0.722-2.09,2.97-4.371,5.08-2.334C77.028,59.307,70.527,65.501,68.377,66.798
	z"/>
<path fill="#874E70" d="M53.456,56.829c-4.384,1.123-5.992,5.982-3.354,9.644c2.493,3.462,5.913,4.427,9.506,6.292
	c2.685,1.393,3.983,0.642,3.504-2.451c-0.336-2.168-0.571-4.563-1.126-6.667C60.968,59.791,57.987,55.668,53.456,56.829z
	 M56.131,60.707l0.665,0.44c1.536,1.349,2.084,4.706,2.322,6.695l0.151,0.853l-0.383-0.303c-1.801-0.496-4.815-2.375-5.812-3.843
	C50.937,61.4,54.512,59.133,56.131,60.707z"/>
<path fill="#874E70" d="M69.763,72.585l0.039,0.287c3.972-0.735,10.283-3.766,13.817-6.176l3.663-2.96
	c-0.349-0.358-0.098-0.157-0.636-0.388c-0.271-0.117-0.043,0.053-0.507-0.163c-3.621,0.2-1.911-1.247-3.714-2.996
	c-1.544,1.882-2.071,3.838-5.394,7.074C75.677,68.584,71.688,72.144,69.763,72.585"/>
<path fill="#874E70" d="M39.568,66.976c4.351,3.173,11.833,5.737,17.261,5.976c-0.782-0.684-4.197-1.782-7.293-4.006
	c-2.479-1.782-3.784-3.361-5.818-5.475c-0.68,0.742-0.581,1.896-1.319,2.378C41.606,66.365,40.255,66.356,39.568,66.976"/>
<polyline fill="#AB5E8C" points="56.343,60.695 55.679,60.254 56.343,60.695 "/>
<g>
	<path fill="#214F9C" d="M43.078,128.547h-2.689v-9.906h4.627c0.541,0,1.037,0.085,1.488,0.255s0.824,0.396,1.119,0.68
		s0.546,0.61,0.751,0.983c0.205,0.373,0.331,0.762,0.375,1.167c0.045,0.406,0.045,0.812,0,1.218c-0.045,0.405-0.17,0.792-0.375,1.16
		c-0.206,0.368-0.456,0.693-0.751,0.977s-0.668,0.509-1.119,0.679s-0.947,0.255-1.488,0.255h-1.938V128.547z M45.001,123.736
		c0.28,0,0.518-0.097,0.713-0.29s0.318-0.429,0.368-0.708c0.05-0.277,0.055-0.554,0.015-0.827s-0.158-0.51-0.353-0.708
		s-0.443-0.297-0.744-0.297c-0.19,0-0.394,0-0.609,0s-0.456,0-0.721,0c-0.265,0-0.463,0-0.593,0v2.83H45.001z"/>
	<path fill="#214F9C" d="M51.927,125.519c0,0.236,0.113,0.437,0.338,0.602c0.225,0.165,0.498,0.269,0.819,0.312
		c0.32,0.042,0.644,0.049,0.969,0.021c0.325-0.028,0.601-0.117,0.826-0.269c0.226-0.15,0.338-0.335,0.338-0.552
		c0-0.32-0.167-0.543-0.503-0.665c-0.336-0.123-0.809-0.203-1.42-0.241c-1.232-0.084-2.174-0.358-2.825-0.82
		c-0.651-0.462-0.982-1.203-0.992-2.222c-0.021-0.812,0.245-1.495,0.796-2.052s1.222-0.898,2.014-1.026
		c0.791-0.127,1.585-0.127,2.381,0c0.796,0.128,1.47,0.47,2.021,1.026s0.821,1.24,0.812,2.052h-2.555
		c0-0.312-0.147-0.55-0.443-0.715c-0.296-0.165-0.621-0.245-0.977-0.24c-0.356,0.005-0.689,0.09-1,0.255s-0.476,0.389-0.496,0.672
		c-0.03,0.34,0.098,0.578,0.383,0.715c0.286,0.137,0.714,0.233,1.285,0.29c0.521,0.057,0.939,0.108,1.255,0.155
		c0.315,0.048,0.678,0.14,1.089,0.276c0.411,0.137,0.729,0.302,0.954,0.495c0.225,0.193,0.42,0.465,0.586,0.813
		c0.165,0.35,0.248,0.765,0.248,1.245c0,0.444-0.098,0.854-0.293,1.231c-0.195,0.378-0.458,0.688-0.789,0.934
		c-0.331,0.246-0.708,0.453-1.134,0.623s-0.877,0.271-1.353,0.305c-0.476,0.032-0.949,0.03-1.42-0.008
		c-0.471-0.037-0.919-0.144-1.345-0.318c-0.426-0.174-0.801-0.387-1.126-0.637c-0.326-0.25-0.584-0.57-0.774-0.962
		c-0.19-0.392-0.281-0.823-0.271-1.295H51.927z"/>
	<path fill="#214F9C" d="M66.817,121.684c0,0.302-0.075,0.613-0.226,0.934c-0.15,0.321-0.351,0.58-0.601,0.778
		c0.841,0.406,1.262,1.081,1.262,2.024c-0.01,0.905-0.301,1.653-0.871,2.242c-0.571,0.59-1.373,0.885-2.404,0.885h-4.928v-9.906
		h4.492c0.912,0,1.685,0.295,2.322,0.885C66.499,120.115,66.817,120.834,66.817,121.684z M63.332,120.906h-1.683v1.599h1.698
		c0.341,0,0.579-0.134,0.714-0.403c0.135-0.269,0.133-0.535-0.007-0.799C63.912,121.037,63.672,120.906,63.332,120.906z
		 M63.782,124.614h-2.134v1.684h2.149c0.34,0,0.579-0.139,0.713-0.418c0.136-0.277,0.133-0.559-0.008-0.842
		C64.363,124.754,64.123,124.614,63.782,124.614z"/>
	<path fill="#214F9C" d="M78.281,121.365c0.311,0.665,0.466,1.413,0.466,2.243s-0.155,1.58-0.466,2.25s-0.719,1.21-1.225,1.62
		s-1.082,0.727-1.728,0.948c-0.646,0.222-1.306,0.332-1.977,0.332s-1.329-0.11-1.976-0.332s-1.223-0.538-1.728-0.948
		c-0.506-0.41-0.914-0.95-1.225-1.62s-0.466-1.42-0.466-2.25s0.155-1.578,0.466-2.243s0.719-1.203,1.225-1.613
		c0.505-0.41,1.081-0.727,1.728-0.948s1.305-0.333,1.976-0.333s1.33,0.111,1.977,0.333c0.646,0.222,1.222,0.538,1.728,0.948
		S77.971,120.7,78.281,121.365z M70.724,123.609c0,0.575,0.13,1.073,0.391,1.492c0.26,0.42,0.586,0.725,0.977,0.913
		s0.813,0.283,1.27,0.283s0.879-0.095,1.27-0.283s0.716-0.493,0.977-0.913c0.261-0.419,0.391-0.917,0.391-1.492
		c0-0.566-0.13-1.06-0.391-1.479c-0.261-0.419-0.586-0.722-0.977-0.905s-0.813-0.276-1.27-0.276s-0.879,0.093-1.27,0.276
		s-0.717,0.486-0.977,0.905C70.854,122.549,70.724,123.042,70.724,123.609z"/>
	<path fill="#214F9C" d="M83.42,125.434h-0.091l-2.013,3.113h-2.81v-0.382l3.396-4.868l-3.035-4.273v-0.383h2.75l1.712,2.576h0.075
		l1.759-2.576h2.704v0.383l-3.035,4.273l3.411,4.868v0.382h-2.825L83.42,125.434z"/>
</g>
</svg>
