<?xml version="1.0" encoding="utf-8"?>
<!-- Generator: Adobe Illustrator 14.0.0, SVG Export Plug-In . SVG Version: 6.00 Build 43363)  -->
<!DOCTYPE svg PUBLIC "-//W3C//DTD SVG 1.1//EN" "http://www.w3.org/Graphics/SVG/1.1/DTD/svg11.dtd">
<svg version="1.1" id="Layer_1" xmlns="http://www.w3.org/2000/svg" xmlns:xlink="http://www.w3.org/1999/xlink" x="0px" y="0px"
	 width="127.559px" height="153.071px" viewBox="0 0 127.559 153.071" enable-background="new 0 0 127.559 153.071"
	 xml:space="preserve">
<rect x="-12.054" y="1.201" fill="none" width="151" height="151"/>
<path fill-rule="evenodd" clip-rule="evenodd" fill="#874E70" d="M10.597,117.162l-0.102,34.349h108.563l-0.021-34.349
	c-2.326-2.526-53.303-37.195-54.489-37.482C49.416,91.993,20.271,107.15,10.597,117.162z M48.111,104.447l14.56-0.046l0.02,14.75
	l-14.714-0.217L48.111,104.447z M66.649,104.427l14.49,0.063l0.043,14.615l-14.744,0.004L66.649,104.427z M48.625,122.856
	l14.073,0.03l0.007,14.23c-0.75,0.623,0.963,0.566-1.471,0.622l-13.265-0.1l-0.109-11.397
	C47.828,124.47,47.381,123.48,48.625,122.856z M80.535,122.856c1.146,0.997,0.467-0.315,0.791,1.455l-0.136,13.409l-13.266,0.014
	c-2.326-0.047-0.809,0.012-1.472-0.617l0.046-14.232L80.535,122.856z"/>
<path fill-rule="evenodd" clip-rule="evenodd" fill="#6A1C70" d="M91.886,72.709c-3.69-6.524,6.494-7.524,6.168-1.435
	c-0.286,5.334-8.045,6.386-9.677,1.11c-1.733-5.593,2.655-9.433,7.825-7.999c4.492,1.247,5.379,8.917,1.845,10.184
	c0.57-2.809,2.505-5.728-1.136-7.933c-8.113-4.915-9.466,10.061-2.089,7.345c2.942-1.084,2.457-6.557-1.879-4.872
	c-0.702,1.951-0.792,1.304,0.251,2.772c1.612-0.696,0.587-1.415,2.266-1.155l-0.857,2.243L91.886,72.709z M117.997,109.028
	l0.083-28.151c-0.597-1.463-2.875-0.96-4.82-0.931c-1.6,0.026-3.189,0.004-4.789-0.007c-3.242-0.021-6.572,0.22-9.78-0.115
	c-0.835-1.646-0.649-1.072-0.014-2.553l27.735,0.038l-0.016-21.393L1.331,55.781L1.195,77.409l27.656,0.065
	c2.471,0.006,3.035,2.447-0.173,2.464L9.57,80.041l0.022,28.987l25.819-17.016l6.087-4.214l15.054-10.285l6.945-4.296
	C80.5,81.345,100.784,101.842,117.997,109.028z"/>
<path fill-rule="evenodd" clip-rule="evenodd" fill="#874E70" d="M81.448,2.302C69.61,4.872,65.567,16.936,65.116,27.836
	c-0.208,5.029-0.004,15.145,0.641,20.019c1.161,8.779,8.729,2.246,11.874-0.735c7.684-7.284,15.322-11.529,19.275-22.348
	C101.052,13.424,94.142-0.455,81.448,2.302z M74.649,37.389c-0.851-5.365-0.721-13.291,1.078-18.501
	c1.638-4.748,6.746-9.93,11.539-5.303C94.3,20.372,79.532,34.444,74.649,37.389z"/>
<path fill-rule="evenodd" clip-rule="evenodd" fill="#874E70" d="M40.753,14.743c-9.959,2.551-13.611,13.589-7.62,21.907
	c5.663,7.865,13.432,10.057,21.594,14.292c6.099,3.165,9.048,1.458,7.959-5.568c-0.763-4.925-1.297-10.364-2.558-15.144
	C57.818,21.472,51.047,12.106,40.753,14.743z M46.83,23.554l1.51,1c3.49,3.063,4.734,10.69,5.274,15.209l0.343,1.937l-0.87-0.688
	c-4.091-1.127-10.938-5.395-13.202-8.731C35.031,25.128,43.152,19.978,46.83,23.554z"/>
<path fill-rule="evenodd" clip-rule="evenodd" fill="#874E70" d="M77.795,50.536l0.09,0.653c9.021-1.671,23.36-8.555,31.389-14.03
	l8.319-6.724c-0.792-0.814-0.221-0.357-1.442-0.881c-0.619-0.267-0.1,0.119-1.153-0.371c-8.227,0.455-4.341-2.833-8.438-6.805
	c-3.506,4.275-4.704,8.719-12.252,16.071C91.23,41.447,82.171,49.534,77.795,50.536"/>
<path fill-rule="evenodd" clip-rule="evenodd" fill="#874E70" d="M9.204,37.793c9.883,7.208,26.882,13.032,39.211,13.574
	c-1.775-1.551-9.533-4.046-16.567-9.1c-5.631-4.047-8.596-7.634-13.216-12.438c-1.545,1.687-1.321,4.307-2.998,5.403
	C13.835,36.407,10.765,36.385,9.204,37.793"/>
<polyline fill-rule="evenodd" clip-rule="evenodd" fill="#AB5E8C" points="47.312,23.525 45.803,22.524 47.312,23.525 "/>
</svg>
