<?xml version="1.0" encoding="utf-8"?>
<!-- Generator: Adobe Illustrator 14.0.0, SVG Export Plug-In . SVG Version: 6.00 Build 43363)  -->
<!DOCTYPE svg PUBLIC "-//W3C//DTD SVG 1.1//EN" "http://www.w3.org/Graphics/SVG/1.1/DTD/svg11.dtd">
<svg version="1.1" id="Layer_1" xmlns="http://www.w3.org/2000/svg" xmlns:xlink="http://www.w3.org/1999/xlink" x="0px" y="0px"
	 width="30px" height="30px" viewBox="0 0 30 30" enable-background="new 0 0 30 30" xml:space="preserve">
<path fill="#FFFFFF" d="M21.516,12.904l-10.049,6.189c-0.568,0.35-0.837,1.044-0.654,1.685l1.086,3.817
	c0.093,0.325,0.382,0.541,0.716,0.541c0.019,0,0.037,0,0.056-0.002c0.356-0.024,0.637-0.292,0.686-0.645l0.282-2.092
	c0.038-0.283,0.174-0.545,0.382-0.738l8.292-7.708c0.251-0.233,0.283-0.613,0.077-0.885C22.185,12.794,21.807,12.724,21.516,12.904
	L21.516,12.904z M13.359,20.945c-0.373,0.348-0.615,0.815-0.684,1.321l-0.137,1.016l-0.789-2.771
	c-0.064-0.226,0.031-0.468,0.23-0.59l7.361-4.535L13.359,20.945z"/>
<path fill="#FFFFFF" d="M27.166,8.87c-0.313-0.267-0.746-0.339-1.131-0.191L3.851,17.235c-0.439,0.17-0.722,0.584-0.72,1.055
	c0.001,0.47,0.289,0.882,0.731,1.048l5.182,1.934l2.021,6.501c0.11,0.357,0.392,0.635,0.75,0.742
	c0.358,0.106,0.745,0.03,1.034-0.205l3.013-2.457c0.145-0.118,0.351-0.124,0.502-0.015l5.435,3.946
	C21.992,29.926,22.224,30,22.457,30c0.138,0,0.275-0.025,0.407-0.075c0.356-0.14,0.616-0.445,0.696-0.82l3.98-19.149
	C27.624,9.552,27.479,9.136,27.166,8.87L27.166,8.87z M26.587,9.758l-3.981,19.15c-0.015,0.067-0.064,0.097-0.092,0.108
	c-0.028,0.011-0.086,0.023-0.143-0.019l-5.436-3.944c-0.242-0.178-0.527-0.265-0.813-0.265c-0.312,0-0.622,0.103-0.875,0.311
	l-3.014,2.455c-0.053,0.044-0.109,0.037-0.137,0.029c-0.029-0.01-0.081-0.034-0.1-0.101l-2.092-6.728
	c-0.044-0.145-0.154-0.26-0.294-0.312l-5.405-2.018c-0.081-0.029-0.098-0.093-0.098-0.141s0.016-0.11,0.096-0.14l22.184-8.559l0,0
	c0.073-0.028,0.127,0.004,0.151,0.025C26.563,9.634,26.603,9.682,26.587,9.758L26.587,9.758z"/>
<path fill="#FFFFFF" d="M23.529,19.118c-0.262-0.058-0.522,0.109-0.578,0.373l-0.074,0.34c-0.057,0.263,0.11,0.522,0.372,0.579
	c0.036,0.007,0.069,0.012,0.104,0.012c0.224,0,0.427-0.156,0.476-0.384l0.073-0.341C23.96,19.434,23.793,19.174,23.529,19.118
	L23.529,19.118z"/>
<path fill="#FFFFFF" d="M23.043,21.359c-0.263-0.056-0.521,0.109-0.578,0.373l-1.12,5.155c-0.056,0.264,0.109,0.521,0.373,0.578
	c0.035,0.008,0.069,0.013,0.104,0.013c0.224,0,0.424-0.156,0.475-0.385l1.12-5.154C23.472,21.676,23.306,21.415,23.043,21.359
	L23.043,21.359z"/>
</svg>
