<?xml version="1.0" encoding="utf-8"?>
<!-- Generator: Adobe Illustrator 14.0.0, SVG Export Plug-In . SVG Version: 6.00 Build 43363)  -->
<!DOCTYPE svg PUBLIC "-//W3C//DTD SVG 1.1//EN" "http://www.w3.org/Graphics/SVG/1.1/DTD/svg11.dtd">
<svg version="1.1" id="Layer_1" xmlns="http://www.w3.org/2000/svg" xmlns:xlink="http://www.w3.org/1999/xlink" x="0px" y="0px"
	 width="30px" height="30px" viewBox="0 0 30 30" enable-background="new 0 0 30 30" xml:space="preserve">
<path fill="#FFFFFF" d="M22.709,17.272c0.028-3.306-2.775-6.334-6.25-6.752l-0.705-0.086c-0.018-0.001-0.036-0.003-0.055-0.003
	c-0.72,0-1.22,0.421-1.338,1.126c-0.084,0.495,0.068,0.829,0.21,1.022c0.335,0.456,0.871,0.529,1.223,0.577l0.009,0.001
	c0.079,0.011,0.153,0.021,0.206,0.034c2.756,0.616,3.585,1.48,4.037,4.209c0.01,0.048,0.015,0.127,0.018,0.204
	c0.013,0.198,0.033,0.53,0.184,0.836c0.209,0.424,0.604,0.657,1.11,0.657c0.086,0,0.179-0.007,0.273-0.021
	c0.471-0.071,0.816-0.339,0.975-0.751c0.113-0.297,0.105-0.601,0.1-0.786l0.004-0.259C22.709,17.274,22.709,17.274,22.709,17.272
	L22.709,17.272z M21.798,17.556c0.018,0.486-0.064,0.585-0.302,0.621c-0.051,0.008-0.096,0.012-0.14,0.012
	c-0.234,0-0.352-0.063-0.386-0.641c-0.006-0.101-0.013-0.203-0.028-0.298c-0.268-1.62-0.687-2.627-1.397-3.37
	c-0.709-0.74-1.707-1.211-3.338-1.576c-0.088-0.02-0.182-0.033-0.28-0.046l-0.008-0.001c-0.238-0.033-0.511-0.07-0.618-0.216
	c-0.021-0.028-0.083-0.115-0.046-0.334c0.051-0.311,0.229-0.365,0.419-0.369l0.677,0.083c3.029,0.364,5.474,2.985,5.451,5.842
	l-0.005,0.27C21.797,17.541,21.798,17.548,21.798,17.556L21.798,17.556z"/>
<path fill="#FFFFFF" d="M26.089,17.437v-0.008c-0.004-0.07-0.006-0.138-0.005-0.189c0.029-2.475-1.002-4.994-2.831-6.911
	c-1.83-1.917-4.298-3.064-6.775-3.147L15.93,7.167c-0.004,0-0.008,0-0.012,0c-0.822,0-1.362,0.505-1.408,1.32
	c-0.03,0.515,0.194,0.917,0.628,1.136c0.306,0.154,0.648,0.179,0.852,0.193c0.073,0.005,0.149,0.011,0.2,0.019
	c4.619,0.71,6.648,2.801,7.237,7.458c0.007,0.058,0.009,0.15,0.01,0.239c0.004,0.215,0.01,0.571,0.156,0.903
	c0.203,0.456,0.612,0.712,1.153,0.724h0.027c0.001,0,0.003,0,0.005,0c0.389,0,0.718-0.131,0.954-0.378
	C26.132,18.366,26.106,17.806,26.089,17.437L26.089,17.437z M25.079,18.154c-0.023,0.024-0.094,0.098-0.296,0.098h-0.02
	c-0.287-0.007-0.408-0.109-0.418-0.735c-0.002-0.113-0.004-0.23-0.018-0.338c-0.326-2.578-1.077-4.396-2.363-5.721
	c-1.287-1.325-3.077-2.126-5.637-2.52c-0.087-0.013-0.182-0.02-0.272-0.026c-0.626-0.046-0.651-0.171-0.64-0.374
	c0.022-0.383,0.215-0.464,0.499-0.465l0.538,0.014c4.706,0.158,8.782,4.43,8.725,9.139c-0.001,0.079,0.002,0.157,0.006,0.244v0.006
	C25.195,17.731,25.209,18.021,25.079,18.154L25.079,18.154z"/>
<path fill="#FFFFFF" d="M23.922,23.126c-0.095-0.071-0.202-0.152-0.297-0.23c-0.007-0.005-0.013-0.009-0.018-0.014l-1.956-1.421
	c-0.002,0-0.004-0.003-0.006-0.003c-0.77-0.541-1.477-0.805-2.159-0.805c-0.951,0-1.768,0.505-2.426,1.501
	c-0.211,0.32-0.398,0.363-0.555,0.363c-0.155,0-0.352-0.052-0.564-0.149c-2.125-0.964-3.641-2.437-4.506-4.377
	c-0.396-0.891-0.183-1.262,0.318-1.602c0.478-0.324,1.471-0.998,1.398-2.318c-0.051-0.965-1.251-2.67-1.617-3.17
	c-0.366-0.5-1.631-2.156-2.533-2.487C8.426,8.202,7.824,8.2,7.212,8.405c-1.414,0.478-2.433,1.323-2.949,2.448
	c-0.5,1.09-0.483,2.358,0.05,3.667c1.424,3.497,3.428,6.546,5.955,9.063c2.965,2.953,5.926,4.918,9.054,6.005
	c0.31,0.108,0.934,0.296,1.286,0.343c0.019,0.003,0.04,0.005,0.059,0.005c0.887,0,1.864-0.373,2.754-1.05
	c0.878-0.67,1.538-1.535,1.859-2.438C25.916,24.652,24.716,23.734,23.922,23.126z M24.425,26.146
	c-0.53,1.498-2.299,2.863-3.727,2.883c-0.265-0.042-0.788-0.194-1.076-0.296c-2.997-1.041-5.847-2.936-8.712-5.791
	c-2.44-2.432-4.376-5.379-5.755-8.763c-0.436-1.072-0.459-2.09-0.067-2.948C5.496,10.34,6.331,9.66,7.501,9.267
	c0.206-0.069,0.409-0.104,0.606-0.104S8.5,9.198,8.687,9.267c0.344,0.127,1.152,0.861,2.114,2.173
	c0.963,1.313,1.424,2.312,1.444,2.683c0.041,0.747-0.473,1.159-1.002,1.519c-0.955,0.648-1.163,1.537-0.636,2.721
	c0.956,2.149,2.625,3.777,4.958,4.835c0.336,0.152,0.652,0.228,0.94,0.228c0.533,0,0.976-0.257,1.312-0.771
	c0.487-0.734,1.033-1.092,1.669-1.092c0.49,0,1.024,0.207,1.635,0.636l1.944,1.411c0.102,0.083,0.21,0.165,0.306,0.238
	C24.259,24.525,24.812,25.053,24.425,26.146z"/>
<path d="M24.425,26.146"/>
<path fill="#FFFFFF" d="M19.5,17.58c0.008-0.87-0.436-1.845-1.188-2.607c-0.764-0.776-1.698-1.208-2.56-1.188h-0.001
	c-0.291,0.007-1.173,0.029-1.479,0.918c-0.176,0.51-0.057,0.876,0.073,1.094c0.271,0.451,0.742,0.579,1.123,0.641
	c0.892,0.144,1.293,0.578,1.386,1.499c0.075,0.751,0.626,1.297,1.308,1.297c0.054,0,0.105-0.004,0.155-0.01
	C18.687,19.179,19.542,18.929,19.5,17.58L19.5,17.58z M18.209,18.321c-0.016,0.003-0.03,0.003-0.047,0.003
	c-0.247,0-0.382-0.24-0.404-0.479c-0.133-1.321-0.854-2.097-2.146-2.304c-0.28-0.045-0.426-0.108-0.488-0.21
	c-0.018-0.029-0.068-0.115,0.006-0.332c0.086-0.248,0.284-0.298,0.644-0.308c0.615-0.013,1.304,0.319,1.893,0.917
	c0.588,0.599,0.935,1.335,0.928,1.972c0,0.006,0,0.013,0,0.02C18.617,18.272,18.351,18.305,18.209,18.321L18.209,18.321z"/>
<path fill="#FFFFFF" d="M14.408,24.043c-0.82-0.613-1.626-1.317-2.464-2.15c-0.644-0.639-1.248-1.339-1.797-2.074
	c-0.151-0.2-0.435-0.241-0.636-0.091s-0.241,0.434-0.091,0.635c0.576,0.771,1.21,1.501,1.885,2.174
	c0.867,0.865,1.705,1.597,2.561,2.234c0.082,0.061,0.176,0.09,0.271,0.09c0.138,0,0.274-0.063,0.364-0.182
	C14.651,24.478,14.61,24.192,14.408,24.043L14.408,24.043z"/>
<path fill="#FFFFFF" d="M9.099,18.27c-0.081-0.132-0.159-0.266-0.237-0.399c-0.125-0.218-0.402-0.291-0.619-0.165
	c-0.216,0.126-0.292,0.402-0.165,0.619c0.081,0.14,0.163,0.279,0.248,0.418c0.084,0.14,0.235,0.218,0.387,0.218
	c0.081,0,0.163-0.021,0.235-0.066C9.162,18.763,9.229,18.483,9.099,18.27L9.099,18.27z"/>
</svg>
