<?xml version="1.0" encoding="utf-8"?>
<!-- Generator: Adobe Illustrator 14.0.0, SVG Export Plug-In . SVG Version: 6.00 Build 43363)  -->
<!DOCTYPE svg PUBLIC "-//W3C//DTD SVG 1.1//EN" "http://www.w3.org/Graphics/SVG/1.1/DTD/svg11.dtd">
<svg version="1.1" id="Layer_1" xmlns="http://www.w3.org/2000/svg" xmlns:xlink="http://www.w3.org/1999/xlink" x="0px" y="0px"
	 width="30px" height="30px" viewBox="0 0 30 30" enable-background="new 0 0 30 30" xml:space="preserve">
<path fill="#FFFFFF" d="M27.415,26.242c-0.602-0.721-1.281-1.364-1.938-1.987c-0.23-0.219-0.47-0.444-0.7-0.669l0,0
	c-0.31-0.302-0.461-0.517-0.477-0.674c-0.016-0.155,0.091-0.386,0.335-0.727c0.365-0.514,0.755-1.027,1.132-1.524
	c0.335-0.442,0.681-0.898,1.013-1.358l0.075-0.103c0.648-0.896,1.317-1.823,1.676-2.952c0.103-0.324,0.208-0.803-0.048-1.225
	c-0.257-0.42-0.732-0.545-1.068-0.602c-0.164-0.028-0.318-0.03-0.464-0.03l-4.201-0.003c-0.726-0.013-1.23,0.332-1.504,1.023
	c-0.221,0.552-0.48,1.192-0.78,1.799c-0.575,1.171-1.306,2.521-2.366,3.646l-0.047,0.05c-0.072,0.077-0.189,0.203-0.25,0.231
	c-0.115-0.071-0.248-0.484-0.241-0.7c0-0.005,0-0.011,0-0.017l-0.004-4.854c0-0.024-0.002-0.049-0.005-0.073
	c-0.094-0.693-0.278-1.387-1.374-1.604c-0.035-0.006-0.07-0.01-0.106-0.01h-4.37c-0.823,0-1.257,0.376-1.606,0.785
	c-0.101,0.119-0.369,0.435-0.232,0.821c0.138,0.392,0.55,0.469,0.686,0.495c0.476,0.09,0.722,0.358,0.798,0.873
	c0.151,1,0.169,2.069,0.059,3.364c-0.031,0.348-0.088,0.612-0.182,0.831c-0.025,0.062-0.048,0.1-0.064,0.121
	c-0.025-0.01-0.064-0.029-0.118-0.066c-0.335-0.229-0.587-0.585-0.831-0.93c-0.974-1.375-1.793-2.894-2.505-4.644
	c-0.293-0.717-0.844-1.118-1.551-1.128c-1.346-0.022-2.59-0.021-3.804,0.001c-0.572,0.01-0.974,0.19-1.193,0.536
	c-0.219,0.346-0.211,0.787,0.024,1.312c1.685,3.745,3.214,6.47,4.959,8.835c1.228,1.665,2.465,2.82,3.892,3.636
	c1.5,0.858,3.19,1.278,5.152,1.278c0.223,0,0.449-0.006,0.68-0.016c1.21-0.056,1.702-0.536,1.756-1.716
	c0.03-0.624,0.099-1.128,0.341-1.565c0.066-0.123,0.142-0.206,0.203-0.221c0.062-0.016,0.175,0.023,0.301,0.104
	c0.229,0.149,0.427,0.351,0.589,0.527c0.165,0.182,0.332,0.367,0.492,0.547c0.343,0.384,0.696,0.779,1.067,1.157
	c0.839,0.855,1.807,1.248,2.876,1.166l3.845,0.001c0.014,0,0.025,0,0.036,0c0.444-0.03,0.828-0.275,1.053-0.674
	c0.271-0.481,0.267-1.088-0.012-1.627C28.122,27.123,27.745,26.641,27.415,26.242L27.415,26.242z M27.466,28.77
	c-0.054,0.094-0.119,0.111-0.152,0.116l-3.845-0.003l0,0c-0.015,0-0.03,0.001-0.045,0.003c-0.758,0.063-1.401-0.203-2.023-0.838
	c-0.354-0.361-0.698-0.746-1.033-1.12c-0.162-0.183-0.33-0.371-0.5-0.556c-0.208-0.229-0.47-0.492-0.801-0.708
	c-0.499-0.325-0.912-0.314-1.171-0.249c-0.257,0.064-0.621,0.249-0.9,0.759c-0.361,0.659-0.441,1.371-0.474,2.044
	c-0.02,0.411-0.089,0.519-0.117,0.548c-0.039,0.036-0.166,0.098-0.59,0.118c-2.04,0.096-3.752-0.27-5.233-1.117
	c-1.289-0.737-2.419-1.799-3.554-3.335c-1.696-2.299-3.189-4.961-4.84-8.632c-0.06-0.133-0.078-0.216-0.084-0.261
	c0.042-0.014,0.125-0.031,0.269-0.034c1.201-0.023,2.433-0.024,3.767-0.001c0.183,0.002,0.391,0.057,0.548,0.442
	c0.744,1.828,1.603,3.419,2.626,4.864c0.272,0.384,0.61,0.861,1.107,1.202c0.456,0.312,0.825,0.296,1.055,0.229
	c0.23-0.067,0.549-0.255,0.765-0.764c0.138-0.328,0.223-0.697,0.264-1.164c0.118-1.386,0.097-2.537-0.066-3.623
	c-0.115-0.779-0.517-1.34-1.15-1.628c0.112-0.059,0.239-0.083,0.415-0.083h4.313c0.242,0.054,0.29,0.118,0.307,0.14
	c0.07,0.094,0.109,0.313,0.135,0.485l0.003,4.809c-0.01,0.461,0.215,1.484,0.978,1.765c0.007,0.002,0.013,0.004,0.019,0.007
	c0.695,0.227,1.155-0.264,1.401-0.527l0.043-0.047c1.161-1.231,1.942-2.67,2.553-3.914c0.318-0.643,0.588-1.307,0.815-1.879
	c0.115-0.287,0.219-0.335,0.466-0.33c0.004,0,0.007,0,0.01,0l4.207,0.004c0.098,0,0.2,0,0.278,0.014
	c0.201,0.034,0.284,0.075,0.311,0.093c0.003,0.032,0.003,0.124-0.059,0.315c-0.304,0.961-0.894,1.776-1.519,2.641l-0.074,0.104
	c-0.324,0.448-0.668,0.899-0.998,1.337c-0.381,0.503-0.777,1.023-1.15,1.549c-0.801,1.114-0.729,1.856,0.27,2.829
	c0.234,0.23,0.477,0.459,0.71,0.682c0.663,0.627,1.289,1.222,1.849,1.891c0.293,0.353,0.625,0.777,0.867,1.243
	C27.562,28.434,27.529,28.655,27.466,28.77L27.466,28.77z M27.466,28.77"/>
<path fill="#FFFFFF" d="M5.016,17.277c-0.08-0.16-0.161-0.32-0.24-0.481c-0.135-0.272-0.464-0.385-0.738-0.25
	c-0.272,0.135-0.384,0.465-0.249,0.737c0.08,0.164,0.162,0.327,0.245,0.49c0.097,0.192,0.291,0.303,0.491,0.303
	c0.083,0,0.169-0.02,0.248-0.059C5.044,17.879,5.153,17.549,5.016,17.277L5.016,17.277z M5.016,17.277"/>
<path fill="#FFFFFF" d="M8.47,22.99c-0.903-1.225-1.749-2.553-2.583-4.063c-0.147-0.267-0.483-0.363-0.749-0.216
	c-0.266,0.147-0.362,0.481-0.215,0.748c0.858,1.553,1.728,2.921,2.66,4.184c0.108,0.146,0.274,0.224,0.443,0.224
	c0.114,0,0.228-0.035,0.327-0.107C8.598,23.578,8.65,23.233,8.47,22.99L8.47,22.99z M8.47,22.99"/>
</svg>
