<?xml version="1.0" encoding="utf-8"?>
<!-- Generator: Adobe Illustrator 14.0.0, SVG Export Plug-In . SVG Version: 6.00 Build 43363)  -->
<!DOCTYPE svg PUBLIC "-//W3C//DTD SVG 1.1//EN" "http://www.w3.org/Graphics/SVG/1.1/DTD/svg11.dtd">
<svg version="1.1" id="Layer_1" xmlns="http://www.w3.org/2000/svg" xmlns:xlink="http://www.w3.org/1999/xlink" x="0px" y="0px"
	 width="30px" height="30px" viewBox="0 0 30 30" enable-background="new 0 0 30 30" xml:space="preserve">
<path fill="#FFFFFF" d="M21.688,11.671c-1.713-1.716-3.992-2.661-6.417-2.662c-5.005,0-9.078,4.072-9.081,9.076
	c0,1.717,0.479,3.385,1.388,4.831l0.092,0.146l-0.813,2.97c-0.046,0.165,0.001,0.343,0.122,0.465
	c0.12,0.121,0.295,0.168,0.462,0.125l3.06-0.803l0.142,0.084c1.395,0.828,2.993,1.267,4.621,1.267h0.003
	c5.003,0,9.075-4.072,9.077-9.077C24.345,15.668,23.402,13.387,21.688,11.671L21.688,11.671z M15.268,26.212v0.479l-0.003-0.479
	c-1.456,0-2.886-0.392-4.132-1.132l-0.314-0.186c-0.075-0.044-0.159-0.067-0.244-0.067c-0.041,0-0.082,0.006-0.121,0.016
	l-2.452,0.644l0.65-2.372c0.036-0.13,0.016-0.269-0.056-0.38l-0.205-0.326c-0.813-1.293-1.242-2.787-1.241-4.321
	c0.002-4.477,3.646-8.118,8.123-8.118c2.169,0.001,4.207,0.846,5.74,2.381s2.377,3.575,2.376,5.744
	C23.385,22.57,19.743,26.212,15.268,26.212L15.268,26.212z"/>
<path fill="#FFFFFF" d="M23.699,9.663c-2.251-2.253-5.244-3.494-8.43-3.496c-6.569,0-11.917,5.346-11.919,11.918
	c0,2.025,0.514,4.021,1.493,5.783l-1.571,5.737c-0.045,0.165,0,0.342,0.122,0.464c0.09,0.09,0.214,0.142,0.339,0.142
	c0.041,0,0.083-0.006,0.123-0.017l5.883-1.543c1.697,0.891,3.604,1.36,5.531,1.362c6.569,0,11.916-5.347,11.918-11.919
	C27.187,14.91,25.949,11.916,23.699,9.663L23.699,9.663z M15.264,29.055c-1.829,0-3.64-0.462-5.238-1.333
	c-0.107-0.059-0.232-0.074-0.351-0.043l-5.262,1.379l1.403-5.127c0.034-0.123,0.018-0.256-0.046-0.365
	c-0.958-1.66-1.464-3.554-1.463-5.479C4.31,12.042,9.226,7.125,15.268,7.125c2.931,0,5.684,1.143,7.753,3.214
	c2.07,2.072,3.208,4.826,3.208,7.754C26.226,24.137,21.309,29.055,15.264,29.055L15.264,29.055z"/>
<path fill="#FFFFFF" d="M24.134,22.812c-0.226-0.135-0.521-0.062-0.655,0.165c-1.721,2.883-4.868,4.673-8.214,4.673
	c-0.265,0-0.478,0.215-0.478,0.479s0.216,0.479,0.481,0.479c1.85,0,3.67-0.49,5.265-1.417c1.546-0.9,2.849-2.187,3.767-3.723
	C24.437,23.241,24.361,22.947,24.134,22.812L24.134,22.812z"/>
<path fill="#FFFFFF" d="M25.02,20.509c-0.254-0.076-0.521,0.067-0.597,0.322c-0.054,0.183-0.116,0.365-0.182,0.547
	c-0.091,0.248,0.035,0.522,0.284,0.614c0.055,0.02,0.109,0.029,0.165,0.029c0.194,0,0.378-0.121,0.448-0.313
	c0.073-0.198,0.14-0.4,0.2-0.603C25.418,20.851,25.273,20.585,25.02,20.509L25.02,20.509z"/>
<path fill="#FFFFFF" d="M20.935,21.666l-2.688-2.688c-0.125-0.123-0.304-0.17-0.471-0.123l-0.4,0.115
	c-0.049,0.015-0.093,0.035-0.134,0.063l-0.882,0.586c-1.052-0.726-1.968-1.659-2.676-2.725l0.643-0.644
	c0.058-0.057,0.1-0.128,0.122-0.207l0.114-0.4c0.048-0.166,0.001-0.347-0.121-0.47l-2.689-2.689
	c-0.133-0.133-0.332-0.176-0.507-0.11l-0.458,0.172c-0.062,0.025-0.12,0.063-0.168,0.111c-1.59,1.59-1.59,4.178,0,5.769l4.375,4.375
	c0.796,0.797,1.839,1.192,2.885,1.192c1.044,0,2.088-0.397,2.884-1.192c0.048-0.049,0.086-0.106,0.109-0.17l0.172-0.457
	C21.11,21.997,21.068,21.8,20.935,21.666L20.935,21.666z M20.013,22.193c-0.599,0.562-1.366,0.842-2.135,0.842
	c-0.799,0-1.6-0.302-2.208-0.912l-4.375-4.376c-1.193-1.192-1.217-3.119-0.07-4.34l0.068-0.025l2.271,2.27l-0.003,0.011
	l-0.829,0.826c-0.156,0.158-0.185,0.4-0.069,0.589c0.861,1.409,2.048,2.626,3.435,3.521c0.16,0.104,0.367,0.102,0.526-0.005
	l1.085-0.723l0.056-0.017l2.271,2.271L20.013,22.193z"/>
</svg>
