<svg xmlns="http://www.w3.org/2000/svg" width="24" height="24" viewBox="0.049 588.081 24 24"><path fill="#FFF" d="M13.22 596.86H9.927v-3.292H8.83v3.292H5.537v1.098H8.83v3.292h1.097v-3.292h3.293z"/><path fill="#FFF" d="M9.378 588.081c-5.152 0-9.33 4.177-9.33 9.328s4.177 9.328 9.33 9.328a9.296 9.296 0 0 0 5.329-1.67v-.002l6.919 6.919a.326.326 0 0 0 .464 0l1.865-1.865a.333.333 0 0 0-.001-.464l-6.918-6.917a9.284 9.284 0 0 0 1.671-5.329c.001-5.151-4.177-9.328-9.329-9.328zm0 16.461a7.133 7.133 0 1 1 0-14.266 7.133 7.133 0 1 1 0 14.266z"/></svg>