<?xml version="1.0" encoding="utf-8"?>
<!-- Generator: Adobe Illustrator 14.0.0, SVG Export Plug-In . SVG Version: 6.00 Build 43363)  -->
<!DOCTYPE svg PUBLIC "-//W3C//DTD SVG 1.1//EN" "http://www.w3.org/Graphics/SVG/1.1/DTD/svg11.dtd">
<svg version="1.1" id="Capa_1" xmlns="http://www.w3.org/2000/svg" xmlns:xlink="http://www.w3.org/1999/xlink" x="0px" y="0px"
	 width="24px" height="24px" viewBox="0.049 588.081 24 24" enable-background="new 0.049 588.081 24 24" xml:space="preserve">
<polygon fill="#FFFFFF" points="13.22,596.86 9.927,596.86 9.927,593.568 8.83,593.568 8.83,596.86 5.537,596.86 5.537,597.958 
	8.83,597.958 8.83,601.25 9.927,601.25 9.927,597.958 13.22,597.958 "/>
<path fill="#FFFFFF" d="M9.378,588.081c-5.152,0-9.33,4.177-9.33,9.328s4.177,9.328,9.33,9.328c1.981,0,3.818-0.618,5.329-1.67
	v-0.002l6.919,6.919c0.128,0.128,0.333,0.131,0.464,0l1.865-1.865c0.128-0.128,0.122-0.341-0.001-0.464l-6.918-6.917
	c1.054-1.511,1.671-3.349,1.671-5.329C18.708,592.258,14.53,588.081,9.378,588.081z M9.378,604.542c-3.94,0-7.134-3.193-7.134-7.133
	s3.194-7.133,7.134-7.133c3.94,0,7.134,3.193,7.134,7.133S13.318,604.542,9.378,604.542z"/>
</svg>
