<?xml version="1.0" standalone="no"?>
<!DOCTYPE svg PUBLIC "-//W3C//DTD SVG 20010904//EN"
 "http://www.w3.org/TR/2001/REC-SVG-20010904/DTD/svg10.dtd">
<svg version="1.0" xmlns="http://www.w3.org/2000/svg"
 width="512.000000pt" height="512.000000pt" viewBox="0 0 512.000000 512.000000"
 preserveAspectRatio="xMidYMid meet">
<metadata>
Created by potrace 1.11, written by Peter Selinger 2001-2013
</metadata>
<g transform="translate(0.000000,512.000000) scale(0.100000,-0.100000)"
fill="#000000" stroke="none">
<path d="M1385 3831 c-246 -39 -442 -181 -546 -396 -78 -162 -73 -84 -77
-1178 l-3 -977 180 0 181 0 2 968 3 967 29 59 c125 255 473 284 629 53 70
-102 67 -57 67 -1104 l0 -943 180 0 180 0 2 973 3 972 25 50 c115 235 424 281
599 90 28 -31 60 -80 73 -113 l23 -57 3 -957 3 -958 174 0 175 0 2 963 3 962
31 65 c135 279 521 287 656 12 l33 -67 3 -967 2 -968 180 0 180 0 0 938 c0
558 -4 964 -10 1005 -56 383 -416 658 -797 607 -160 -21 -284 -77 -393 -177
-32 -29 -62 -53 -67 -53 -5 0 -25 16 -44 36 -73 76 -220 155 -344 185 -74 18
-248 15 -325 -4 -100 -26 -237 -98 -307 -162 l-63 -56 -72 61 c-80 67 -199
130 -294 154 -75 19 -212 27 -279 17z"/>
</g>
</svg>
