<svg xmlns="http://www.w3.org/2000/svg" width="105" height="20"><filter filterUnits="objectBoundingBox" id="a"><feGaussianBlur stdDeviation="1" result="blur" in="SourceAlpha"/><feOffset dy="1" result="offsetBlurredAlpha" in="blur" dx="1"/><feMerge><feMergeNode in="offsetBlurredAlpha"/><feMergeNode in="SourceGraphic"/></feMerge></filter><g filter="url(#a)" fill="#FFF"><path d="M11.322 16.728l-.633-2.408H6.515l-.65 2.408H2.05L6.242 3.826h4.632l4.245 12.902h-3.797zm-1.353-5.256l-.554-2.109c-.129-.469-.286-1.075-.47-1.819s-.306-1.277-.365-1.6c-.053.299-.157.791-.312 1.476s-.5 2.036-1.033 4.052h2.734zm10.191.58v4.676h-3.472V3.878h4.21c3.492 0 5.238 1.266 5.238 3.797 0 1.488-.727 2.64-2.18 3.454l3.744 5.599h-3.938l-2.725-4.676h-.877zm0-2.61h.65c1.213 0 1.819-.536 1.819-1.608 0-.885-.595-1.327-1.784-1.327h-.685v2.935zm14.558 7.286h-3.472V6.717h-3.138V3.878h9.738v2.839h-3.129v10.011zm11.773 0l-.633-2.408h-4.175l-.65 2.408h-3.814l4.192-12.902h4.632l4.245 12.902h-3.797zm-1.353-5.256l-.554-2.109c-.129-.469-.286-1.075-.47-1.819s-.306-1.277-.365-1.6c-.053.299-.157.791-.312 1.477s-.5 2.036-1.033 4.052h2.734zm12.08-4.93c-.826 0-1.471.338-1.934 1.015s-.694 1.61-.694 2.799c0 2.473.94 3.709 2.821 3.709.568 0 1.119-.079 1.652-.237s1.069-.349 1.608-.571v2.936c-1.072.475-2.285.712-3.639.712-1.939 0-3.426-.563-4.46-1.688s-1.551-2.751-1.551-4.878c0-1.33.25-2.499.751-3.507s1.222-1.783 2.162-2.325 2.046-.813 3.318-.813c1.389 0 2.716.302 3.981.905L60.17 7.332c-.475-.223-.949-.41-1.424-.563s-.983-.227-1.528-.227zm11.808 10.186h-3.472V6.717h-3.138V3.878h9.738v2.839h-3.129v10.011zm5.146 0V3.878h3.489v12.85h-3.489zm13.662-12.85h3.885l-4.21 12.85h-4.087L79.23 3.878h3.902l1.749 6.513c.363 1.447.563 2.455.598 3.023.041-.41.123-.923.246-1.538s.231-1.099.325-1.45l1.784-6.548zm13.083 12.85h-7.629V3.878h7.629v2.786H96.76v2.021h3.85v2.786h-3.85v2.426h4.157v2.831z"/></g></svg>